<svg width="43" height="42" viewBox="0 0 43 42" fill="none" xmlns="http://www.w3.org/2000/svg">
<g id="adopt dont shop-scissors 1">
<path id="Vector" d="M29.109 1.95994C29.0598 1.90021 28.9941 1.85637 28.92 1.83394C28.3194 1.59758 27.6731 1.5 27.0295 1.54848C26.3858 1.59697 25.7615 1.79027 25.203 2.11394C24.7061 2.49909 24.2382 2.92023 23.803 3.37394C23.2228 3.81145 22.686 4.30371 22.2 4.84394C21.4727 5.86471 20.9279 7.00394 20.59 8.21094C20.324 9.00194 20.051 9.78594 19.785 10.5769C19.561 11.2279 19.337 11.8859 19.127 12.5439C18.7 13.9999 18.287 15.4629 17.888 16.9329C17.8781 17.0002 17.8781 17.0686 17.888 17.1359C18.2095 17.2561 18.5466 17.3292 18.889 17.3529C19.3986 17.412 19.9129 17.2934 20.345 17.0169C21.0683 14.5949 21.7917 12.1753 22.515 9.75794C22.7604 8.70288 23.1969 7.70169 23.803 6.80394C24.23 6.25794 24.769 5.81694 25.203 5.28494C25.637 4.75294 26.008 4.22094 26.603 4.27694C26.1719 6.0943 25.8702 7.93992 25.7 9.79994C25.6997 10.7051 25.5701 11.6055 25.315 12.4739C25.245 12.6699 25.168 12.9359 25.315 13.0619C25.3727 13.0957 25.4371 13.1163 25.5036 13.1224C25.5702 13.1284 25.6372 13.1197 25.7 13.0969L27.296 12.7889C27.4111 12.7747 27.5213 12.734 27.618 12.6699C27.688 12.5834 27.7396 12.4836 27.7697 12.3765C27.7997 12.2693 27.8077 12.1572 27.793 12.0469C27.8157 11.5753 27.8813 11.1067 27.989 10.6469C28.5404 7.87184 28.9308 5.06715 29.158 2.24694C29.1777 2.14851 29.1603 2.04626 29.109 1.95994Z" fill="white"/>
<path id="Vector_2" d="M40.3369 10.934H40.0429C39.6153 10.887 39.1847 10.873 38.7549 10.892C38.1319 11.039 37.4879 11.207 36.8439 11.382L36.1019 11.585L35.6049 11.732C34.9399 11.928 34.2819 12.138 33.6099 12.32L30.7189 13.09C29.8719 13.321 29.0249 13.587 28.1919 13.853L26.8549 14.294C25.8717 14.6463 24.8599 14.9132 23.8309 15.092C22.8517 15.2344 21.8914 15.4856 20.9679 15.841C19.5259 16.233 18.5879 16.044 17.9789 16.345C16.8848 16.8111 15.7539 17.1858 14.5979 17.465C13.8349 17.605 14.0939 18.165 14.0939 18.165C14.2283 18.4995 14.3291 18.8465 14.3949 19.201C14.4579 19.642 14.7029 20.097 15.0949 19.859C15.4869 19.621 17.5309 19.257 18.1049 19.04C18.6789 18.823 18.8959 18.956 20.2049 18.466C21.5139 17.976 22.8929 17.815 24.2019 17.367C24.5729 17.241 24.9439 17.29 25.3079 17.192C25.6719 17.094 27.0439 16.555 27.5479 16.422C29.1509 15.988 31.2859 15.274 31.7479 15.183C32.4197 15.0331 33.0832 14.8485 33.7359 14.63C34.6039 14.371 35.4999 14.182 36.4029 13.993L36.7389 13.923H36.9069H37.0189H37.0819C37.0868 13.9328 37.0894 13.9435 37.0894 13.9545C37.0894 13.9654 37.0868 13.9762 37.0819 13.986V14.021C37.0819 14.021 37.1519 14.021 37.1519 14.126C37.1469 14.1759 37.1301 14.2239 37.1029 14.266L36.7739 14.756C36.4717 15.1631 36.1419 15.549 35.7869 15.911C35.0062 16.682 34.1607 17.3845 33.2599 18.011H33.2109C32.9161 18.1703 32.6331 18.3504 32.3639 18.55C32.1469 18.711 31.9089 18.823 31.6639 18.977C31.4189 19.131 31.1599 19.292 30.8659 19.418C30.0131 19.8317 29.1253 20.1691 28.2129 20.426C27.9329 20.426 27.1629 20.671 26.2809 20.811C25.3989 20.951 24.4329 21.126 23.8379 21.259C22.6043 21.4777 21.3526 21.5785 20.0999 21.56C18.3639 21.56 17.0479 21.875 15.3259 21.616C14.0125 21.7062 12.7099 21.9147 11.4339 22.239C11.0699 22.295 10.4959 22.358 10.6009 22.785C10.692 23.2571 10.6358 23.7459 10.4399 24.185C10.2836 24.5512 10.0511 24.8798 9.75778 25.149C9.46446 25.4181 9.11711 25.6217 8.73891 25.746C8.33629 25.8773 7.90996 25.9196 7.48938 25.8701C7.0688 25.8205 6.66399 25.6803 6.30291 25.459C5.81419 25.1701 5.42947 24.734 5.20391 24.213C4.98878 23.6783 4.92109 23.0957 5.00791 22.526C5.07713 22.0961 5.23796 21.686 5.47951 21.3237C5.72106 20.9614 6.03768 20.6552 6.40791 20.426C6.76211 20.2017 7.15855 20.0524 7.57273 19.9874C7.98691 19.9224 8.41002 19.943 8.81591 20.048C9.29866 20.192 9.74825 20.4299 10.1389 20.748C10.4208 20.9599 10.6853 21.194 10.9299 21.448C11.338 21.368 11.7384 21.2533 12.1269 21.105C12.9109 20.825 14.5209 20.874 13.8559 19.509C13.3658 18.5827 12.6418 17.8008 11.7559 17.241C11.0122 16.7525 10.1798 16.4148 9.30591 16.247C8.32308 16.0607 7.31085 16.099 6.34491 16.359C5.37778 16.6274 4.48158 17.1054 3.71991 17.759C3.03157 18.3405 2.46736 19.0547 2.06091 19.859C1.5722 20.8402 1.31365 21.9199 1.30491 23.016C1.2845 23.7926 1.40791 24.5663 1.66891 25.298C2.08961 26.4978 2.84207 27.5537 3.83891 28.343C4.95181 29.1968 6.30139 29.6858 7.70291 29.743C8.87585 29.7948 10.0405 29.5237 11.0699 28.959C12.2462 28.3101 13.2292 27.3608 13.9189 26.208C14.1379 25.858 14.332 25.4931 14.4999 25.116C14.6199 24.7948 14.7044 24.4615 14.7519 24.122C14.9571 24.1187 15.1613 24.0929 15.3609 24.045C15.6409 23.982 17.2439 24.157 18.2169 24.122C19.3999 24.073 20.7019 24.185 21.9269 24.08C22.4869 24.08 23.0329 23.849 23.5859 23.758H24.2859C24.7549 23.758 25.2519 23.66 25.7419 23.583C26.2319 23.506 26.7289 23.366 27.1839 23.247C27.7649 23.079 28.3109 22.876 28.8569 22.722C29.4029 22.568 29.9489 22.33 30.5369 22.148C31.1249 21.966 31.5939 21.721 32.1399 21.504C32.6859 21.287 33.2179 20.951 33.7149 20.65C34.7066 20.0532 35.6562 19.389 36.5569 18.662C37.1786 18.1122 37.7289 17.4867 38.1949 16.8C38.4263 16.4774 38.6412 16.1433 38.8389 15.799L38.9719 15.575C38.9719 15.505 39.0489 15.442 39.1049 15.33L39.3639 14.819C39.8719 13.9116 40.2222 12.9246 40.3999 11.9L40.4979 11.2C40.4979 11.137 40.4979 11.067 40.4979 11.011L40.3369 10.934Z" fill="white"/>
<path id="Vector_3" d="M26.0781 33.9849C26.0028 32.6437 25.5728 31.3466 24.8321 30.2259C24.6175 29.8907 24.3838 29.5682 24.1321 29.2599L24.0691 29.1969C23.7059 28.8215 23.2939 28.4966 22.8441 28.2309C22.8697 27.6511 22.9329 27.0736 23.0331 26.5019C23.3437 25.5248 23.5915 24.5287 23.7751 23.5199C23.7751 23.0229 23.7751 23.0229 23.1171 22.8199C22.4591 22.6169 21.7171 22.4909 21.5841 22.6799C21.4088 23.0563 21.3067 23.4625 21.2831 23.8769C21.1851 24.3669 21.0451 24.8709 20.9751 25.3679C20.8281 26.3899 20.5411 27.3769 20.3871 28.3919C20.2961 29.0009 20.3451 29.6169 20.2611 30.2189C20.0931 31.4789 20.2611 31.4229 20.6251 31.8079C20.7951 31.9537 20.9805 32.0804 21.1781 32.1859C21.5662 32.4584 21.8598 32.845 22.0181 33.2919C22.2002 33.8139 22.2311 34.3767 22.1073 34.9154C21.9834 35.4542 21.7098 35.9469 21.3181 36.3369C20.9215 36.7136 20.4288 36.9736 19.8941 37.0885C19.3593 37.2033 18.8033 37.1685 18.2871 36.9879C17.7766 36.7927 17.327 36.4657 16.984 36.0403C16.6409 35.6149 16.4167 35.1062 16.3341 34.5659C16.1801 33.4529 16.8241 31.4649 18.2031 31.4509C18.354 31.472 18.5071 31.472 18.6581 31.4509C18.7418 31.4218 18.8185 31.3756 18.8836 31.3154C18.9486 31.2552 19.0005 31.1822 19.0361 31.1009C19.2277 30.5513 19.3499 29.9799 19.4001 29.3999C19.6036 28.173 19.7206 26.9333 19.7501 25.6899C19.8585 24.9027 19.8585 24.1042 19.7501 23.3169C19.6311 22.8129 19.6311 22.8129 18.9661 22.7849C18.3011 22.7569 17.5661 22.7849 17.4331 23.0019C17.3001 23.2189 17.4891 25.7599 17.4331 26.0539C17.4331 26.2289 17.3281 26.9569 17.2931 27.6289C16.7762 27.7854 16.2803 28.004 15.8161 28.2799C15.0567 28.7414 14.3935 29.3451 13.8631 30.0579C13.2681 30.862 12.8635 31.7907 12.6801 32.7739C12.4923 33.7556 12.5234 34.7666 12.7711 35.7349C12.9999 36.6041 13.397 37.4198 13.9401 38.1359C14.6095 39.0032 15.4693 39.7049 16.4531 40.1869C17.1429 40.556 17.8954 40.7934 18.6721 40.8869C19.935 41.0274 21.2118 40.8065 22.3541 40.2499C23.6127 39.627 24.6472 38.6292 25.3151 37.3939C25.8769 36.349 26.1409 35.1697 26.0781 33.9849Z" fill="white"/>
<path id="Vector_4" d="M22.823 18.235C22.5445 18.2129 22.2658 18.2745 22.0227 18.4121C21.7795 18.5496 21.5831 18.7568 21.4586 19.0069C21.3342 19.257 21.2874 19.5386 21.3243 19.8155C21.3612 20.0924 21.48 20.3519 21.6656 20.5607C21.8512 20.7695 22.095 20.918 22.3657 20.9871C22.6364 21.0562 22.9215 21.0427 23.1845 20.9485C23.4475 20.8542 23.6762 20.6834 23.8413 20.4581C24.0064 20.2327 24.1003 19.9631 24.111 19.684C24.1233 19.5039 24.0996 19.3232 24.0412 19.1524C23.9829 18.9815 23.8911 18.8241 23.7711 18.6891C23.6512 18.5542 23.5056 18.4446 23.3428 18.3666C23.18 18.2886 23.0033 18.2439 22.823 18.235Z" fill="white"/>
</g>
</svg>
