<svg width="51" height="50" viewBox="0 0 51 50" fill="none" xmlns="http://www.w3.org/2000/svg">
<g id="adopt dont shop-leash 1">
<path id="Vector" d="M30.725 15.3167C31.7989 15.6883 32.9226 15.8962 34.0584 15.9334C34.8084 15.9917 36.2834 15.975 36.9917 16.075C37.9186 16.1792 38.857 16.0942 39.75 15.825C41.1334 15.6417 43.3667 14.9917 43.9167 14.5667C44.4667 14.1417 44.9 13.9917 45.3584 13.6584C45.9688 13.1355 46.5094 12.5361 46.9667 11.875C47.8 11.1584 47.025 11.0417 46.45 10.6C46.325 10.5167 45.0667 9.76671 45.1 10.2C44.9842 10.498 44.7771 10.7518 44.5084 10.925C44.175 11.2084 43.7417 11.4417 43.575 11.5917C42.5917 12.1669 41.5461 12.6282 40.4584 12.9667C39.3691 13.2532 38.2508 13.4154 37.125 13.45C36.8084 13.5 36.5167 13.3334 36.2167 13.3334C35.5833 13.4056 34.945 13.4252 34.3084 13.3917C33.2241 13.2874 32.1573 13.0466 31.1334 12.675C30.4604 12.3376 29.8469 11.8929 29.3167 11.3584C29.075 11.125 28.3334 10.025 28.0584 10.3917C27.9185 10.5442 27.7554 10.6736 27.575 10.775C26.675 11.4584 27.575 12.7917 28.1167 13.4584C28.8388 14.2622 29.7294 14.8968 30.725 15.3167Z" fill="white"/>
<path id="Vector_2" d="M47.9001 12.625C47.9001 11.9083 47.6501 10.9583 47.1667 10.8333C46.6834 10.7083 45.5001 11.4583 45.0001 11.9083C44.5001 12.3583 44.8334 13.65 44.9084 13.775C44.9383 14.0267 44.9039 14.2818 44.8084 14.5166C43.8334 17.4333 41.5334 18.3333 35.5001 18.3333C33.3001 18.3333 28.9334 17.6166 28.5917 14.7166C28.5917 14.45 28.5917 13.575 28.8334 13.3333C29.6667 12.5 28.3751 12.2416 28.0001 11.6666C27.6251 11.0916 26.3334 10.375 25.8167 11.2166C25.5707 11.6859 25.3939 12.1884 25.2917 12.7083C25.2417 12.9589 25.2055 13.2121 25.1834 13.4666C25.1413 13.7428 25.1413 14.0238 25.1834 14.3C25.1834 14.5833 25.2501 14.8666 25.2667 15.175C25.3374 15.5373 25.4349 15.8938 25.5584 16.2416C25.6589 16.5312 25.7872 16.8103 25.9417 17.075C26.0902 17.3575 26.2691 17.6229 26.4751 17.8666C26.6693 18.1177 26.8931 18.3444 27.1417 18.5416C29.0817 20.2585 31.4845 21.3657 34.0501 21.725C34.6581 21.8022 35.2706 21.8384 35.8834 21.8333C37.1917 21.8333 38.5084 21.7 38.8001 21.7C38.9417 21.7 39.2167 21.7 39.5667 21.7C39.9167 21.7 40.4001 21.5916 40.8251 21.5166C41.293 21.4115 41.7548 21.2808 42.2084 21.125C42.9751 20.8916 45.0334 19.5333 45.0334 19.6333C45.7834 19.35 46.1834 18.4916 46.6417 17.8666C47.4188 16.743 47.8319 15.4078 47.8251 14.0416C47.8251 13.825 47.8251 13.6083 47.8251 13.3916C47.8251 13.175 47.9167 12.8916 47.9001 12.625Z" fill="white"/>
<path id="Vector_3" d="M42.3418 8.14997C41.2588 7.82676 40.1381 7.64744 39.0084 7.61663C38.2584 7.56663 36.7834 7.61663 36.0751 7.49163C35.15 7.40529 34.217 7.47858 33.3168 7.7083C31.8798 7.85481 30.4743 8.22307 29.1501 8.79997C28.7334 9.11663 28.1668 9.29997 27.7168 9.5833C27.1119 10.0203 26.5706 10.5392 26.1084 11.125C25.2751 11.75 26.0418 11.8416 26.6251 12.225C26.7501 12.3 28.0001 12.95 27.9668 12.575C28.0937 12.305 28.304 12.083 28.5668 11.9416C28.9001 11.7 29.3251 11.5 29.5001 11.375C31.7537 10.166 34.3104 9.63897 36.8584 9.8583C37.4956 9.80079 38.136 9.78687 38.7751 9.81663C39.8534 9.90131 40.9185 10.1082 41.9501 10.4333C42.6335 10.7098 43.2691 11.0923 43.8334 11.5666C44.0751 11.775 44.8168 12.7166 45.0834 12.4C45.2317 12.2674 45.397 12.1553 45.5751 12.0666C46.4751 11.475 45.5751 10.325 45.0334 9.74997C44.2588 9.03319 43.3416 8.48797 42.3418 8.14997Z" fill="white"/>
<path id="Vector_4" d="M25.1666 10.4751C25.1666 11.0917 25.4083 11.9001 25.9 12.0251C26.3916 12.1501 27.5083 11.5001 28.0583 11.0917C28.6083 10.6834 28.225 9.59173 28.15 9.48339C28.13 9.26373 28.1673 9.04264 28.2583 8.84173C29.2333 6.26673 31.5916 5.57506 37.5666 5.50839C39.75 5.50839 44.075 6.06673 44.475 8.64173C44.475 8.86673 44.475 9.62506 44.2333 9.83339C43.4 10.5501 44.6833 10.7751 45.0666 11.2751C45.45 11.7751 46.7333 12.3834 47.25 11.6584C47.4933 11.2589 47.6705 10.8227 47.775 10.3667C47.827 10.1534 47.8605 9.93588 47.875 9.71673C47.9164 9.48243 47.9164 9.24269 47.875 9.00839C47.875 8.75839 47.8083 8.50839 47.7916 8.25006C47.4796 7.67595 47.0709 7.16004 46.5833 6.72506C46.3851 6.50473 46.1613 6.3089 45.9166 6.14173C43.8986 4.62843 41.5142 3.6793 39.0083 3.39173C38.3961 3.33554 37.7811 3.31606 37.1666 3.33339C35.85 3.33339 34.5333 3.45006 34.25 3.45006C34.1083 3.45006 33.8333 3.45006 33.4833 3.45006C33.1333 3.45006 32.65 3.54173 32.225 3.61673C31.8 3.69173 31.2833 3.82506 30.8416 3.95006C30.0833 4.16673 28 5.34173 28 5.25006C27.25 5.50006 26.8416 6.24173 26.3916 6.78339C25.7583 7.48339 25.4833 7.42506 25.35 8.15839C25.2782 8.52148 25.2309 8.88897 25.2083 9.25839C25.2083 9.44173 25.2083 9.62506 25.1666 9.81673C25.1499 10.0359 25.1499 10.2559 25.1666 10.4751Z" fill="white"/>
<path id="Vector_5" d="M37.2666 23.4417C36.8628 23.4961 36.4536 23.4961 36.0499 23.4417C35.5499 23.3584 34.9749 23.5334 35.1166 24.225C35.2582 24.9167 35.0416 28.1417 35.1166 29.1C35.1916 30.0584 35.1166 33.7834 35.2416 35.95C35.2416 36.2084 35.2416 36.5084 35.2416 36.7334C35.2543 36.9554 35.2543 37.178 35.2416 37.4C35.186 37.8439 35.0711 38.2784 34.8999 38.6917C34.5528 39.5085 34.0743 40.2629 33.4832 40.925C33.129 41.2401 32.7303 41.5012 32.2999 41.7C31.9209 41.9699 31.5162 42.2016 31.0916 42.3917C30.5985 42.6137 30.0718 42.7517 29.5332 42.8C28.9766 42.8388 28.4174 42.8136 27.8666 42.725C27.3095 42.618 26.7689 42.4387 26.2582 42.1917C25.5507 41.882 24.9214 41.4179 24.4166 40.8334C23.8367 40.1493 23.3773 39.3715 23.0582 38.5334C22.8096 37.6682 22.6724 36.7749 22.6499 35.875C22.6054 35.4689 22.625 35.0583 22.7082 34.6584C22.9635 33.2457 23.0613 31.8092 22.9999 30.375C22.9999 29.5 22.9999 28.7084 22.9999 27.7667C22.9716 26.7394 22.7304 25.7292 22.2916 24.8C22.0282 24.1665 21.7074 23.5584 21.3332 22.9834C20.7354 22.1569 20.0097 21.4311 19.1832 20.8334C18.2794 20.1639 17.2552 19.6745 16.1666 19.3917C15.1776 19.1332 14.1521 19.0431 13.1332 19.125H13.0416C12.3874 19.1587 11.7417 19.2878 11.1249 19.5084C10.0025 19.8868 8.96803 20.4876 8.08324 21.275C7.19277 22.0908 6.47083 23.0732 5.95824 24.1667C5.66557 24.7921 5.43663 25.4454 5.2749 26.1167C5.11129 26.7599 5.02182 27.4198 5.00824 28.0834V29.3334C5.00824 29.9334 5.00824 30.55 5.00824 31.1584L5.53324 31.85L5.7999 32.225L6.23324 32.8417L6.9249 33.8667C7.35824 34.5084 8.3749 36.3667 6.81657 36.6834C6.53374 36.7496 6.23699 36.721 5.97198 36.602C5.70698 36.4831 5.48841 36.2803 5.3499 36.025C5.285 35.8948 5.24541 35.7534 5.23324 35.6084C5.23324 35.5 5.23324 35.55 5.23324 35.475C5.25544 35.3845 5.28327 35.2954 5.31657 35.2084C5.52765 34.6871 5.80794 34.1965 6.1499 33.75C6.65888 33.1418 7.03118 32.4313 7.24157 31.6667C7.28324 31.1167 6.40824 30.4167 5.5749 30.125C4.8749 29.925 3.83324 31.975 3.66657 32.4417C3.59157 32.675 3.1749 33.275 2.7749 34.275C2.71763 34.4103 2.67028 34.5495 2.63324 34.6917C2.58238 34.8605 2.54614 35.0333 2.5249 35.2084V35.5167V35.7667C2.52877 35.9371 2.54548 36.1071 2.5749 36.275C2.69489 36.885 2.9608 37.4569 3.3499 37.9417C3.69155 38.3862 4.12227 38.7544 4.61449 39.0227C5.1067 39.2911 5.64954 39.4537 6.20824 39.5C6.97986 39.5126 7.73942 39.3075 8.3999 38.9084C9.32017 38.4854 10.0423 37.7245 10.4166 36.7834C10.5132 36.4753 10.5692 36.1559 10.5832 35.8334C10.5988 35.6559 10.5988 35.4775 10.5832 35.3C10.5645 35.1157 10.5254 34.934 10.4666 34.7584C10.2876 34.2585 10.0528 33.7805 9.76657 33.3334C9.60824 32.9667 9.43324 32.6334 9.25824 32.3C9.01322 31.8571 8.73462 31.4337 8.4249 31.0334C7.64312 29.5489 7.43262 27.8293 7.83324 26.2C8.04941 25.6656 8.3292 25.1592 8.66657 24.6917C9.05166 24.0069 9.56354 23.4017 10.1749 22.9084C11.2096 22.3703 12.3446 22.0525 13.5082 21.975C14.3588 21.9003 15.215 22.0259 16.0082 22.3417C16.9006 22.6758 17.723 23.1732 18.4332 23.8084C19.0409 24.3567 19.5386 25.0156 19.8999 25.75C20.2455 26.4787 20.4194 27.2769 20.4082 28.0834C20.4082 30.4667 20.1082 32.85 20.1249 35.2834V36.7584C20.1249 37.05 20.1249 37.3417 20.1749 37.5917L20.3082 38.425C20.6856 40.2536 21.627 41.9178 22.9999 43.1834C24.2007 44.2928 25.6971 45.0308 27.3082 45.3084C28.1551 45.4388 29.0159 45.4528 29.8666 45.35C30.8132 45.2061 31.734 44.9254 32.5999 44.5167C33.4502 44.1217 34.2503 43.6265 34.9832 43.0417C35.7183 42.5096 36.3224 41.8171 36.7499 41.0167C37.1746 40.2085 37.4832 39.3444 37.6666 38.45C37.7415 38.0894 37.7971 37.725 37.8332 37.3584C37.8332 36.975 37.8916 36.525 37.8916 36.225C37.8916 35.5334 37.8916 34.8167 37.8916 34.1334C37.9281 33.1108 37.9086 32.0871 37.8332 31.0667C37.6916 30.025 37.7666 25.675 37.8332 24.4584C37.8999 23.2417 37.2666 23.4417 37.2666 23.4417Z" fill="white"/>
</g>
</svg>
