<svg width="45" height="44" viewBox="0 0 45 44" fill="none" xmlns="http://www.w3.org/2000/svg">
<g id="adopt dont shop-pen 1">
<path id="Vector" d="M35.3334 13.5813C35.7761 13.9428 36.1859 14.3428 36.558 14.7766C36.998 15.3266 37.68 15.7886 37.9807 15.2093C38.1274 14.916 37.9807 15.2826 38.6334 14.6666C39.286 14.0506 39.572 13.706 40.1 13.2C40.628 12.694 41.31 12.0266 41.5667 11.7333L42.388 10.824C42.448 10.7635 42.4817 10.6818 42.4817 10.5966C42.4817 10.5114 42.448 10.4297 42.388 10.3693L41.1267 9.15928L39.242 7.28928L37.966 6.04995L37.3354 5.47795C37.0274 5.19928 35.9714 4.64195 35.7 4.39995C35.7 4.39995 34.842 3.54195 34.4387 3.13862C34.3775 3.08596 34.2994 3.05701 34.2187 3.05701C34.138 3.05701 34.0599 3.08596 33.9987 3.13862L31.7987 4.75928L30.6474 5.86662C30.4054 6.10862 30.1707 6.35062 29.914 6.59995C29.5547 7.01062 29.0487 7.18662 28.6747 7.56062C28.3007 7.93462 27.0247 9.56262 26.4747 10.076C24.8247 11.704 22.742 14.0653 22.236 14.476C21.5548 15.1282 20.9086 15.8161 20.3 16.5366C19.9187 16.9326 19.5667 17.336 19.1634 17.7246C18.672 18.2086 18.2834 19.0153 17.6234 19.3013C16.4735 19.9152 15.4408 20.727 14.5727 21.6993C13.4329 22.7325 12.3807 23.8584 11.4267 25.0653C11.346 25.2413 9.96004 26.6786 8.44204 28.1966C8.36859 28.2708 8.32739 28.3709 8.32739 28.4753C8.32739 28.5797 8.36859 28.6798 8.44204 28.754L10.0994 30.4113L11.6174 31.9586L13.8174 34.2466L13.8907 34.3713C14.0887 34.628 14.8954 35.4566 16.0174 36.5713C16.0536 36.6085 16.0969 36.6382 16.1448 36.6584C16.1926 36.6786 16.2441 36.689 16.296 36.689C16.348 36.689 16.3994 36.6786 16.4473 36.6584C16.4952 36.6382 16.5385 36.6085 16.5747 36.5713C17.308 35.838 18.078 35.0459 18.8994 34.2246L20.4907 32.582C21.3927 31.6433 22.1554 30.8733 22.3754 30.69C24.0014 29.2594 25.5486 27.7416 27.01 26.1433C27.4107 25.6591 27.8497 25.2078 28.3227 24.794C28.4755 24.6598 28.6399 24.5395 28.814 24.4346C29.6647 23.958 30.134 22.968 30.8454 22.33C32.686 20.6506 31.476 21.1933 33.4487 19.6753C34.028 19.228 34.8054 18.5973 34.8274 17.9813C34.8494 17.3653 33.764 16.2653 32.7227 15.5686C31.9234 15.0406 30.794 16.6833 30.6254 17.0353C30.4567 17.3873 30.9187 16.588 29.9947 17.556C29.5474 18.0326 29.012 18.4286 28.528 18.898C28.2127 19.2206 28 19.6313 27.67 19.9613C27.34 20.2913 26.6507 20.57 26.2034 20.988C25.6607 21.538 25.2574 22.2126 24.7367 22.792L24.0034 23.4006C23.27 23.9946 22.7714 24.772 22.104 25.41C21.818 25.6886 21.444 25.872 21.158 26.1433C20.872 26.4146 20.8427 26.818 20.6447 27.1773C20.0874 28.1526 18.826 28.9226 18.0194 29.6926C17.726 29.9786 17.462 30.3013 17.1907 30.624L16.7874 31.1006L16.6187 31.2986L16.5527 31.3573C16.3767 31.4966 16.3254 31.2473 16.2594 31.13C15.9641 30.7465 15.6244 30.3994 15.2474 30.096C14.91 29.7513 14.58 29.4066 14.25 29.0546C14.1266 28.8982 13.9891 28.7534 13.8394 28.622C13.7314 28.545 13.6093 28.4902 13.48 28.4606C13.326 28.4093 13.48 28.0866 13.5534 28.0133L15.5407 25.5126C16.1358 24.762 16.8863 24.1491 17.7407 23.716C17.8942 23.6493 18.0539 23.5978 18.2174 23.562C19.288 23.2613 19.7354 22.1833 20.4174 21.4646L22.2654 19.5946L25.25 16.6613C26.1227 15.796 26.966 14.894 27.7874 13.9773L29.1 12.5106C30.0454 11.3974 31.0938 10.3759 32.2314 9.45995C32.6786 9.16642 33.0962 8.82994 33.478 8.45528C33.7054 8.23528 33.9914 7.53862 34.2627 7.91262C34.548 8.26765 34.8593 8.60101 35.194 8.90995L36.008 9.73862C36.1684 9.93451 36.3505 10.1116 36.5507 10.2666C36.69 10.3473 36.9174 10.34 37.0127 10.4866C37.108 10.6333 36.8367 10.8606 36.646 11.0293C36.0814 11.572 35.568 12.0266 35.2894 12.2686C35.1827 12.3436 35.0964 12.4439 35.0383 12.5606C34.9802 12.6773 34.952 12.8066 34.9564 12.9368C34.9607 13.0671 34.9975 13.1943 35.0633 13.3068C35.1291 13.4193 35.2219 13.5136 35.3334 13.5813Z" fill="white"/>
<path id="Vector_2" d="M14.8881 36.4246C14.7268 36.205 14.5397 36.0056 14.3308 35.8306C14.1181 35.618 13.9054 35.4126 13.6781 35.222C13.4508 35.0313 13.1868 34.7233 12.9448 34.826C12.1234 35.2073 11.4781 35.9333 10.2388 36.2046C9.38587 36.4045 8.57272 36.7467 7.83344 37.2166C7.59877 37.3193 7.4301 37.2166 7.70144 36.8793C7.95077 36.674 8.12677 35.5226 8.2661 35.4126C8.51476 34.9853 8.69769 34.523 8.80877 34.0413C9.02144 33.308 9.2121 33.572 9.24144 32.89C9.36132 32.6115 9.53876 32.3616 9.7621 32.1566C10.2754 31.6506 8.7061 30.536 7.94344 30.1693C7.37877 30.008 7.43744 30.5066 7.48877 30.6166C7.23676 31.2538 6.94279 31.8736 6.60877 32.472C6.05877 35.2 4.47477 37.8033 3.90277 40.59C3.89479 40.6256 3.89582 40.6627 3.90576 40.6979C3.91571 40.733 3.93425 40.7652 3.95972 40.7914C3.98519 40.8176 4.01679 40.837 4.05166 40.8479C4.08653 40.8589 4.12357 40.8609 4.15944 40.854C6.19212 40.3691 8.16107 39.6479 10.0261 38.7053C10.5981 38.2946 11.3241 38.5073 11.8668 38.104C12.9594 37.884 13.5021 37.29 14.4921 37.1433C14.6081 37.1182 14.7163 37.0654 14.8074 36.9893C14.8524 36.9596 14.8906 36.9207 14.9194 36.8751C14.9482 36.8296 14.9671 36.7784 14.9747 36.7251C14.9823 36.6717 14.9785 36.6174 14.9636 36.5656C14.9487 36.5138 14.9229 36.4657 14.8881 36.4246Z" fill="white"/>
<path id="Vector_3" d="M23.5266 36.5933L23.7246 36.4393C24.0802 36.0512 24.4063 35.6369 24.6999 35.2C24.8099 34.914 24.5386 34.3053 24.4946 34.0487C24.4798 33.6427 24.5871 33.2417 24.8026 32.8973C24.8979 32.736 25.0519 32.5673 25.1546 32.3913C25.2573 32.2153 25.4479 32.0613 25.5506 31.9C25.7973 31.6073 26.0925 31.3592 26.4233 31.1667C26.7763 30.9717 27.1145 30.7511 27.4353 30.5067C27.6113 30.36 27.8753 30.3967 28.0659 30.2793C28.4432 29.9931 28.8348 29.7263 29.2393 29.48C29.7013 29.2673 30.2073 28.996 30.7059 28.7467C31.2046 28.4973 31.5786 28.2553 31.7179 28.204C32.1448 28.032 32.5448 27.7999 32.9059 27.5147C33.1553 27.346 33.4193 27.192 33.6833 27.0453L34.4606 26.5393C35.0037 26.2099 35.5123 25.8266 35.9786 25.3953C36.2488 25.1351 36.4943 24.8503 36.7119 24.5447C36.8293 24.3907 36.9466 24.2367 37.0493 24.0827C37.1519 23.9287 37.2326 23.738 37.3133 23.562C37.3939 23.386 37.5259 23.166 37.6873 22.8727L38.2153 21.846C38.5612 21.1087 38.8362 20.3401 39.0366 19.5507C39.1989 19.1375 39.2787 18.6965 39.2713 18.2527C39.3264 17.5685 39.3116 16.8805 39.2273 16.1993C39.1613 15.6053 38.6259 15.3633 38.2959 14.9233C37.6728 14.1761 36.9938 13.4774 36.2646 12.8333C36.0398 12.6619 35.8355 12.465 35.6559 12.2467C35.5989 12.1749 35.5475 12.0989 35.5019 12.0193C35.3259 11.6013 34.8419 11.4327 34.5559 11.11C33.8226 10.274 33.0159 9.88532 32.3559 8.96132C32.1653 8.68999 31.8939 8.33066 31.5639 8.37466C31.2339 8.41866 30.5519 9.10799 30.0973 9.71666C29.7453 10.1933 30.5226 10.648 30.7059 10.714C30.8893 10.78 31.4393 11.5793 31.9159 11.99C32.3926 12.4007 32.8986 13.1633 33.4266 13.6913C33.6759 13.9333 34.0059 14.0873 34.2699 14.3073L34.5339 14.6373C34.921 15.09 35.3618 15.4939 35.8466 15.84C36.2645 16.1391 36.6482 16.4834 36.9906 16.8667C36.9906 16.8227 36.9906 17.2553 36.9906 17.5193C36.9662 17.8206 36.9197 18.1196 36.8513 18.414C36.7253 19.0046 36.5359 19.5799 36.2866 20.13C36.0079 20.7607 35.6999 21.9047 35.4799 22.33C35.3051 22.6894 35.055 23.0071 34.7466 23.2613C34.4504 23.5264 34.1368 23.7714 33.8079 23.9947L32.8839 24.728C32.5948 25.0045 32.2778 25.2503 31.9379 25.4613L31.2046 25.9087C30.9553 26.0627 30.6766 26.1727 30.4199 26.3047C29.9579 26.5393 29.5179 26.796 28.9973 27.082L28.2053 27.544C27.6324 27.9153 27.026 28.232 26.3939 28.49C26.0744 28.5932 25.7744 28.7494 25.5066 28.952C25.2793 29.1133 25.0666 29.3187 24.7219 29.6047C24.2205 29.9636 23.7496 30.3635 23.3139 30.8C23.1013 31.0567 22.9033 31.306 22.7566 31.5333C22.6502 31.7226 22.5619 31.9215 22.4926 32.1273C22.2858 32.7021 22.172 33.3061 22.1553 33.9167C22.1693 34.5959 22.3642 35.2591 22.7199 35.838C22.9326 36.1387 23.2333 36.7693 23.5266 36.5933Z" fill="white"/>
</g>
</svg>
