<svg width="47" height="46" viewBox="0 0 47 46" fill="none" xmlns="http://www.w3.org/2000/svg">
<g id="adopt dont shop-camera 1">
<path id="Vector" d="M2.53942 16.5677C2.74502 16.5349 2.95238 16.5144 3.16042 16.5064C3.55198 16.483 3.94489 16.4985 4.33342 16.5524C4.68095 16.5914 5.03235 16.5784 5.37609 16.514C5.65975 16.4527 5.82075 16.3914 5.79009 16.123C5.80423 15.8897 5.8869 15.6656 6.02775 15.479C6.10638 15.3632 6.20201 15.2598 6.31142 15.1724C6.36509 15.134 6.37275 15.134 6.38042 15.134H6.46475H6.94775H7.95209C8.58075 15.134 9.11742 15.134 9.48542 15.134C9.85342 15.134 10.7658 15.088 11.7854 15.0804H16.9374L17.7041 11.4234L17.7884 10.948L17.8574 10.5877C17.8574 10.4727 17.8574 10.3884 17.8574 10.281C17.8574 10.1737 17.8574 10.1507 17.8574 10.074C17.8716 9.98892 17.9115 9.91021 17.9719 9.84852C18.0322 9.78682 18.11 9.74512 18.1948 9.72903H18.9614H20.1038C21.6371 9.77503 23.1704 9.8287 24.7038 9.72903C25.5624 9.6907 26.3291 9.93603 27.1494 9.93603H27.5251H28.0234C28.0975 9.90772 28.1794 9.90772 28.2534 9.93603C28.3525 9.97045 28.4365 10.0382 28.4911 10.1277C28.4943 10.1506 28.4943 10.1738 28.4911 10.1967V10.2964V10.5034L28.6368 11.155C28.8974 12.3204 29.1658 13.5777 29.4494 14.8657H33.3518L35.5444 14.812C36.8784 14.812 37.9288 14.766 38.3428 14.812C38.7568 14.858 39.1094 14.8504 39.4698 14.858H39.9298C39.9934 14.85 40.0578 14.85 40.1214 14.858C40.2555 14.8839 40.3828 14.9375 40.495 15.0154C40.6072 15.0933 40.7019 15.1938 40.7731 15.3104C40.8175 15.3899 40.851 15.475 40.8728 15.5634V15.6937C40.8683 15.7677 40.8683 15.842 40.8728 15.916V17.4494L40.7424 20.47C40.6428 22.494 40.5278 24.5334 40.4818 26.565C40.4076 28.9813 40.4639 31.3998 40.6504 33.81V34.2777C40.6504 34.4387 40.6504 35.3817 40.6504 35.5657C40.6659 35.7116 40.6365 35.8587 40.5661 35.9874C40.4743 36.1464 40.3349 36.2724 40.1674 36.3477C40.0772 36.3859 39.9814 36.4092 39.8838 36.4167H39.0788L31.4121 36.3324H31.3048C30.2928 36.156 19.3218 36.4244 18.0568 36.3324C16.7918 36.2404 10.6201 36.1254 7.84475 36.271H6.89409H6.47242H6.27309C6.16832 36.2546 6.07015 36.2095 5.98942 36.1407C5.92379 36.0931 5.87968 36.0214 5.86675 35.9414C5.87279 35.8597 5.87279 35.7777 5.86675 35.696C5.87109 35.663 5.87109 35.6294 5.86675 35.5964V35.4814V34.4234C5.81309 33.6567 5.72875 32.89 5.75175 32.1234C5.87442 28.2134 5.38375 25.2234 5.75175 21.39C5.85142 20.2477 5.95875 19.4427 5.52175 18.7374C5.08475 18.032 3.35209 17.9784 2.03342 18.4C1.05209 18.699 1.43542 21.0144 1.57342 21.6124C1.71142 22.2104 1.45842 25.6834 1.49675 27.7457C1.49675 29.0337 1.45842 30.3754 1.39709 31.717C1.39709 32.3917 1.34342 33.0664 1.31275 33.741C1.31275 34.0707 1.31275 35.1747 1.31275 35.5044C1.3069 36.0964 1.40285 36.6851 1.59642 37.2447C1.97419 38.2689 2.69835 39.1287 3.64342 39.675C4.0975 39.9367 4.58864 40.128 5.10009 40.2424C5.35355 40.2901 5.60952 40.3233 5.86675 40.342H6.50309L7.98275 40.4187C10.0664 40.5375 12.1551 40.5375 14.2388 40.4187C16.7994 40.273 19.0688 40.1734 21.6371 40.204C26.3214 40.2654 31.2971 40.434 36.0581 40.5874C36.7634 40.5874 37.5914 40.5874 38.4348 40.5874L39.7381 40.526H40.2364C40.4273 40.5072 40.6167 40.4765 40.8038 40.434C41.6578 40.2283 42.439 39.7921 43.0622 39.1729C43.6854 38.5537 44.1268 37.7754 44.3381 36.9227C44.4012 36.6403 44.4397 36.353 44.4531 36.064V35.6654V35.4277C44.4531 35.1364 44.4531 34.109 44.3994 33.8944C44.3112 30.8577 44.411 27.8184 44.6984 24.794C44.7751 23.2607 44.7751 21.7274 44.7444 20.194L44.6601 15.4407C44.5707 14.4849 44.2016 13.5766 43.5989 12.8293C42.9962 12.0821 42.1867 11.5291 41.2714 11.2394C40.8132 11.1039 40.3386 11.0316 39.8608 11.0247H37.4074H34.5018L33.0451 11.063C32.7078 11.063 32.8228 11.063 32.7538 11.063H32.6541H32.5544L32.4778 10.9097C32.4552 10.8684 32.4372 10.8246 32.4241 10.7794L32.2631 10.1737V10.0357C32.2631 10.0357 32.2631 10.0357 32.2631 9.98203V9.8517L32.2094 9.5297C32.059 8.74698 31.6918 8.02224 31.1497 7.43803C30.6075 6.85382 29.9121 6.43365 29.1428 6.22537C28.6746 6.10484 28.1924 6.0481 27.7091 6.0567H26.7968C26.2064 6.0567 25.6774 5.99537 25.2634 5.9417C22.4958 5.58137 21.5681 5.8727 18.7544 5.8727H18.3558C18.1118 5.87534 17.8684 5.89584 17.6274 5.93403C16.6756 6.08295 15.7981 6.53748 15.1273 7.22899C14.4565 7.9205 14.029 8.81146 13.9091 9.76737C13.9072 9.85551 13.8943 9.94308 13.8708 10.028L13.6944 10.7947L13.6408 10.9404C13.5874 10.932 13.5331 10.932 13.4798 10.9404C13.0121 10.9404 12.5828 10.9787 12.3221 11.017C10.7918 11.1358 9.25638 11.1742 7.72209 11.132H6.40342H6.08142C5.26551 11.1867 4.48637 11.492 3.85042 12.006C3.08458 12.6237 2.47301 13.4112 2.06409 14.306C1.55809 15.4407 1.79575 16.123 2.06409 16.3607C2.11838 16.4337 2.19081 16.4912 2.2742 16.5275C2.35758 16.5638 2.44902 16.5777 2.53942 16.5677Z" fill="white"/>
<path id="Vector_2" d="M17.7808 22.2333C17.7808 22.2333 16.9145 21.6353 16.3625 21.1523C15.8105 20.6693 15.0668 20.2323 14.9825 20.7C14.7939 21.1586 14.5656 21.5998 14.3001 22.0186C14.0135 22.4755 13.8085 22.9788 13.6945 23.506C13.6561 23.8126 13.4721 23.7666 13.4185 24.6023C13.3561 25.417 13.4471 26.2362 13.6868 27.0173C14.1238 28.2593 14.3538 29.6623 15.2661 30.6973C15.5191 30.981 15.5345 31.4026 15.7952 31.671C16.384 32.1653 17.021 32.5994 17.6965 32.9666C18.4041 33.4266 19.1805 33.7708 19.9965 33.9863C20.7632 34.1703 21.4225 34.224 21.6371 34.2776C22.2827 34.4041 22.9466 34.4041 23.5922 34.2776C24.4656 34.1773 25.3313 34.0185 26.1835 33.8023C27.0649 33.5624 27.8977 33.1706 28.6445 32.6446C29.5484 32.014 30.2469 31.1315 30.6532 30.107C31.0406 29.2971 31.3661 28.4591 31.6268 27.6C31.9187 26.5035 32.0224 25.3655 31.9335 24.2343C31.9335 24.2343 31.9335 24.2343 31.9335 24.1806C31.892 23.202 31.6299 22.2454 31.1668 21.3823C30.7025 20.4995 30.1337 19.6758 29.4725 18.929C29.0573 18.3863 28.5638 17.9083 28.0082 17.5106C27.3182 17.0056 26.5373 16.6385 25.7081 16.4296C25.0335 16.2916 24.4048 15.9543 23.7225 15.8546C23.1309 15.8366 22.5387 15.8648 21.9515 15.939C21.1518 15.9718 20.3681 16.1729 19.6515 16.5293C18.9538 16.8436 18.3098 17.204 17.4895 17.5413C17.0141 17.7406 16.3855 18.1316 16.4621 18.6683C16.5388 19.205 17.7118 20.3166 18.6855 21.16C19.4521 21.7886 19.7205 21.0603 19.7972 20.8533C19.8738 20.6463 20.7478 20.424 21.2385 20.2706C23.0171 19.619 26.2678 20.6846 27.2721 22.3253C27.8749 23.3999 28.0449 24.664 27.7475 25.8596C27.6784 26.2626 27.6374 26.6699 27.6248 27.0786C27.6032 27.4466 27.5441 27.8113 27.4485 28.1673C27.2763 28.5346 27.0235 28.8585 26.709 29.1146C26.3944 29.3708 26.0261 29.5528 25.6315 29.647C24.9552 30.0058 24.2401 30.2862 23.5001 30.4826C22.9539 30.5531 22.3999 30.5349 21.8595 30.429C20.8858 30.2526 18.6165 29.8386 18.4325 28.5583C18.3481 27.945 17.8881 27.5616 17.6658 27.025C17.2211 25.829 17.2365 24.058 18.2715 23.1916C18.6395 22.8466 17.7808 22.2333 17.7808 22.2333Z" fill="white"/>
<path id="Vector_3" d="M34.6244 17.8634C34.6244 18.1624 34.6244 18.4537 34.6244 18.7527C34.6934 19.8874 35.7361 18.9061 36.4721 19.0671C37.0323 19.1567 37.6017 19.1747 38.1664 19.1207C38.4271 18.9904 38.4271 18.9904 38.4424 18.3004C38.501 17.7688 38.462 17.231 38.3274 16.7134C37.7936 16.6866 37.2589 16.6866 36.7251 16.7134C36.2031 16.5727 35.6581 16.5388 35.1228 16.6137C34.7241 16.6137 34.7701 16.5754 34.6474 16.9357C34.6014 17.2428 34.5936 17.5544 34.6244 17.8634Z" fill="white"/>
<path id="Vector_4" d="M20.073 12.4966C20.0461 12.7925 20.0461 13.0901 20.073 13.386C20.188 14.5206 21.9513 13.5393 23.201 13.7003C24.1566 13.7902 25.1176 13.8081 26.076 13.754C26.5283 13.6236 26.5283 13.6236 26.559 12.9336C26.5896 12.2436 26.559 11.454 26.3673 11.3466C26.1756 11.2393 23.9063 11.4003 23.6456 11.3466C22.7456 11.2057 21.8319 11.1723 20.924 11.247C20.2416 11.2853 20.3183 11.2086 20.1113 11.569C19.9043 11.9293 20.0883 12.2206 20.073 12.4966Z" fill="white"/>
</g>
</svg>
