<svg width="47" height="46" viewBox="0 0 47 46" fill="none" xmlns="http://www.w3.org/2000/svg">
<g id="adopt dont shop-speech 1">
<path id="Vector" d="M36.0121 7.26031C36.0121 7.26031 36.0121 7.52097 36.0657 7.88131C36.1038 8.26882 36.1038 8.65913 36.0657 9.04664C36.0191 9.39576 36.0452 9.75076 36.1424 10.0893C36.2344 10.3653 36.3647 10.534 36.6331 10.4726C36.9278 10.4873 37.2163 10.563 37.4802 10.695C37.7441 10.827 37.9778 11.0123 38.1664 11.2393C38.556 11.7304 38.8193 12.3095 38.9331 12.926C38.9671 13.0381 38.9877 13.154 38.9944 13.271C38.9944 13.3246 38.9944 13.4856 38.9944 13.6313V14.1066V16.4066C38.9944 18.1086 38.9944 20.01 39.1247 21.4053C39.2014 22.7919 39.2014 24.1817 39.1247 25.5683L39.0634 27.623C39.0443 28.0427 38.9589 28.4567 38.8104 28.8496C38.6417 29.3173 38.1817 29.5166 37.8674 29.785C37.5603 30.1049 37.1963 30.3649 36.7941 30.5516C36.5235 30.6598 36.24 30.732 35.9507 30.7663C35.4984 30.7663 35.1151 30.7663 34.8467 30.7663C31.5117 30.7663 26.996 30.958 26.0607 30.8966C24.6961 30.8046 23.2931 30.8966 21.9207 30.8966H20.6327H18.5474H18.3787C18.187 31.2876 18.003 31.7093 17.819 32.131L17.3667 33.4036C17.3212 33.5359 17.2648 33.6641 17.1981 33.787C17.1811 33.8164 17.1564 33.8405 17.1267 33.8567C17.0969 33.873 17.0632 33.8807 17.0294 33.879C16.9517 33.8681 16.8777 33.8388 16.8137 33.7934C16.7496 33.7481 16.6974 33.688 16.6614 33.6183C16.6568 33.5647 16.6568 33.5109 16.6614 33.4573C16.6614 33.4113 16.6614 33.3883 16.6614 33.3806L15.2277 30.544L12.9277 30.6053H12.391L12 30.6666L11.4174 30.7126C11.1644 30.7126 10.8424 30.7586 10.459 30.774H10.0067C9.87638 30.774 9.73838 30.774 9.58505 30.7356C8.89999 30.6029 8.28068 30.2405 7.82938 29.7083C7.32622 29.125 7.05357 28.3779 7.06272 27.6076L7.11638 24.2803C7.11638 24.242 7.11638 24.219 7.11638 24.1806C7.20838 23.7206 7.18538 20.9836 7.15472 18.2236L7.10872 14.3366V13.0946C7.12308 12.9321 7.15918 12.7722 7.21605 12.6193C7.49131 11.8505 8.03612 11.2076 8.74938 10.81C8.99185 10.6832 9.24948 10.5879 9.51605 10.5263C9.63872 10.488 9.77672 10.488 9.90705 10.4573C10.0374 10.4266 10.114 10.4573 10.39 10.4573C11.287 10.4573 12.115 10.4573 12.7514 10.3883C13.6503 10.3396 14.5512 10.3396 15.45 10.3883C15.7409 10.3998 16.0305 10.4332 16.3164 10.488C17.6657 10.764 19.1454 10.3806 20.5177 10.4343C24.0904 10.557 26.7814 10.0663 30.3234 10.396C31.3661 10.4956 32.7921 10.603 33.4437 10.1583C34.0954 9.71364 34.1107 8.10364 33.7581 6.82331C33.4821 5.84197 30.6914 6.22531 30.1241 6.36331C29.5567 6.50131 26.4057 6.24831 24.4967 6.28664C23.5537 6.28664 22.6184 6.20231 21.6754 6.20997C21.0237 6.20997 20.3797 6.37864 19.7204 6.36331C18.8771 6.36331 18.072 6.05664 17.2134 6.05664C16.1094 6.05664 15.013 6.26364 13.9167 6.32497L12.6134 6.20997C11.9546 6.17165 11.2942 6.17165 10.6354 6.20997H10.0987C9.86872 6.20997 9.63872 6.20997 9.41638 6.27897C8.96249 6.34942 8.51414 6.4519 8.07472 6.58564C7.28731 6.7934 6.54076 7.13298 5.86672 7.58997C5.30662 8.07078 4.88125 8.68903 4.63238 9.38397C4.07655 10.3864 3.68322 11.4707 3.46705 12.5963C3.42105 12.88 3.39805 13.2173 3.37505 13.4626L3.32138 14.1373C3.32138 14.582 3.26005 15.0113 3.25238 15.41C3.25238 16.5983 3.42872 17.7866 3.39805 18.9826C3.36738 20.1786 2.80005 21.1063 2.80005 22.1796C2.80005 22.9463 2.93038 23.713 2.93805 24.4336V26.5036V27.531C2.93351 28.011 2.96941 28.4906 3.04538 28.9646C3.21583 29.9876 3.62854 30.955 4.24905 31.786C4.92368 32.6835 5.80115 33.4086 6.80972 33.902C7.72255 34.3381 8.71915 34.5709 9.73072 34.5843C9.93772 34.5843 10.1984 34.5843 10.3364 34.5843H10.758L11.4557 34.523L12.0384 34.4846H12.3297H12.4447H12.7974C12.8587 34.5843 12.9124 34.6993 12.9737 34.8066L13.6407 36.1866L15.4654 39.8666C15.6334 40.2012 15.7844 40.5441 15.9177 40.894C16.0787 41.3463 16.2244 41.883 16.3854 42.4273L16.6154 43.1173C17.3292 42.1045 17.9259 41.0139 18.394 39.8666C18.9844 38.571 19.5057 37.2906 20.0654 36.1636L20.6864 34.891L20.7477 34.753H20.9471L26.9654 34.7913C28.7364 34.7913 30.4997 34.7453 32.2707 34.6763L35.0997 34.5613C35.5137 34.5613 35.9124 34.5613 36.7174 34.4693C37.4862 34.3682 38.2341 34.1457 38.9331 33.81C40.1864 33.1879 41.2604 32.2564 42.0534 31.1036C42.5 30.4912 42.8253 29.799 43.0117 29.0643C43.0847 28.7542 43.1334 28.4389 43.1574 28.1213V27.669V27.3393C43.1574 26.4883 43.0577 25.6373 43.0577 24.3493C43.0577 21.3363 43.2647 16.537 43.0577 15.203C42.9926 14.6457 42.9594 14.0851 42.9581 13.524V13.1943V12.7956C42.9581 12.5273 42.8814 12.2513 42.8354 11.9676C42.7068 11.3947 42.5112 10.8389 42.2527 10.3116C41.7475 9.26273 40.9918 8.35433 40.0524 7.66664C39.3928 7.17688 38.6572 6.79874 37.875 6.54731C36.8247 6.21764 36.3417 6.49364 36.1347 6.72364C36.0754 6.7982 36.0336 6.88514 36.0123 6.97802C35.9911 7.07091 35.991 7.16738 36.0121 7.26031Z" fill="white"/>
<path id="Vector_2" d="M16.6 18.8983C16.2986 18.884 15.9997 18.9589 15.7407 19.1137C15.4817 19.2684 15.2741 19.4962 15.144 19.7684C15.0138 20.0406 14.9668 20.3451 15.0089 20.6439C15.051 20.9426 15.1803 21.2223 15.3806 21.448C15.5809 21.6736 15.8434 21.8351 16.135 21.9123C16.4267 21.9894 16.7347 21.9788 17.0204 21.8818C17.3061 21.7848 17.5568 21.6056 17.7411 21.3667C17.9254 21.1279 18.0352 20.84 18.0567 20.539C18.0712 20.3351 18.0448 20.1304 17.9791 19.9368C17.9134 19.7432 17.8096 19.5648 17.6738 19.4119C17.5381 19.2591 17.3732 19.1349 17.1888 19.0467C17.0044 18.9585 16.8042 18.908 16.6 18.8983Z" fill="white"/>
<path id="Vector_3" d="M23.4999 18.8983C23.1985 18.884 22.8996 18.9589 22.6406 19.1137C22.3816 19.2684 22.174 19.4962 22.0439 19.7684C21.9137 20.0406 21.8667 20.3451 21.9088 20.6439C21.9509 20.9426 22.0802 21.2223 22.2805 21.448C22.4808 21.6736 22.7433 21.8351 23.0349 21.9123C23.3266 21.9894 23.6346 21.9788 23.9203 21.8818C24.206 21.7848 24.4567 21.6056 24.641 21.3667C24.8254 21.1279 24.9351 20.84 24.9566 20.539C24.9711 20.3351 24.9447 20.1304 24.879 19.9368C24.8133 19.7432 24.7095 19.5648 24.5738 19.4119C24.438 19.2591 24.2731 19.1349 24.0887 19.0467C23.9043 18.9585 23.7041 18.908 23.4999 18.8983Z" fill="white"/>
<path id="Vector_4" d="M30.4001 18.8983C30.0987 18.884 29.7998 18.9589 29.5408 19.1137C29.2818 19.2684 29.0742 19.4962 28.944 19.7684C28.8138 20.0406 28.7668 20.3451 28.8089 20.6439C28.851 20.9426 28.9803 21.2223 29.1807 21.448C29.381 21.6736 29.6434 21.8351 29.9351 21.9123C30.2268 21.9894 30.5347 21.9788 30.8204 21.8818C31.1061 21.7848 31.3568 21.6056 31.5412 21.3667C31.7255 21.1279 31.8353 20.84 31.8567 20.539C31.8713 20.3351 31.8449 20.1304 31.7791 19.9368C31.7134 19.7432 31.6096 19.5648 31.4739 19.4119C31.3382 19.2591 31.1733 19.1349 30.9889 19.0467C30.8044 18.9585 30.6043 18.908 30.4001 18.8983Z" fill="white"/>
</g>
</svg>
