<svg width="43" height="42" viewBox="0 0 43 42" fill="none" xmlns="http://www.w3.org/2000/svg">
<g id="adopt dont shop-paper-white 1">
<path id="Vector" d="M10.1881 15.82C9.6462 15.8828 9.09891 15.8828 8.55705 15.82C7.85705 15.722 7.11505 15.925 7.30405 16.751C7.49305 17.577 7.20605 17.899 7.30405 19.033C7.40205 20.167 7.30405 24.591 7.47905 27.174C7.54911 28.4541 7.54911 29.737 7.47905 31.017L7.42305 32.942V33.908V35.343C7.42305 36.316 7.33205 37.282 7.27605 38.311C7.59805 38.339 7.94105 38.353 8.30505 38.353H9.87305L11.0211 38.311H11.3081H11.4691H11.8051C12.7081 38.255 13.6671 38.199 14.1501 38.199C17.2301 38.199 21.3951 38.024 22.2561 38.08C23.5231 38.164 24.8111 38.08 26.0781 38.08C27.3451 38.08 28.6051 38.08 29.8721 38.157L31.9161 38.262L35.5981 38.36L35.7031 33.894C35.7709 31.8581 35.7194 29.8199 35.5491 27.79C35.4161 25.9 35.5001 19.663 35.5701 16.1C35.5701 16.1 35.5701 16.044 35.5701 16.009C35.6471 15.582 35.6261 13.062 35.5701 10.514C35.5701 9.24002 35.5701 7.95902 35.5281 6.93002C35.5281 6.05502 35.5281 5.28502 35.5281 4.68302C35.5281 4.08102 35.5281 3.51402 35.5281 3.28302V2.68802L32.7281 2.63202L29.9281 2.58302C28.2691 2.58302 26.4841 2.58302 25.3571 2.63902C24.5272 2.6907 23.6949 2.6907 22.8651 2.63902C22.595 2.63164 22.3258 2.60356 22.0601 2.55502C20.8141 2.30302 19.4561 2.64602 18.1821 2.60402H17.3001H15.5151L14.3251 3.91302C14.1361 4.14402 13.9471 4.36802 13.7511 4.61302C13.3801 5.06102 13.0161 5.49502 12.6381 5.93602C11.8586 6.86273 11.0216 7.73946 10.1321 8.56102C9.43205 9.20502 7.75205 10.815 7.64705 11.529C7.50005 14.7 8.79505 14.224 10.3001 14C11.5951 13.524 11.0001 12.6 12.9741 10.885C13.2191 10.423 15.3611 8.42102 16.5301 7.09802L17.0901 6.47502L17.1601 6.43302H17.2231H17.2581H17.5661L18.8191 6.49602C19.6521 6.53802 20.4921 6.56602 21.3041 6.56602C22.3261 6.56602 23.3341 6.37702 24.3491 6.32802L25.5881 6.39802C27.3434 6.50657 29.1037 6.50657 30.8591 6.39802L31.6011 6.35602H31.7201H31.7691C31.8439 6.32932 31.9213 6.31055 32.0001 6.30002C32.0231 6.38259 32.0395 6.46685 32.0491 6.55202V7.91002C31.9931 11.851 31.8391 16.044 31.6991 20.055C31.6221 22.421 32.0281 26.313 32.1331 27.755C32.2206 29.0322 32.2206 30.3139 32.1331 31.591L32.0001 33.467V33.943V34.188C32.0001 34.265 32.0001 34.363 32.0001 34.342C31.9842 34.3756 31.9629 34.4064 31.9371 34.433L31.8951 34.482C31.8536 34.4727 31.8105 34.4727 31.7691 34.482H31.3071H30.4671C29.3541 34.482 28.2411 34.538 27.1281 34.538L21.5001 34.503C19.8691 34.503 18.2381 34.545 16.6001 34.608L13.9891 34.713C13.4081 34.713 12.5891 34.769 11.7351 34.783H11.1121C11.0339 34.781 10.9563 34.7692 10.8811 34.748C10.8963 34.6571 10.9271 34.5695 10.9721 34.489L11.0701 34.349C11.0752 34.3002 11.0752 34.2509 11.0701 34.202V33.859C11.0701 33.418 11.0701 33.033 11.0701 32.641C11.0701 31.857 10.9791 31.066 10.9791 29.883C10.9791 27.083 11.1681 22.673 10.9791 21.441C10.832 19.9958 10.832 18.5393 10.9791 17.094C11.1471 15.638 10.1881 15.82 10.1881 15.82Z" fill="white"/>
<path id="Vector_2" d="M28.822 17.934C28.822 17.934 29.046 17.038 28.213 17.094C27.38 17.15 22.977 17.304 22.081 17.276C21.185 17.248 16.6 17.199 15.9 17.241C14.927 17.318 14.927 17.318 14.871 17.696C14.815 18.074 14.871 18.501 15.284 18.564C15.697 18.627 20.576 18.564 21.136 18.564C21.696 18.564 24.419 18.634 25.651 18.564C26.2241 18.5194 26.7999 18.5194 27.373 18.564H28.598C28.801 18.494 28.822 18.088 28.822 17.934Z" fill="white"/>
<path id="Vector_3" d="M14.878 21.966C14.878 21.966 14.654 22.862 15.487 22.806C16.32 22.75 20.723 22.596 21.619 22.624C22.515 22.652 27.135 22.701 27.8 22.624C28.773 22.547 28.773 22.547 28.829 22.169C28.885 21.791 28.829 21.364 28.416 21.301C28.003 21.238 23.124 21.301 22.564 21.301C22.004 21.301 19.281 21.231 18.049 21.301C17.4759 21.3456 16.9001 21.3456 16.327 21.301H15.102C14.899 21.406 14.878 21.812 14.878 21.966Z" fill="white"/>
<path id="Vector_4" d="M14.878 26.166C14.878 26.166 14.654 27.062 15.487 27.006C16.32 26.95 20.723 26.796 21.619 26.824C22.515 26.852 27.135 26.901 27.8 26.824C28.773 26.747 28.773 26.747 28.829 26.369C28.885 25.991 28.829 25.564 28.416 25.501C28.003 25.438 23.124 25.501 22.564 25.501C22.004 25.501 19.281 25.431 18.049 25.501C17.4759 25.5457 16.9001 25.5457 16.327 25.501H15.102C14.899 25.606 14.878 26.012 14.878 26.166Z" fill="white"/>
<path id="Vector_5" d="M9.59991 13.216C9.59991 13.216 9.37591 14.112 10.2089 14.056C10.6289 14.056 13.3379 13.972 14.6539 13.93L16.5229 13.881H18.5529C18.5529 13.237 18.5529 11.662 18.5949 10.157C18.5949 8.88297 18.5949 7.66497 18.5949 7.35697C18.5179 6.38397 18.5179 6.38397 18.1399 6.32797C17.7619 6.27197 17.3489 6.29997 17.2999 6.73397C17.2509 7.16797 17.2999 12.068 17.2999 12.544C17.2999 12.544 17.2999 12.544 17.2509 12.544H16.1939C15.4939 12.544 14.7029 12.544 14.1989 12.544C13.6258 12.5886 13.05 12.5886 12.4769 12.544H11.2519C11.0489 12.656 9.59991 13.062 9.59991 13.216Z" fill="white"/>
</g>
</svg>
