<svg width="39" height="40" viewBox="0 0 39 40" fill="none" xmlns="http://www.w3.org/2000/svg">
<g id="adopt dont shop-home-white 1">
<path id="Vector" d="M4.18603 16.8735C4.18603 16.8735 4.73203 17.5235 5.06353 18.05C5.39503 18.5765 5.85003 19.0705 5.98003 18.765C6.11003 18.4595 7.31253 17.9005 7.57253 17.608C7.83253 17.3155 9.10003 16.503 9.75003 15.84C10.4 15.177 11.2255 14.8975 11.8625 14.293C12.0445 14.124 12.337 14.15 12.5125 14.0135C12.688 13.877 13.3315 13.149 13.598 12.9605C14.4495 12.3495 15.496 11.3745 15.7625 11.238C16.1371 11.0174 16.4859 10.7558 16.8025 10.458C17.2659 10.1069 17.7597 9.79804 18.278 9.53498L19.6495 8.78748C19.6495 8.78748 19.6495 8.78748 19.682 8.78748C19.7028 8.74555 19.7315 8.70804 19.7665 8.67698C19.7837 8.67348 19.8014 8.67348 19.8185 8.67698H19.864L20.046 8.80048C20.2995 8.96948 20.5855 9.18398 20.891 9.41798C21.489 9.88598 22.139 10.4125 22.607 10.8025C22.6101 10.8153 22.6101 10.8287 22.607 10.8415C22.7565 11.134 25.402 12.8565 25.649 13.1295C26.3511 13.8007 27.1224 14.3955 27.95 14.904C28.2046 15.0335 28.4372 15.2024 28.639 15.4045C28.7072 15.4699 28.7662 15.5443 28.8145 15.6255C29.016 16.0675 29.575 16.1 29.8935 16.386C30.732 17.1465 31.6485 17.335 32.3765 18.219C32.591 18.479 32.8965 18.8235 33.2735 18.6545C33.9826 18.0669 34.5681 17.3444 34.996 16.529C35.412 15.8335 34.5215 15.554 34.346 15.541C34.1705 15.528 33.4295 14.8 32.929 14.4295C32.318 14.0135 31.811 13.357 31.213 12.902C30.9013 12.7321 30.5801 12.5802 30.251 12.447L29.952 12.148C29.5324 11.7146 29.045 11.3524 28.509 11.0755C27.8742 10.7543 27.2713 10.3734 26.7085 9.93798C25.662 9.09298 24.609 8.12448 23.5885 7.20148C23.2162 6.89738 22.8053 6.64385 22.3665 6.44748L21.7165 6.14848L20.9755 5.69998C20.5173 5.42904 20.0824 5.1203 19.6755 4.77698C19.2725 5.04348 18.863 5.28398 18.421 5.53748L17.771 5.92748L17.602 6.02498L17.5045 6.07698L17.316 6.17448C16.5762 6.64376 15.8723 7.16737 15.21 7.74098L13.65 8.85248C13.2015 9.18398 12.779 9.54148 12.35 9.91198L11.7 10.5165C11.2339 10.9906 10.6855 11.376 10.0815 11.654C9.26903 11.888 9.19103 12.239 8.54103 12.7135C7.78053 13.279 6.46103 14.0135 6.22703 14.4165C5.58684 15.0433 4.86012 15.5753 4.06903 15.996C3.62703 16.217 4.18603 16.8735 4.18603 16.8735Z" fill="white"/>
<path id="Vector_2" d="M30.8099 18.908C30.3773 18.9454 29.9424 18.9454 29.5099 18.908C28.9639 18.8495 28.3399 18.973 28.4959 19.48C28.6519 19.987 28.4114 22.34 28.4959 23.0355C28.5804 23.731 28.4959 27.098 28.6324 28.684C28.6771 29.4725 28.6663 30.2631 28.5999 31.05V31.648V31.921V31.96C28.5855 32.0132 28.5855 32.0693 28.5999 32.1225C28.5231 32.0843 28.4546 32.0313 28.3984 31.9665C28.3106 31.9849 28.2215 31.9958 28.1319 31.999H27.7224C27.1699 32.0445 25.9349 32.09 25.6359 32.09H25.2589H25.0769V31.9275V31.843C25.0724 31.8238 25.0724 31.8038 25.0769 31.7845V31.7C25.0573 31.3233 25.0573 30.9458 25.0769 30.569C25.1419 29.789 25.0769 28.996 25.0769 28.2225C25.0769 27.7025 25.0769 27.189 25.0769 26.6625C25.0738 25.963 24.9461 25.2697 24.6999 24.615C24.2504 23.2346 23.2739 22.0875 21.9829 21.4235C21.2093 21.019 20.345 20.8191 19.4724 20.843C18.5997 20.8669 17.7477 21.1138 16.9974 21.56C16.4898 21.8467 16.0202 22.1961 15.5999 22.6C14.9979 23.195 14.5322 23.9135 14.2349 24.706C14.0703 25.1458 13.9611 25.6043 13.9099 26.071C13.9099 26.2855 13.8709 26.578 13.8709 26.721V27.241L13.8319 29.126C13.833 29.1455 13.833 29.165 13.8319 29.1845C13.7813 29.7268 13.7661 30.2718 13.7864 30.816V31.9275V32.0705H13.6304H13.1689H12.8439C12.6294 32.0705 11.4854 32.025 10.8939 32.0055C10.4519 32.0055 10.6209 32.0055 10.5624 32.0055H10.5234C10.5268 31.9984 10.5286 31.9906 10.5286 31.9828C10.5286 31.9749 10.5268 31.9671 10.5234 31.96C10.5234 31.96 10.5234 31.8885 10.5234 31.8235V31.6285C10.4889 31.1199 10.4889 30.6096 10.5234 30.101C10.5345 29.9348 10.5584 29.7696 10.5949 29.607C10.8029 28.84 10.5234 28.0015 10.5559 27.2215C10.6469 25.2 10.2829 23.0225 10.5559 21.014C10.6274 20.4225 10.7119 19.61 10.3804 19.246C10.0489 18.882 8.85938 18.8625 7.90388 19.0705C7.17588 19.22 7.46188 20.8125 7.56588 21.1245C7.66988 21.4365 7.48138 23.8805 7.50738 24.966C7.50738 26.266 7.33838 27.7415 7.33838 29.1C7.33838 29.75 7.49438 30.348 7.53338 30.9655L7.40338 31.7V31.934V32.389V33.3185C7.40338 33.9685 7.40338 34.5795 7.40338 35.2035C8.30688 35.2035 9.19738 35.2035 10.0034 35.132H10.4779H10.6859H10.8094H11.2904C11.6089 35.132 12.5904 35.093 12.8829 35.08H13.3509H13.9359H15.6649H16.7114C16.7114 34.0595 16.7439 33.0325 16.7634 31.9925L16.8284 30.2635C16.8804 29.1065 16.9324 27.943 16.9844 26.8055C16.9929 26.2676 17.1101 25.737 17.3289 25.2455C17.5396 24.8115 17.8545 24.4364 18.2454 24.1535C18.474 24.0035 18.7312 23.9023 19.0008 23.8565C19.2703 23.8106 19.5465 23.821 19.8119 23.887C20.3074 23.9847 20.7676 24.2137 21.1444 24.55C21.4979 24.8997 21.7765 25.3177 21.9634 25.7785C22.0421 26.0115 22.0881 26.2543 22.0999 26.5C22.1116 26.6753 22.1116 26.8512 22.0999 27.0265V27.618V31.05V32.688L22.1454 35.0735H23.0229L24.5309 35.0345H25.2719H25.6879C26.1364 35.0345 27.4624 34.976 28.1319 34.9695H28.8664H29.7179C30.2704 34.9695 30.7839 35.015 31.2129 35.054H31.4404C31.5403 34.065 31.5729 33.0704 31.5379 32.077V31.8365V31.661V31.2775C31.5379 31.011 31.5054 30.7185 31.5054 30.361C31.5054 28.6515 31.6614 25.2845 31.5054 24.511C31.3884 22.9055 31.3884 21.2936 31.5054 19.688C31.5899 18.7975 30.8099 18.908 30.8099 18.908Z" fill="white"/>
</g>
</svg>
