<svg width="43" height="44" viewBox="0 0 43 44" fill="none" xmlns="http://www.w3.org/2000/svg">
<g id="adopt dont shop-heart-white 1">
<path id="Vector" d="M39.5816 17.5997C39.5242 17.1052 39.5027 16.0301 39.2877 14.8333C39.076 13.6515 38.6691 12.5132 38.0837 11.465V11.4005C37.5977 10.4842 36.9265 9.67883 36.1129 9.03548C35.3052 8.37494 34.4224 7.81204 33.4827 7.35848C32.8734 7.00345 32.2172 6.73567 31.5334 6.56298C30.6543 6.32211 29.7382 6.24677 28.8316 6.34082L27.4484 6.50565C27.2957 6.51663 27.1424 6.51663 26.9897 6.50565C26.2731 6.44115 25.5564 6.97865 24.9257 7.22232C24.1277 7.54578 23.3981 8.01754 22.7757 8.61265C22.3529 8.99965 21.9587 9.40815 21.5216 9.83815C21.0468 9.30441 20.4963 8.84322 19.8876 8.46932C18.5331 7.66665 17.1499 6.76365 15.5231 6.59882C15.0787 6.54148 14.6989 6.31215 14.2617 6.29065C13.8268 6.29069 13.3928 6.32907 12.9646 6.40532C12.3912 6.51282 11.8179 6.66332 11.5312 6.73498C10.5567 6.96897 9.62541 7.356 8.77207 7.88165C8.21582 8.23337 7.67986 8.6162 7.16674 9.02832C6.53834 9.49558 5.99527 10.0677 5.56141 10.7196C4.26654 12.3788 3.45329 14.3624 3.21074 16.453C3.08782 17.6624 3.22465 18.8841 3.61207 20.0363C3.79124 20.5595 4.07791 21.6847 4.54374 22.903C4.98365 24.0828 5.5306 25.2199 6.17774 26.3C6.17407 26.3189 6.17407 26.3384 6.17774 26.3573C6.68206 27.269 7.2984 28.1141 8.01241 28.8728C8.96557 29.9478 10.0262 30.9082 10.2197 31.1303C10.6917 31.6567 11.1994 32.15 11.7391 32.6067C12.3965 33.1928 13.1039 33.7204 13.8532 34.1833C14.2423 34.3918 14.6138 34.6315 14.9641 34.9C15.0775 34.9913 15.183 35.092 15.2794 35.201C15.7094 35.7671 16.4906 35.9177 17.0424 36.3118C18.4757 37.351 19.8159 37.695 21.2277 38.7915C21.6434 39.114 22.2526 39.5082 22.7184 39.3577C23.1251 39.0617 23.4324 38.6494 23.5999 38.1751C24.1486 37.914 24.6717 37.6021 25.1622 37.2435C26.2319 36.4749 27.2538 35.642 28.2224 34.7495C28.6513 34.3222 29.1192 33.9359 29.6199 33.5956C30.1281 33.2611 30.6076 32.8847 31.0532 32.4705C31.3041 32.2197 31.6767 32.1623 31.9347 31.9402C32.1927 31.718 33.0527 30.643 33.3681 30.299C34.2964 29.3159 35.1493 28.2642 35.9194 27.1528C36.3273 26.655 36.676 26.1114 36.9586 25.5331C37.9111 24.0512 38.6834 22.4609 39.2591 20.796C39.5848 19.764 39.6946 18.6759 39.5816 17.5997ZM35.7474 20.624C35.386 21.6419 34.9697 22.6396 34.5004 23.6125C34.1041 24.299 33.6611 24.9575 33.1746 25.5833C32.7589 26.1567 32.3217 26.7228 31.8846 27.289C31.6409 27.59 31.4116 27.8981 31.1679 28.192C30.6237 28.8697 29.9607 29.4429 29.2114 29.8833C28.2367 30.3133 28.0576 30.7433 27.1976 31.4385C26.1799 32.277 24.4814 33.3807 24.1302 33.8393C23.7276 34.2542 23.2693 34.6111 22.7686 34.9C22.4942 35.0771 22.2094 35.2374 21.9157 35.3801C21.4571 35.0791 20.9052 34.6635 20.4824 34.4413C19.5149 33.8967 18.6119 33.0582 17.6659 32.4275C17.2359 32.1408 16.7127 31.9903 16.2326 31.7108L15.7667 31.3166C15.1105 30.7306 14.4136 30.1917 13.6812 29.7041C12.8124 29.1474 12.0157 28.4854 11.3091 27.7333C9.98197 26.2849 8.91733 24.6164 8.16291 22.8027C7.96941 22.2867 7.59674 21.6488 7.31724 21.0325C7.06281 20.5384 6.84019 20.0285 6.65074 19.506C6.33397 18.3524 6.36388 17.131 6.73674 15.9943C6.91981 14.9186 7.28325 13.8816 7.81174 12.927C8.26846 12.2862 8.82215 11.7204 9.45291 11.25C10.0164 10.8263 10.6187 10.4568 11.2517 10.1463C11.5923 9.98024 11.9444 9.83893 12.3052 9.72348C12.7063 9.59267 13.1235 9.51791 13.5451 9.50132C13.9639 9.4761 14.3834 9.53708 14.7777 9.68048C15.7022 10.1535 16.0606 10.0173 16.9922 10.4616C17.603 10.7801 18.1574 11.1965 18.6334 11.6943C19.1064 12.1816 19.4576 12.669 19.6726 12.8481C19.8351 13.0077 19.9685 13.1945 20.0667 13.4C20.0891 13.4277 20.1061 13.4592 20.1169 13.4931L20.2316 13.7655L20.4609 14.3531C20.7619 15.1558 21.0342 15.98 21.1346 16.3455C21.3352 17.0622 22.1021 16.6823 22.1021 16.6823C22.5406 16.468 22.9931 16.2837 23.4566 16.1305C24.0371 15.9585 24.6391 15.6073 24.3166 15.2705C23.9439 14.5164 23.6416 13.7295 23.4136 12.9198C23.5074 12.7519 23.5751 12.5706 23.6142 12.3823C23.6142 12.1458 24.5531 11.4435 25.0906 11.0565C25.7995 10.5991 26.5946 10.2918 27.4269 10.1535C27.7852 10.0531 28.1436 9.81665 28.5162 9.73782C28.6745 9.73906 28.8326 9.75104 28.9892 9.77365L30.9386 10.003C31.7491 10.0952 32.5244 10.3856 33.1961 10.8486C33.8343 11.3053 34.3874 11.8705 34.8301 12.5185C35.249 13.1504 35.5523 13.8516 35.7259 14.5897C35.8262 15.0196 36.0341 15.5786 36.1917 16.1376C36.326 16.596 36.4289 17.0629 36.4999 17.5352C36.5272 18.6133 36.2675 19.6793 35.7474 20.624Z" fill="white"/>
<path id="Vector_2" d="M11.8393 15.6217C11.1226 15.077 10.2769 14.4822 10.0333 14.5825C9.71391 14.9383 9.4701 15.3552 9.31659 15.808C9.05859 16.4172 8.90809 17.0693 8.84359 17.1912C8.69828 17.4935 8.59461 17.8142 8.53542 18.1443C8.44768 18.5516 8.4283 18.9706 8.47809 19.3842C8.50698 19.5184 8.5214 19.6554 8.52109 19.7927C8.77526 19.8753 9.03689 19.9329 9.30226 19.9647C9.76486 20.0041 10.23 20.0041 10.6926 19.9647H10.8789C11.0438 19.9217 11.2086 19.8787 11.3806 19.85H11.5383C11.6529 19.8142 11.7533 19.7712 11.8751 19.7425C11.8218 19.5903 11.7787 19.4346 11.7461 19.2767C11.6685 18.954 11.6685 18.6175 11.7461 18.2948C11.8106 18.1658 11.9611 17.7502 12.1474 17.3703C12.3016 17.0961 12.4358 16.8111 12.5488 16.5175C12.5631 16.1592 12.5703 16.1592 11.8393 15.6217Z" fill="white"/>
<path id="Vector_3" d="M13.3728 11.7302C13.0611 11.7232 12.7543 11.8088 12.4912 11.9761C12.2281 12.1435 12.0206 12.385 11.8948 12.6703C11.769 12.9556 11.7306 13.2718 11.7845 13.5789C11.8384 13.886 11.9821 14.1703 12.1975 14.3957C12.4129 14.6211 12.6903 14.7776 12.9947 14.8454C13.299 14.9132 13.6166 14.8892 13.9073 14.7765C14.198 14.6638 14.4488 14.4674 14.6279 14.2122C14.8071 13.957 14.9065 13.6544 14.9137 13.3427C14.9184 13.1356 14.8823 12.9297 14.8075 12.7365C14.7326 12.5434 14.6204 12.367 14.4773 12.2172C14.3342 12.0675 14.163 11.9474 13.9735 11.8638C13.784 11.7803 13.5799 11.7348 13.3728 11.7302Z" fill="white"/>
</g>
</svg>
