<svg width="138" height="72" viewBox="0 0 138 72" fill="none" xmlns="http://www.w3.org/2000/svg">
<path d="M16.4271 66.2245C14.6101 66.2245 12.8921 65.7831 11.3171 64.9112C9.53465 63.9258 8.07129 62.4438 7.08261 60.6259C6.17252 58.9532 5.71198 57.0817 5.71198 55.0636C5.71198 53.1496 6.12694 51.3428 6.94586 49.6921C7.23507 49.1087 7.57302 48.549 7.95497 48.0209C6.97101 46.5735 6.40515 44.8629 6.31084 43.0372C6.30298 42.9 6.29984 42.7612 6.29984 42.6241C6.29984 41.6213 6.46645 40.5965 6.79496 39.578C6.8484 39.4109 6.90971 39.2422 6.97415 39.0783L16.3375 15.5519C17.037 13.7829 18.1923 12.2536 19.6761 11.1311C21.2589 9.93283 23.1309 9.247 25.0894 9.14925C25.2828 9.13664 25.4887 9.13033 25.6899 9.13033C27.4346 9.13033 29.1526 9.6112 30.6553 10.5225C32.4251 11.5962 33.7801 13.1901 34.5723 15.1325L36.0655 18.6106C36.7697 17.8759 37.5352 17.2011 38.3525 16.5956C40.6411 14.8976 43.2079 13.8444 45.9884 13.4597C46.2981 11.5946 47.1139 9.87923 48.3697 8.465C50.05 6.57305 52.3732 5.40635 54.9148 5.18247C55.2088 5.15725 55.5074 5.14306 55.8013 5.14306C58.1402 5.14306 60.3895 5.98813 62.1342 7.52218C63.662 8.87019 64.6821 10.6013 65.1207 12.5753C66.823 11.8752 68.6306 11.4385 70.5058 11.273C71.0638 11.2241 71.6249 11.1989 72.1719 11.1989C74.8707 11.1989 77.4139 11.7932 79.7324 12.9631C79.8251 13.0104 79.9194 13.0593 80.0153 13.1097C81.65 11.4732 83.7987 10.4689 86.1313 10.2623C86.4221 10.2371 86.716 10.2229 87.0052 10.2229C87.7801 10.2229 88.5503 10.316 89.2969 10.5004C90.8169 9.85085 92.417 9.44881 94.0548 9.30376C94.5736 9.25804 95.0954 9.23439 95.6062 9.23439C97.8304 9.23439 99.9429 9.66796 101.894 10.5225C101.941 10.4878 101.988 10.4547 102.035 10.4232C102.475 9.0783 103.206 7.82331 104.162 6.77959C105.845 4.94125 108.134 3.80924 110.605 3.59166C110.902 3.56486 111.202 3.55225 111.499 3.55225C113.964 3.55225 116.295 4.47457 118.061 6.14894C118.839 6.88995 119.479 7.73975 119.966 8.681C120.957 9.0988 121.86 9.67742 122.656 10.4058C124.641 12.2221 125.735 14.7305 125.735 17.4675C125.735 19.3405 125.201 21.1458 124.206 22.7003C126.953 22.7255 129.517 23.7488 131.436 25.5871C132.931 27.0218 134.712 29.6091 134.712 33.7855C134.712 35.2376 134.421 36.6928 133.82 38.2363C133.382 39.3621 132.811 40.4594 132.123 41.5015C131.293 42.7549 130.311 43.8444 129.204 44.7399C127.506 46.1131 125.512 46.9346 123.437 47.1175C123.14 47.1443 122.841 47.1569 122.549 47.1569C120.854 47.1569 119.196 46.7154 117.753 45.8798C116.603 45.2097 115.617 44.2843 114.878 43.1838C114.457 43.2153 114.012 43.2311 113.553 43.2311C113.244 43.2311 112.917 43.2232 112.584 43.209C110.965 43.1396 109.393 42.7502 107.91 42.0518C107.118 41.6781 106.376 41.2051 105.697 40.6391C105.174 41.1342 104.621 41.5961 104.049 42.0187C101.762 43.7072 99.179 44.7541 96.3639 45.1341C95.9961 46.8778 95.174 48.4812 93.9653 49.8024C92.4689 51.4311 90.4852 52.5142 88.3318 52.8863C88.1542 53.4365 87.9357 53.9726 87.6827 54.485C86.8465 56.1704 85.6739 57.5768 84.1979 58.6662C83.5566 59.1408 82.8619 59.5428 82.131 59.8676C81.9314 60.1467 81.7129 60.4147 81.4818 60.6685C80.02 62.2625 78.0348 63.2447 75.8924 63.4339C75.6409 63.456 75.3847 63.467 75.1301 63.467C73.1559 63.467 71.2555 62.7828 69.745 61.5357C69.6601 61.5372 69.5768 61.5388 69.4967 61.5388C68.7909 61.5388 68.0836 61.471 67.3888 61.337C66.6705 61.6035 65.9223 61.7721 65.1631 61.8384C64.9101 61.8604 64.6539 61.8715 64.4008 61.8715C63.923 61.8715 63.4451 61.8321 62.9767 61.7532C62.2898 61.9976 61.5747 62.1553 60.8453 62.2199C60.5907 62.242 60.3329 62.2546 60.0798 62.2546C59.7262 62.2546 59.3662 62.2325 59.0094 62.1868C58.1638 62.4753 57.2899 62.6614 56.4081 62.7386C56.0623 62.7686 55.7102 62.7843 55.3628 62.7843C54.2924 62.7843 53.222 62.6393 52.1814 62.3523C52.0368 62.3129 51.8891 62.2688 51.7429 62.2215C50.5986 62.849 49.3286 63.2368 48.0491 63.3504C47.7316 63.3787 47.4015 63.3929 47.0651 63.3929C46.8859 63.3929 46.6989 63.3882 46.5118 63.3803C45.597 63.3425 44.6964 63.169 43.8287 62.8648C42.6514 63.5317 41.3421 63.9432 40.0155 64.0598C39.7011 64.0882 39.371 64.1024 39.0331 64.1024C38.8523 64.1024 38.6653 64.0977 38.4814 64.0898C38.1592 64.0756 37.8259 64.0441 37.4896 63.992C36.7885 64.2474 36.0576 64.4083 35.3142 64.4745C35.0611 64.4965 34.8049 64.5076 34.5518 64.5076C34.052 64.5076 33.5521 64.4634 33.0633 64.3783C32.356 64.6369 31.6188 64.8008 30.8675 64.8671C30.6144 64.8891 30.3582 64.9002 30.1051 64.9002C29.6022 64.9002 29.0929 64.8544 28.5915 64.7646C27.6075 65.1367 26.5685 65.3747 25.4981 65.4678C25.1555 65.4977 24.8097 65.5135 24.4717 65.5135C23.766 65.5135 23.0586 65.4457 22.3639 65.3117C21.6456 65.5781 20.899 65.7468 20.1413 65.813C19.8867 65.8351 19.6289 65.8461 19.3759 65.8461C19.3428 65.8461 19.3083 65.8461 19.2753 65.8461C18.667 66.0133 18.0367 66.1252 17.4016 66.182C17.0778 66.2103 16.7525 66.2245 16.4318 66.2245H16.4271Z" fill="#272D50"/>
<path d="M111.497 4.34054C113.761 4.34054 115.9 5.18718 117.521 6.72281C118.31 7.47329 118.94 8.34516 119.396 9.30217C120.396 9.68529 121.323 10.2544 122.126 10.9907C123.946 12.6572 124.949 14.9575 124.949 17.4691C124.949 19.7583 124.08 21.9372 122.502 23.6084C122.706 23.5769 122.91 23.5501 123.115 23.5328C123.446 23.5028 123.78 23.4886 124.105 23.4886C126.688 23.4886 129.099 24.4362 130.894 26.1578C132.28 27.4885 133.927 29.8881 133.927 33.7871C133.927 35.1398 133.654 36.502 133.09 37.951C132.67 39.0262 132.126 40.0715 131.469 41.0664C130.682 42.2551 129.756 43.2815 128.712 44.1266C127.136 45.4005 125.289 46.1636 123.369 46.3339C123.096 46.3575 122.821 46.3701 122.549 46.3701C120.991 46.3701 119.47 45.9649 118.146 45.1987C116.938 44.4955 115.969 43.5149 115.286 42.3545C115.197 42.3639 115.108 42.375 115.018 42.3828C114.559 42.4238 114.066 42.4443 113.553 42.4443C113.253 42.4443 112.939 42.438 112.617 42.4238C111.104 42.3592 109.632 41.995 108.245 41.3407C107.299 40.8945 106.433 40.2954 105.671 39.5638C105.025 40.226 104.328 40.8346 103.582 41.3864C101.251 43.1081 98.5974 44.1297 95.6943 44.4214C95.4255 46.2266 94.6286 47.9136 93.3868 49.2711C91.8905 50.9013 89.8911 51.9246 87.7235 52.1815C87.5381 52.8548 87.2897 53.5091 86.9785 54.1366C86.1989 55.7085 85.1065 57.0186 83.7311 58.034C83.0741 58.5196 82.3636 58.9216 81.6139 59.2338C81.4001 59.5507 81.1612 59.8518 80.9003 60.1372C79.5689 61.5877 77.7676 62.4785 75.8217 62.6503C75.5922 62.6708 75.3596 62.6803 75.1285 62.6803C73.2298 62.6803 71.4253 61.9913 70.0201 60.7379C69.844 60.7458 69.668 60.7521 69.4935 60.7521C68.7501 60.7521 68.0239 60.6732 67.3181 60.5203C66.6124 60.8041 65.8642 60.987 65.0908 61.0548C64.8614 61.0753 64.6272 61.0847 64.3977 61.0847C63.89 61.0847 63.3901 61.0359 62.9029 60.9397C62.2254 61.2014 61.5102 61.3701 60.7746 61.4347C60.542 61.4552 60.3078 61.4663 60.0783 61.4663C59.69 61.4663 59.305 61.4363 58.9277 61.3796C58.0946 61.6807 57.2286 61.8746 56.3389 61.9534C56.0151 61.9818 55.6866 61.996 55.3612 61.996C54.3616 61.996 53.3619 61.8604 52.3873 61.5924C52.1406 61.5246 51.8985 61.4474 51.6596 61.3591C50.5357 62.0339 49.2736 62.4501 47.9768 62.5636C47.6829 62.5888 47.3748 62.603 47.062 62.603C46.8938 62.603 46.7193 62.5999 46.5417 62.592C45.5782 62.551 44.6414 62.3492 43.747 61.9929C42.5933 62.7118 41.2855 63.1548 39.9416 63.2731C39.6493 63.2983 39.3412 63.3125 39.0284 63.3125C38.8602 63.3125 38.6857 63.3093 38.5097 63.3015C38.1372 63.2857 37.7678 63.2431 37.4047 63.1801C36.7178 63.4497 35.9901 63.6231 35.2419 63.6893C35.0124 63.7098 34.7798 63.7193 34.5487 63.7193C34.019 63.7193 33.4971 63.6657 32.9894 63.5616C32.2931 63.8375 31.5559 64.0141 30.7952 64.0819C30.5657 64.1024 30.3315 64.1118 30.102 64.1118C29.5629 64.1118 29.0316 64.0551 28.5145 63.9463C27.5399 64.3389 26.5072 64.5864 25.4242 64.6826C25.1052 64.711 24.7829 64.7251 24.467 64.7251C23.7235 64.7251 22.9974 64.6463 22.2916 64.4934C21.5874 64.7772 20.8392 64.9601 20.0675 65.0279C19.8348 65.0484 19.6022 65.0594 19.3711 65.0594C19.3036 65.0594 19.236 65.0594 19.17 65.0562C18.5727 65.2281 17.9565 65.3416 17.3278 65.3968C17.0291 65.4236 16.7258 65.4362 16.4271 65.4362C14.7453 65.4362 13.153 65.0279 11.6959 64.2206C10.0455 63.3078 8.68902 61.9345 7.77108 60.2475C6.92543 58.693 6.49633 56.9477 6.49633 55.062C6.49633 53.1764 6.88457 51.5824 7.64847 50.0421C8.00999 49.3137 8.44067 48.6436 8.9358 48.0303C7.82923 46.6129 7.19422 44.8865 7.09519 42.9946C7.0889 42.8716 7.08576 42.747 7.08576 42.6225C7.08576 41.7017 7.2398 40.7589 7.54316 39.8193C7.59189 39.6679 7.64533 39.5181 7.70506 39.3699L17.0669 15.8451C17.7113 14.2149 18.7801 12.7975 20.1492 11.7601C21.6094 10.6549 23.3259 10.0274 25.1287 9.93597C25.3158 9.92493 25.5044 9.91863 25.6899 9.91863C27.2916 9.91863 28.8681 10.3601 30.2498 11.1973C31.8782 12.1858 33.1168 13.6458 33.8461 15.4321L35.8297 20.0531C36.7115 18.9968 37.7096 18.0524 38.8193 17.2294C41.1629 15.492 43.8083 14.4624 46.6848 14.1692C46.8844 12.2457 47.6719 10.4342 48.9545 8.98842C50.4996 7.24625 52.6404 6.17415 54.9809 5.96761C55.2528 5.94396 55.5279 5.93135 55.7982 5.93135C57.9453 5.93135 60.0107 6.70705 61.6124 8.11497C63.255 9.56389 64.2593 11.5189 64.5108 13.7072C66.3986 12.8023 68.4263 12.2473 70.5702 12.0581C71.1062 12.0108 71.6438 11.9872 72.1688 11.9872C74.7434 11.9872 77.1687 12.5532 79.3772 13.6678C79.6459 13.8034 79.9084 13.9485 80.1662 14.0967C81.7082 12.3403 83.8474 11.2556 86.1973 11.0491C86.4661 11.0254 86.7364 11.0128 87.0021 11.0128C87.8084 11.0128 88.5991 11.1216 89.3583 11.3329C89.396 11.3155 89.4353 11.2982 89.473 11.2824C90.9568 10.6313 92.5192 10.2308 94.1209 10.0905C94.6176 10.0463 95.1158 10.0243 95.6031 10.0243C97.8807 10.0243 100.025 10.4988 101.989 11.4353C102.219 11.254 102.455 11.0822 102.698 10.9245C103.091 9.59069 103.781 8.35462 104.735 7.31405C106.287 5.62075 108.393 4.57861 110.669 4.3768C110.944 4.35315 111.221 4.34054 111.494 4.34054M111.494 2.76392C111.175 2.76392 110.851 2.77811 110.531 2.80648C107.865 3.0414 105.396 4.26328 103.579 6.24667C102.705 7.20053 102.005 8.31835 101.523 9.52132C99.6647 8.80868 97.6795 8.44764 95.6031 8.44764C95.0703 8.44764 94.5248 8.47129 93.9826 8.52016C92.3479 8.66363 90.7493 9.05306 89.2247 9.6774C88.4969 9.51816 87.7518 9.43776 87.0021 9.43776C86.6909 9.43776 86.3734 9.45195 86.059 9.47875C83.7343 9.68371 81.5793 10.6234 79.8739 12.1574C77.5004 10.9986 74.9085 10.4121 72.1672 10.4121C71.5966 10.4121 71.0135 10.4389 70.4319 10.4894C68.7799 10.636 67.1767 10.9844 65.6488 11.5284C65.0908 9.75308 64.0739 8.18907 62.6498 6.93093C60.7589 5.26917 58.3257 4.35473 55.7966 4.35473C55.4807 4.35473 55.1585 4.36892 54.841 4.3973C52.0997 4.63852 49.5911 5.89824 47.7788 7.94154C46.5527 9.32266 45.7149 10.9718 45.3188 12.766C42.6216 13.228 40.124 14.3001 37.881 15.9618C37.3418 16.3607 36.8247 16.7895 36.3311 17.2452L35.2906 14.8219C34.4324 12.7282 32.969 11.0096 31.0577 9.84925C29.4308 8.86387 27.5729 8.34358 25.6852 8.34358C25.4698 8.34358 25.2513 8.34989 25.0344 8.36408C22.9219 8.47286 20.9052 9.2123 19.1982 10.5036C17.5981 11.7144 16.3548 13.3604 15.6019 15.2649L6.24483 38.7866C6.17253 38.9663 6.10651 39.1508 6.04678 39.3352C5.69312 40.431 5.51393 41.5378 5.51393 42.6225C5.51393 42.7738 5.51865 42.9252 5.52651 43.0766C5.61925 44.8581 6.12852 46.5388 7.01031 48.0035C6.72738 48.4339 6.4696 48.8801 6.24169 49.3405C5.36775 51.1016 4.9245 53.0266 4.9245 55.0636C4.9245 57.2157 5.41805 59.2133 6.39101 61.0043C7.45042 62.9546 9.02225 64.5454 10.9367 65.6033C12.628 66.5398 14.4749 67.0144 16.4255 67.0144C16.7682 67.0144 17.1187 66.9986 17.4645 66.9687C18.1105 66.9119 18.7503 66.8 19.3711 66.636C19.6462 66.636 19.9276 66.6234 20.2042 66.5998C20.9603 66.532 21.7053 66.3743 22.4252 66.1268C23.0995 66.2434 23.7848 66.3033 24.467 66.3033C24.8285 66.3033 25.1979 66.2876 25.5626 66.2545C26.633 66.1599 27.6735 65.9328 28.6638 65.5765C29.1416 65.6506 29.6226 65.6885 30.102 65.6885C30.3771 65.6885 30.6569 65.6759 30.9319 65.6522C31.6833 65.586 32.4204 65.4299 33.1309 65.1887C33.5977 65.2596 34.074 65.2959 34.5487 65.2959C34.8238 65.2959 35.1036 65.2833 35.3786 65.2596C36.1237 65.1934 36.8561 65.0389 37.565 64.7992C37.8621 64.8387 38.156 64.8639 38.4437 64.8765C38.6386 64.8844 38.8366 64.8891 39.0284 64.8891C39.3883 64.8891 39.742 64.8734 40.08 64.8434C41.4019 64.7267 42.708 64.3405 43.9011 63.7177C44.7373 63.9794 45.6018 64.1292 46.4757 64.167C46.6738 64.1749 46.8702 64.1796 47.062 64.1796C47.4204 64.1796 47.774 64.1639 48.1151 64.1339C49.393 64.0204 50.6599 63.6546 51.8199 63.0681C51.8702 63.0823 51.9205 63.0965 51.9708 63.1107C53.0805 63.4166 54.2201 63.5711 55.3612 63.5711C55.7322 63.5711 56.1063 63.5537 56.4772 63.5222C57.3622 63.4434 58.2393 63.2652 59.0912 62.9877C59.4213 63.0224 59.7514 63.0413 60.0783 63.0413C60.3549 63.0413 60.6363 63.0287 60.9129 63.0035C61.6407 62.9388 62.3559 62.7906 63.0459 62.5604C63.4923 62.6251 63.945 62.6582 64.3977 62.6582C64.6727 62.6582 64.9525 62.6456 65.2276 62.6219C65.9852 62.5557 66.7303 62.3965 67.4517 62.1474C68.1182 62.2625 68.7956 62.3224 69.4715 62.324C71.0842 63.5711 73.0694 64.2522 75.1285 64.2522C75.4052 64.2522 75.6849 64.2396 75.96 64.2159C78.2973 64.0094 80.4633 62.9388 82.0571 61.1998C82.263 60.9759 82.4579 60.741 82.6403 60.4982C83.3539 60.1671 84.0329 59.7651 84.6632 59.2984C86.2413 58.1349 87.4925 56.6324 88.3853 54.835C88.5881 54.4267 88.7688 54.0041 88.926 53.5721C91.0715 53.1023 93.0363 51.9766 94.5421 50.3369C95.7226 49.0472 96.5604 47.5084 97.0036 45.8341C99.7433 45.3816 102.265 44.3142 104.512 42.6524C104.93 42.3434 105.339 42.0139 105.734 41.6671C106.312 42.0927 106.928 42.4585 107.576 42.7644C109.152 43.5086 110.826 43.9232 112.549 43.9957C112.893 44.0099 113.231 44.0178 113.553 44.0178C113.876 44.0178 114.187 44.0099 114.49 43.9957C115.26 45.0316 116.238 45.9082 117.357 46.5609C118.923 47.4674 120.716 47.9452 122.549 47.9452C122.865 47.9452 123.187 47.931 123.506 47.9026C125.737 47.7055 127.877 46.8242 129.698 45.3532C130.867 44.4072 131.903 43.2579 132.777 41.9382C133.497 40.8488 134.094 39.701 134.553 38.5248C135.19 36.8883 135.499 35.3385 135.499 33.7871C135.499 29.3316 133.586 26.5599 131.981 25.0195C130.219 23.3309 127.956 22.2825 125.499 21.994C126.169 20.5939 126.522 19.0536 126.522 17.4691C126.522 14.5082 125.337 11.7932 123.187 9.8256C122.395 9.10036 121.504 8.5107 120.531 8.06925C120.021 7.1485 119.375 6.31447 118.604 5.57976C116.688 3.76349 114.166 2.76549 111.499 2.76549L111.494 2.76392Z" fill="#DCCCBB"/>
<path d="M15.5799 54.2234C15.7481 53.8608 15.9854 53.5644 16.2888 53.3342C16.5922 53.104 16.9395 52.9716 17.3278 52.9369C17.3356 52.9369 17.3435 52.9369 17.3513 52.9369C17.257 52.9148 17.1564 52.9038 17.0496 52.9038C16.9993 52.9038 16.9474 52.907 16.8955 52.9101C16.589 52.9369 16.3249 53.0378 16.086 53.2191C15.8392 53.4068 15.6506 53.6417 15.5123 53.9397C15.3724 54.2408 15.3001 54.5813 15.3001 54.955C15.3001 55.089 15.3127 55.2151 15.33 55.3365C15.341 54.9329 15.4211 54.5608 15.5783 54.225L15.5799 54.2234Z" fill="#D36F50"/>
<path d="M20.5202 49.3752V57.1984C20.5202 57.4948 20.4164 57.766 20.2184 57.9804C20.0518 58.1633 19.8411 58.2816 19.6069 58.3289C19.6965 58.3683 19.7971 58.3856 19.9119 58.3762C20.0895 58.3604 20.2388 58.2863 20.3614 58.1523C20.484 58.0183 20.5453 57.859 20.5453 57.673V49.566C20.5453 49.4966 20.5343 49.4352 20.5186 49.3768L20.5202 49.3752Z" fill="#D36F50"/>
<path d="M18.6779 58.0846C18.6339 58.042 18.5946 57.9978 18.5585 57.949C18.3431 58.1303 18.0964 58.2879 17.8229 58.422C17.4881 58.5844 17.125 58.6853 16.743 58.7184C16.6613 58.7262 16.5796 58.7278 16.4994 58.7294C16.7163 58.7609 16.9411 58.7672 17.1768 58.7467C17.5069 58.7184 17.815 58.6332 18.1011 58.4929C18.3274 58.3825 18.5302 58.2548 18.7094 58.1082C18.6999 58.1003 18.6889 58.094 18.6795 58.0846H18.6779Z" fill="#D36F50"/>
<path d="M23.4531 53.5092C23.6433 53.1497 23.8964 52.8564 24.2139 52.6294C24.5314 52.4024 24.8835 52.2715 25.2717 52.2368C25.2843 52.2368 25.2969 52.2368 25.3095 52.2353C25.2104 52.2148 25.1083 52.2021 24.9998 52.2021C24.9479 52.2021 24.8945 52.2053 24.8395 52.21C24.5283 52.2368 24.2548 52.3393 24.0017 52.5206C23.7392 52.7082 23.5349 52.9463 23.3761 53.2459C23.2221 53.5391 23.1435 53.886 23.1435 54.2754C23.1435 54.4047 23.1561 54.5261 23.1749 54.6428C23.1891 54.2202 23.2787 53.8418 23.4547 53.5092H23.4531Z" fill="#D36F50"/>
<path d="M28.6166 53.7915C28.6166 54.542 28.4468 55.2325 28.112 55.8442C27.7788 56.4528 27.323 56.9542 26.7603 57.3326C26.1928 57.7141 25.5468 57.9396 24.8411 58.0026C24.731 58.0121 24.6226 58.0153 24.5157 58.0168C24.7577 58.0484 25.0108 58.0531 25.2733 58.0294C25.9068 57.9743 26.4773 57.7756 26.9835 57.4335C27.4896 57.0929 27.8935 56.6483 28.1938 56.0997C28.494 55.5526 28.6433 54.9393 28.6433 54.2613C28.6433 54.0989 28.6339 53.9413 28.6166 53.7883V53.7915Z" fill="#D36F50"/>
<path d="M32.7678 51.5146C32.7128 51.5146 32.6531 51.5178 32.5933 51.5225C32.3183 51.5462 32.0872 51.6234 31.886 51.7543C31.6817 51.8883 31.5261 52.0491 31.4129 52.243C31.3044 52.4291 31.251 52.6309 31.251 52.8579V56.2508C31.251 56.5472 31.1473 56.8184 30.9492 57.0328C30.7826 57.2157 30.572 57.334 30.3378 57.3813C30.4274 57.4207 30.528 57.438 30.6427 57.4286C30.8203 57.4128 30.9696 57.3387 31.0922 57.2047C31.2148 57.0707 31.2761 56.9114 31.2761 56.7254V53.3325C31.2761 53.0282 31.35 52.7476 31.4978 52.4937C31.6455 52.2399 31.8499 52.0271 32.1124 51.8552C32.3749 51.6833 32.6782 51.5824 33.024 51.5525C33.035 51.5525 33.0429 51.5525 33.0539 51.5525C32.9737 51.5304 32.8778 51.5178 32.7662 51.5178L32.7678 51.5146Z" fill="#D36F50"/>
<path d="M35.6961 52.3975C35.6961 52.4164 35.6977 52.4337 35.6977 52.4526V55.8581C35.6977 56.1545 35.594 56.4257 35.3959 56.6401C35.2293 56.823 35.0187 56.9413 34.7845 56.9886C34.8741 57.028 34.9747 57.0453 35.0894 57.0359C35.267 57.0201 35.4164 56.946 35.539 56.812C35.6616 56.678 35.7229 56.5187 35.7229 56.3327V52.9272C35.7229 52.7427 35.7119 52.5693 35.6946 52.399L35.6961 52.3975Z" fill="#D36F50"/>
<path d="M37.1752 51.3477L37.1186 51.3524C37.1375 51.3603 37.1547 51.3681 37.1752 51.3745V51.3477V51.3477Z" fill="#D36F50"/>
<path d="M40.9177 50.2612C40.8768 50.4473 40.7872 50.6191 40.6489 50.7642C40.4618 50.9613 40.2166 51.0795 39.9416 51.1031L39.3348 51.1568V54.4708C39.3348 54.5276 39.3396 54.5638 39.3443 54.5859C39.349 54.5859 39.3553 54.5859 39.36 54.5859V51.2198L40.3738 51.13C40.542 51.1158 40.685 51.048 40.7982 50.9266C40.913 50.8067 40.9695 50.6664 40.9695 50.5056C40.9695 50.4142 40.9522 50.3338 40.9177 50.2612V50.2612Z" fill="#D36F50"/>
<path d="M39.3333 49.0914H39.36V49.0488C39.36 48.981 39.349 48.9211 39.3333 48.8628V49.0914Z" fill="#D36F50"/>
<path d="M40.2748 56.2681C39.9935 56.4558 39.6854 56.5661 39.3569 56.5945C39.2752 56.6024 39.1856 56.6055 39.0928 56.6071C39.1557 56.6182 39.2186 56.6276 39.283 56.6292C39.4779 56.6371 39.6461 56.6355 39.7892 56.6229C40.0422 56.6008 40.2796 56.5157 40.498 56.369C40.7181 56.2224 40.8281 56.0474 40.8281 55.844C40.8281 55.7447 40.8093 55.6596 40.7778 55.5886C40.7291 55.8046 40.5955 56.0537 40.2748 56.2666V56.2681Z" fill="#D36F50"/>
<path d="M43.2723 47.9958C43.2236 48.0148 43.178 48.0353 43.1356 48.0573C43.1591 48.0526 43.1843 48.051 43.2079 48.051C43.2582 48.051 43.3085 48.0589 43.3572 48.0778C43.3871 48.0889 43.4153 48.1015 43.4421 48.1141C43.4876 48.092 43.5348 48.0715 43.5835 48.0526C43.6983 48.0084 43.7549 47.9028 43.7549 47.7325C43.7549 47.6395 43.7329 47.5654 43.6951 47.5071C43.6118 47.824 43.3823 47.9533 43.2707 47.9958H43.2723Z" fill="#D36F50"/>
<path d="M43.8822 49.1199C43.8444 49.2996 43.7627 49.4699 43.6385 49.6212C43.4923 49.7962 43.3147 49.9429 43.1104 50.0548C42.9108 50.1652 42.7017 50.2314 42.4911 50.2535C42.6121 50.2882 42.7457 50.2992 42.8935 50.285C43.0538 50.2708 43.2126 50.2204 43.3682 50.1352C43.5238 50.0501 43.6574 49.9397 43.7674 49.8073C43.8774 49.6748 43.9325 49.5282 43.9325 49.3674C43.9403 49.2602 43.923 49.1782 43.8822 49.1199Z" fill="#D36F50"/>
<path d="M48.9497 49.5533C48.9089 49.7394 48.8193 49.9112 48.681 50.0547C48.4939 50.2518 48.2487 50.37 47.9736 50.3937L47.3669 50.4473V53.7613C47.3669 53.8181 47.3716 53.8544 47.3763 53.8764C47.3811 53.8764 47.3873 53.8764 47.3921 53.8764V50.5103L48.4059 50.4205C48.5741 50.4063 48.7171 50.3385 48.8303 50.2171C48.945 50.0973 49.0016 49.957 49.0016 49.7961C49.0016 49.7047 48.9843 49.6243 48.9497 49.5518V49.5533Z" fill="#D36F50"/>
<path d="M45.2072 50.6382L45.1506 50.6429C45.1695 50.6508 45.1868 50.6587 45.2072 50.665V50.6382V50.6382Z" fill="#D36F50"/>
<path d="M48.3069 55.5587C48.0255 55.7463 47.7174 55.8567 47.3905 55.885C47.3088 55.8929 47.2192 55.8961 47.1264 55.8976C47.1893 55.9087 47.2522 55.9166 47.3166 55.9197C47.5115 55.9276 47.6797 55.926 47.8228 55.9134C48.0758 55.8913 48.3132 55.8062 48.5316 55.6596C48.7517 55.5129 48.8617 55.3379 48.8617 55.1346C48.8617 55.0352 48.8429 54.9501 48.8114 54.8792C48.7627 55.0951 48.6291 55.3443 48.3084 55.5571L48.3069 55.5587Z" fill="#D36F50"/>
<path d="M47.3653 48.3819H47.392V48.3394C47.392 48.2716 47.381 48.2117 47.3653 48.1533V48.3819Z" fill="#D36F50"/>
<path d="M55.6111 49.3768C55.4901 49.3878 55.3581 49.4178 55.2213 49.4666C55.116 49.5045 55.0327 49.5597 54.9635 49.6338C54.9148 49.6874 54.9038 49.7914 54.9038 49.8687C54.9038 49.9743 54.9337 49.9995 54.9494 50.0137C54.9573 50.02 54.9667 50.0264 54.9761 50.0327C55.006 49.9459 55.0484 49.8703 55.1066 49.8056C55.2245 49.6763 55.3706 49.5817 55.5435 49.5187C55.7164 49.4572 55.8831 49.4194 56.0434 49.4052C56.0685 49.4036 56.0905 49.4036 56.1141 49.402C56.0135 49.3815 55.9066 49.3689 55.7919 49.3689C55.7322 49.3689 55.6724 49.3721 55.6096 49.3768H55.6111Z" fill="#D36F50"/>
<path d="M58.0695 49.7488C57.9453 49.8639 57.7913 49.9428 57.6199 49.979C57.6954 50.0153 57.7818 50.0326 57.8824 50.0311C58.0255 50.0263 58.1481 49.9775 58.2502 49.8844C58.4027 49.752 58.4719 49.6101 58.4593 49.4587C58.453 49.3768 58.4341 49.3027 58.4058 49.2349C58.3634 49.3957 58.2691 49.5754 58.0695 49.7488V49.7488Z" fill="#D36F50"/>
<path d="M58.5866 52.7649C58.5662 53.2347 58.4168 53.6588 58.1371 54.023C57.8557 54.3888 57.4973 54.6836 57.0714 54.8981C56.6548 55.1078 56.2116 55.2339 55.751 55.2749C55.63 55.2859 55.509 55.2906 55.3879 55.2906C55.652 55.3206 55.9176 55.3253 56.1833 55.3033C56.5888 55.267 56.9755 55.1566 57.3433 54.9722C57.7111 54.7877 58.0145 54.5386 58.2549 54.2248C58.4954 53.9111 58.6165 53.5469 58.6165 53.1322C58.6165 52.9998 58.6039 52.88 58.5866 52.7665V52.7649Z" fill="#D36F50"/>
<path d="M62.6671 48.9133C62.6152 48.9133 62.5618 48.9165 62.5036 48.9212C62.2458 48.9433 62.0242 49.0174 61.8261 49.1451C61.6312 49.2712 61.4851 49.4273 61.3813 49.6197C61.2776 49.8136 61.2257 50.0154 61.2257 50.2377V53.6054C61.2257 53.9018 61.122 54.1729 60.9239 54.3874C60.7573 54.5702 60.5467 54.6885 60.3125 54.7358C60.4021 54.7752 60.5027 54.7925 60.6174 54.7831C60.795 54.7673 60.9443 54.6932 61.0669 54.5592C61.1896 54.4252 61.2508 54.266 61.2508 54.0799V50.7123C61.2508 50.4159 61.32 50.1384 61.4599 49.8798C61.5998 49.6212 61.7978 49.41 62.0556 49.2428C62.3134 49.0757 62.6073 48.978 62.9358 48.9496C62.9374 48.9496 62.9406 48.9496 62.9421 48.9496C62.8667 48.9275 62.7739 48.9149 62.6655 48.9149L62.6671 48.9133Z" fill="#D36F50"/>
<path d="M61.2257 47.4786C61.2336 47.4723 61.243 47.4676 61.2524 47.4613V45.9729C61.2524 45.9067 61.2414 45.8468 61.2257 45.79V47.4802V47.4786Z" fill="#D36F50"/>
<path d="M65.5435 49.8103C65.5435 49.8261 65.5435 49.8403 65.5435 49.856V53.2237C65.5435 53.5201 65.4398 53.7913 65.2417 54.0057C65.0751 54.1886 64.8645 54.3068 64.6303 54.3541C64.7199 54.3935 64.8205 54.4109 64.9352 54.4014C65.1128 54.3857 65.2622 54.3116 65.3848 54.1775C65.5074 54.0435 65.5687 53.8843 65.5687 53.6983V50.3306C65.5687 50.1509 65.5577 49.979 65.5404 49.8119L65.5435 49.8103Z" fill="#D36F50"/>
<path d="M68.4797 49.5329C68.6699 49.1734 68.9229 48.8801 69.2405 48.6531C69.558 48.4261 69.9101 48.2952 70.2983 48.2605C70.3109 48.2605 70.3234 48.2605 70.336 48.2589C70.237 48.2384 70.1348 48.2258 70.0264 48.2258C69.9745 48.2258 69.9211 48.229 69.866 48.2337C69.5548 48.2605 69.2813 48.363 69.0283 48.5443C68.7658 48.7319 68.5614 48.97 68.4027 49.2696C68.2486 49.5628 68.17 49.9097 68.17 50.2991C68.17 50.4284 68.1826 50.5498 68.2015 50.6664C68.2156 50.2439 68.3052 49.8655 68.4813 49.5329H68.4797Z" fill="#D36F50"/>
<path d="M73.6416 49.8166C73.6416 50.5671 73.4718 51.2577 73.137 51.8694C72.8038 52.478 72.3495 52.9793 71.7852 53.3577C71.2178 53.7393 70.5718 53.9647 69.866 54.0278C69.756 54.0372 69.6476 54.0404 69.5407 54.042C69.7827 54.0735 70.0358 54.0782 70.2983 54.0546C70.9317 53.9994 71.5023 53.8008 72.0084 53.4586C72.5146 53.1181 72.9185 52.6735 73.2188 52.1248C73.519 51.5777 73.6683 50.9644 73.6683 50.2865C73.6683 50.1241 73.6589 49.9664 73.6416 49.8135V49.8166Z" fill="#D36F50"/>
<path d="M76.2759 52.959V54.8194C76.2759 55.1158 76.1722 55.387 75.9741 55.6014C75.806 55.7843 75.5969 55.9025 75.3627 55.9498C75.4523 55.9893 75.5529 56.0066 75.6676 55.9971C75.8453 55.9814 75.9946 55.9073 76.1172 55.7733C76.2398 55.6392 76.3011 55.48 76.3011 55.294V52.9732C76.2932 52.9684 76.2838 52.9653 76.2744 52.9621L76.2759 52.959Z" fill="#D36F50"/>
<path d="M76.4913 48.8582C76.6595 48.5051 76.8952 48.215 77.1939 47.9895C77.4941 47.7641 77.8462 47.6332 78.2517 47.5969C78.2611 47.5969 78.2706 47.5969 78.28 47.5954C78.1857 47.5733 78.0851 47.5623 77.9766 47.5623C77.9248 47.5623 77.8729 47.5654 77.8195 47.5686C77.4957 47.5969 77.2237 47.6963 76.9895 47.8729C76.7459 48.0557 76.5604 48.2875 76.4205 48.5776C76.2806 48.8693 76.2115 49.2051 76.2115 49.5756C76.2115 49.7065 76.2241 49.831 76.2429 49.9508C76.2539 49.5504 76.3357 49.183 76.4913 48.8567V48.8582Z" fill="#D36F50"/>
<path d="M81.4441 49.0852C81.4441 49.0947 81.4441 49.1041 81.4441 49.1136C81.4441 49.8577 81.2916 50.542 80.9914 51.1459C80.6896 51.7529 80.2778 52.2511 79.767 52.6295C79.2467 53.0141 78.651 53.238 77.9971 53.2964C77.9264 53.3027 77.8556 53.3042 77.7865 53.3058C77.9924 53.3374 78.2077 53.3437 78.4293 53.3247C79.0031 53.2743 79.5186 53.0804 79.9744 52.743C80.4303 52.4056 80.7934 51.9657 81.0637 51.4202C81.3341 50.8747 81.4693 50.2645 81.4693 49.5866C81.4693 49.4131 81.4598 49.246 81.4425 49.0852H81.4441Z" fill="#D36F50"/>
<path d="M19.4419 48.5001C19.2564 48.5159 19.1039 48.5916 18.986 48.724C18.8681 48.858 18.8084 49.0173 18.8084 49.2033V52.0885C18.7094 51.9829 18.5962 51.8836 18.4657 51.7874C18.2378 51.6219 17.9691 51.4926 17.661 51.4011C17.3529 51.3097 17.0212 51.2797 16.666 51.3113C16.1002 51.3617 15.5862 51.5572 15.1272 51.8978C14.6666 52.2399 14.302 52.6829 14.0316 53.2269C13.7613 53.7724 13.6261 54.3825 13.6261 55.0605C13.6261 55.7384 13.7613 56.3249 14.0316 56.8231C14.302 57.3198 14.6714 57.6982 15.1398 57.9583C15.6082 58.2184 16.13 58.3225 16.7037 58.272C17.0338 58.2437 17.3419 58.1585 17.628 58.0182C17.9156 57.8779 18.164 57.7108 18.3762 57.5137C18.5506 57.3513 18.6937 57.1873 18.8068 57.0218V57.3103C18.8068 57.4963 18.8666 57.6461 18.9845 57.7581C19.1023 57.87 19.2548 57.9189 19.4403 57.9015C19.6179 57.8858 19.7672 57.8117 19.8898 57.6777C20.0124 57.5436 20.0737 57.3844 20.0737 57.1984V49.0914C20.0737 48.8959 20.0124 48.7445 19.8898 48.6373C19.7672 48.5301 19.6179 48.4828 19.4403 48.4986L19.4419 48.5001ZM18.6056 55.8046C18.4359 56.1673 18.2017 56.4637 17.903 56.6923C17.6028 56.9225 17.2554 57.0549 16.8578 57.0896C16.4695 57.1243 16.1237 57.0533 15.8188 56.8767C15.5154 56.7002 15.2781 56.4463 15.1099 56.1136C14.9401 55.781 14.8568 55.3947 14.8568 54.9548C14.8568 54.515 14.9417 54.1129 15.1099 53.7503C15.2781 53.3877 15.5154 53.0913 15.8188 52.8611C16.1222 52.6309 16.4695 52.4985 16.8578 52.4638C17.2539 52.4291 17.6028 52.5 17.903 52.6766C18.2033 52.8532 18.4375 53.1086 18.6056 53.4397C18.7738 53.7724 18.8587 54.1586 18.8587 54.5985C18.8587 55.0384 18.7738 55.4404 18.6056 55.8031V55.8046Z" fill="url(#paint0_linear_6_474)"/>
<path d="M26.5104 50.8935C26.0043 50.6381 25.4337 50.5372 24.8002 50.594C24.1746 50.6491 23.6072 50.8494 23.0964 51.1962C22.5855 51.5415 22.18 51.9893 21.8798 52.5364C21.5796 53.0834 21.4302 53.7015 21.4302 54.3873C21.4302 55.0731 21.5796 55.6518 21.8798 56.1452C22.18 56.6403 22.5855 57.0124 23.0964 57.2646C23.6072 57.5169 24.1746 57.6147 24.8002 57.5595C25.4337 57.5043 26.0043 57.3056 26.5104 56.9635C27.0165 56.623 27.4205 56.1784 27.7207 55.6297C28.0209 55.0826 28.1702 54.4693 28.1702 53.7913C28.1702 53.1134 28.0209 52.5143 27.7207 52.0208C27.4205 51.5257 27.0181 51.1505 26.5104 50.8951V50.8935ZM26.6251 55.122C26.4396 55.4862 26.1882 55.7795 25.8706 56.0018C25.5547 56.2241 25.1963 56.3534 24.8002 56.388C24.412 56.4227 24.0583 56.3565 23.7424 56.1894C23.4249 56.0223 23.1718 55.7747 22.9816 55.4436C22.7914 55.1126 22.6971 54.7231 22.6971 54.2738C22.6971 53.8245 22.7914 53.3956 22.9816 53.0346C23.1718 52.6751 23.4249 52.3818 23.7424 52.1548C24.0599 51.9278 24.412 51.7969 24.8002 51.7622C25.1963 51.7275 25.5547 51.7953 25.8706 51.9656C26.1882 52.1375 26.4381 52.385 26.6251 52.7129C26.8106 53.0393 26.9033 53.4366 26.9033 53.9017C26.9033 54.3668 26.8106 54.7578 26.6251 55.1204V55.122Z" fill="url(#paint1_linear_6_474)"/>
<path d="M34.3647 50.1242C34.0347 49.9034 33.571 49.8199 32.9705 49.8719C32.675 49.8987 32.3968 49.9712 32.1343 50.091C31.8718 50.2109 31.636 50.3638 31.4254 50.5483C31.2148 50.7327 31.034 50.9267 30.8863 51.13C30.8564 51.171 30.8297 51.212 30.8045 51.2514V50.8636C30.8045 50.6776 30.7432 50.5278 30.6206 50.4158C30.498 50.3039 30.3487 50.255 30.1711 50.2708C29.9856 50.2865 29.8332 50.3622 29.7153 50.4947C29.5974 50.6287 29.5377 50.7879 29.5377 50.974V56.3613C29.5377 56.5473 29.5974 56.6971 29.7153 56.809C29.8332 56.921 29.9856 56.9698 30.1711 56.9525C30.3487 56.9367 30.498 56.8626 30.6206 56.7286C30.7432 56.5946 30.8045 56.4354 30.8045 56.2493V52.8564C30.8045 52.5522 30.8784 52.2715 31.0262 52.0177C31.1739 51.7638 31.3783 51.551 31.6408 51.3791C31.9033 51.2073 32.2066 51.1064 32.5524 51.0764C32.9234 51.0433 33.2126 51.0922 33.4201 51.2215C33.6275 51.3523 33.7722 51.5337 33.857 51.767C33.9419 52.0003 33.9844 52.2699 33.9844 52.5758V55.9687C33.9844 56.1547 34.0441 56.3045 34.162 56.4165C34.2799 56.5284 34.4323 56.5773 34.6178 56.5599C34.7954 56.5442 34.9447 56.4701 35.0673 56.336C35.1899 56.202 35.2512 56.0428 35.2512 55.8567V52.4513C35.2512 51.9341 35.1852 51.4722 35.0548 51.0638C34.9243 50.6555 34.6932 50.3417 34.3647 50.121V50.1242Z" fill="url(#paint2_linear_6_474)"/>
<path d="M39.9023 50.6586C40.0705 50.6444 40.2135 50.5766 40.3267 50.4552C40.4414 50.3354 40.498 50.195 40.498 50.0342C40.498 49.8655 40.4414 49.7284 40.3267 49.6243C40.2119 49.5202 40.0705 49.4761 39.9023 49.4903L38.8885 49.5802V48.5758C38.8885 48.3898 38.8287 48.24 38.7108 48.1281C38.593 48.0161 38.4405 47.9673 38.255 47.9846C38.0774 48.0004 37.9281 48.0745 37.8055 48.2085C37.6829 48.3425 37.6216 48.5018 37.6216 48.6878V49.6921L36.9252 49.7536C36.7555 49.7678 36.614 49.8356 36.5009 49.957C36.3861 50.0768 36.3295 50.2218 36.3295 50.3921C36.3295 50.5624 36.3861 50.6854 36.5009 50.7894C36.6156 50.8935 36.7555 50.9376 36.9252 50.9234L37.6216 50.8619V54.6364C37.6216 55.0431 37.6813 55.3537 37.7992 55.5682C37.9171 55.7826 38.068 55.9324 38.2487 56.0175C38.4311 56.1026 38.6181 56.1499 38.813 56.1578C39.0079 56.1657 39.1761 56.1641 39.3191 56.1515C39.5722 56.1294 39.8096 56.0443 40.028 55.8977C40.2481 55.7511 40.3581 55.5761 40.3581 55.3727C40.3581 55.2119 40.3157 55.0889 40.2308 55.0022C40.1459 54.917 40.0532 54.8776 39.9526 54.8871C39.8504 54.8965 39.764 54.9202 39.6932 54.9612C39.6209 55.0022 39.5392 55.0258 39.4465 55.0337C39.3537 55.0416 39.2626 55.0337 39.1745 55.0069C39.0865 54.9817 39.0158 54.9233 38.9655 54.835C38.9152 54.7467 38.89 54.6253 38.89 54.474V50.75L39.9039 50.6601L39.9023 50.6586Z" fill="url(#paint3_linear_6_474)"/>
<path d="M43.2079 48.4987C43.1576 48.5365 43.0978 48.5649 43.0302 48.5838C42.9627 48.6027 42.9029 48.6138 42.8526 48.6185C42.7253 48.6295 42.6247 48.6027 42.5493 48.5381C42.4738 48.4734 42.4345 48.3978 42.4345 48.3126C42.4345 48.1944 42.466 48.0856 42.5288 47.9863C42.5917 47.8869 42.6829 47.8034 42.8007 47.734C42.8935 47.6757 42.9972 47.6236 43.1104 47.5795C43.2251 47.5353 43.2817 47.4297 43.2817 47.2594C43.2817 47.1065 43.2314 47.0009 43.1293 46.9425C43.0271 46.8842 42.9061 46.8606 42.7615 46.8732C42.5917 46.8874 42.4251 46.963 42.2616 47.0955C42.0966 47.2295 41.9473 47.395 41.8121 47.5921C41.6769 47.7908 41.5716 47.9926 41.4946 48.1975C41.4191 48.4041 41.3798 48.5822 41.3798 48.7352C41.3798 49.1167 41.4741 49.3989 41.6643 49.5802C41.8545 49.7631 42.106 49.8404 42.4188 49.812C42.5791 49.7978 42.7379 49.7474 42.8935 49.6622C43.0491 49.5771 43.1827 49.4667 43.2927 49.3343C43.4028 49.2018 43.4578 49.0552 43.4578 48.8944C43.4656 48.7746 43.4452 48.6863 43.3949 48.6264C43.3446 48.568 43.2802 48.5239 43.2047 48.4971L43.2079 48.4987Z" fill="url(#paint4_linear_6_474)"/>
<path d="M47.9328 49.9491C48.101 49.9349 48.244 49.8671 48.3572 49.7457C48.4719 49.6259 48.5285 49.4856 48.5285 49.3248C48.5285 49.1561 48.4719 49.0189 48.3572 48.9148C48.2424 48.8108 48.101 48.7666 47.9328 48.7808L46.9189 48.8707V47.8664C46.9189 47.6803 46.8592 47.5306 46.7413 47.4186C46.6234 47.3067 46.471 47.2578 46.2855 47.2751C46.1079 47.2909 45.9586 47.365 45.836 47.499C45.7134 47.633 45.6521 47.7923 45.6521 47.9783V48.9826L44.9557 49.0441C44.786 49.0583 44.6445 49.1261 44.5313 49.2475C44.4166 49.3673 44.36 49.5124 44.36 49.6826C44.36 49.8529 44.4166 49.9759 44.5313 50.08C44.6461 50.184 44.786 50.2282 44.9557 50.214L45.6521 50.1525V53.9269C45.6521 54.3337 45.7118 54.6443 45.8297 54.8587C45.9476 55.0731 46.0985 55.2229 46.2792 55.308C46.4615 55.3932 46.6486 55.4405 46.8435 55.4483C47.0384 55.4562 47.2066 55.4547 47.3496 55.442C47.6027 55.42 47.84 55.3348 48.0585 55.1882C48.2786 55.0416 48.3886 54.8666 48.3886 54.6632C48.3886 54.5024 48.3462 54.3794 48.2613 54.2927C48.1764 54.2075 48.0837 54.1681 47.9831 54.1776C47.8809 54.1871 47.7945 54.2107 47.7237 54.2517C47.6514 54.2927 47.5697 54.3163 47.4769 54.3242C47.3842 54.3321 47.293 54.3242 47.205 54.2974C47.117 54.2722 47.0463 54.2139 46.996 54.1256C46.9457 54.0373 46.9205 53.9159 46.9205 53.7645V50.0405L47.9343 49.9507L47.9328 49.9491Z" fill="url(#paint5_linear_6_474)"/>
<path d="M57.4407 51.2641C57.2333 51.1348 57.0022 51.0339 56.7444 50.9629C56.4866 50.892 56.2273 50.8352 55.9648 50.7911C55.6944 50.7469 55.4461 50.6933 55.2166 50.6287C54.9887 50.564 54.8048 50.4742 54.6649 50.3591C54.525 50.244 54.4558 50.0816 54.4558 49.8687C54.4558 49.6401 54.5156 49.462 54.6335 49.3327C54.7513 49.2034 54.8975 49.1088 55.0704 49.0457C55.2433 48.9843 55.4099 48.9464 55.5703 48.9322C55.8909 48.9039 56.1786 48.9354 56.4316 49.0284C56.6847 49.1198 56.8922 49.2617 57.0525 49.4494C57.1452 49.5266 57.2631 49.5629 57.4077 49.5581C57.5508 49.5534 57.6734 49.5045 57.7755 49.4115C57.928 49.2791 57.9972 49.1372 57.9846 48.9858C57.972 48.8345 57.9233 48.7068 57.8384 48.6043C57.6529 48.4009 57.4329 48.2417 57.1798 48.1282C56.9267 48.0146 56.6643 47.939 56.3939 47.8995C56.1235 47.8601 55.8658 47.8507 55.6206 47.8727C55.1977 47.9106 54.8079 48.0257 54.448 48.218C54.0896 48.4104 53.7972 48.6611 53.574 48.9685C53.3508 49.2759 53.2377 49.6291 53.2377 50.028C53.2377 50.3748 53.3068 50.6618 53.4467 50.8857C53.5866 51.1111 53.7658 51.2877 53.9859 51.417C54.2059 51.5463 54.4527 51.6456 54.7278 51.7134C55.0028 51.7828 55.2748 51.8427 55.5451 51.8947C55.7982 51.9404 56.0355 51.994 56.254 52.0539C56.4741 52.1154 56.6501 52.2037 56.7869 52.3188C56.922 52.4339 56.9896 52.5979 56.9896 52.8091C56.9896 53.0456 56.9267 53.2317 56.7994 53.3657C56.6721 53.4997 56.5212 53.5975 56.3436 53.6605C56.166 53.7236 55.9931 53.7661 55.8249 53.7882C55.4115 53.8245 55.0578 53.7803 54.7671 53.6526C54.4763 53.5265 54.2122 53.342 53.9749 53.0992C53.857 52.9905 53.7312 52.9368 53.6008 52.9353C53.4703 52.9353 53.3446 52.9763 53.2267 53.063C53.0569 53.1875 52.9689 53.3294 52.961 53.4871C52.9532 53.6447 52.9862 53.7788 53.0632 53.8907C53.3933 54.2943 53.7957 54.5608 54.2735 54.6932C54.7513 54.8241 55.2307 54.8698 55.7117 54.8272C56.1173 54.791 56.5039 54.6806 56.8717 54.4961C57.2395 54.3117 57.5429 54.0626 57.7834 53.7488C58.0239 53.4351 58.1449 53.0709 58.1449 52.6562C58.1449 52.2999 58.0789 52.0114 57.9484 51.7906C57.818 51.5699 57.6482 51.3933 57.4423 51.2641H57.4407Z" fill="url(#paint6_linear_6_474)"/>
<path d="M64.2263 47.5258C63.9057 47.3051 63.453 47.22 62.8714 47.2704C62.5838 47.2956 62.3134 47.3682 62.0603 47.488C61.8073 47.6078 61.5762 47.7576 61.3703 47.9373C61.1628 48.1171 60.9899 48.3094 60.8516 48.5175C60.8265 48.5554 60.8045 48.5916 60.7825 48.6279V45.4983C60.7825 45.3122 60.7212 45.1625 60.5985 45.0505C60.4759 44.9386 60.3266 44.8897 60.149 44.9055C59.9635 44.9212 59.8111 44.9969 59.6932 45.1294C59.5753 45.2634 59.5156 45.4226 59.5156 45.6086V53.7156C59.5156 53.9017 59.5753 54.0515 59.6932 54.1634C59.8111 54.2753 59.9635 54.3242 60.149 54.3069C60.3266 54.2911 60.4759 54.217 60.5985 54.083C60.7212 53.949 60.7825 53.7897 60.7825 53.6037V50.236C60.7825 49.9396 60.8516 49.6621 60.9915 49.4036C61.1314 49.145 61.3294 48.9337 61.5872 48.7666C61.845 48.5995 62.1389 48.5017 62.4675 48.4734C62.8227 48.4418 63.0993 48.4891 63.2974 48.6168C63.4954 48.743 63.6353 48.9259 63.7155 49.1639C63.7956 49.402 63.8365 49.67 63.8365 49.9664V53.3341C63.8365 53.5201 63.8962 53.6699 64.0141 53.7819C64.132 53.8938 64.2845 53.9427 64.47 53.9253C64.6476 53.9096 64.7969 53.8355 64.9195 53.7014C65.0421 53.5674 65.1034 53.4082 65.1034 53.2222V49.8545C65.1034 49.3468 65.0374 48.8864 64.9069 48.4734C64.7765 48.0619 64.5501 47.745 64.2295 47.5227L64.2263 47.5258Z" fill="url(#paint7_linear_6_474)"/>
<path d="M71.5353 46.9189C71.0292 46.6635 70.4586 46.5626 69.8252 46.6193C69.1996 46.6745 68.6321 46.8748 68.1213 47.2216C67.6105 47.5669 67.2049 48.0147 66.9047 48.5617C66.6045 49.1088 66.4552 49.7269 66.4552 50.4127C66.4552 51.0985 66.6045 51.6772 66.9047 52.1706C67.2049 52.6657 67.6105 53.0378 68.1213 53.29C68.6321 53.5423 69.1996 53.64 69.8252 53.5849C70.4586 53.5297 71.0292 53.331 71.5353 52.9889C72.0414 52.6484 72.4454 52.2037 72.7456 51.6551C73.0458 51.108 73.1952 50.4947 73.1952 49.8167C73.1952 49.1388 73.0458 48.5397 72.7456 48.0462C72.4454 47.5511 72.043 47.1759 71.5353 46.9205V46.9189ZM71.6501 51.1474C71.4646 51.5116 71.2131 51.8049 70.8956 52.0272C70.5796 52.2495 70.2213 52.3787 69.8252 52.4134C69.4369 52.4481 69.0833 52.3819 68.7673 52.2148C68.4498 52.0477 68.1968 51.8001 68.0066 51.469C67.8164 51.1379 67.7221 50.7485 67.7221 50.2992C67.7221 49.8498 67.8164 49.421 68.0066 49.06C68.1968 48.7005 68.4498 48.4072 68.7673 48.1802C69.0848 47.9532 69.4369 47.8223 69.8252 47.7876C70.2213 47.7529 70.5796 47.8207 70.8956 47.991C71.2131 48.1629 71.463 48.4104 71.6501 48.7383C71.8355 49.0647 71.9283 49.462 71.9283 49.9271C71.9283 50.3922 71.8355 50.7832 71.6501 51.1458V51.1474Z" fill="url(#paint8_linear_6_474)"/>
<path d="M80.5937 47.3635C80.3234 46.8747 79.9587 46.5026 79.4982 46.2472C79.0376 45.9918 78.5126 45.8893 77.9201 45.9414C77.6324 45.9666 77.3558 46.0375 77.0901 46.1542C76.8245 46.2709 76.5871 46.4144 76.3812 46.5862C76.1738 46.7565 76.0024 46.9346 75.8688 47.1207C75.8547 47.1396 75.8437 47.1585 75.8311 47.1774V46.8637C75.8311 46.6855 75.7698 46.5389 75.6472 46.4222C75.5246 46.3056 75.3753 46.2551 75.1977 46.2709C75.0122 46.2866 74.8597 46.3639 74.7418 46.5011C74.6239 46.6382 74.5642 46.7959 74.5642 46.9741V54.9297C74.5642 55.1157 74.6239 55.2655 74.7418 55.3775C74.8597 55.4894 75.0122 55.5383 75.1977 55.5209C75.3753 55.5052 75.5246 55.4311 75.6472 55.297C75.7698 55.163 75.8311 55.0038 75.8311 54.8177V52.0602C75.9568 52.1974 76.1077 52.3267 76.2869 52.4465C76.507 52.5916 76.76 52.7035 77.0477 52.7792C77.3353 52.8549 77.6387 52.8801 77.9594 52.8517C78.5331 52.8012 79.0486 52.6073 79.5045 52.2699C79.9603 51.9325 80.3234 51.4927 80.5937 50.9471C80.8641 50.4016 80.9993 49.7915 80.9993 49.1135C80.9993 48.4356 80.8641 47.8522 80.5937 47.3635V47.3635ZM79.5233 50.419C79.3504 50.7863 79.1162 51.0827 78.8207 51.3066C78.5252 51.5321 78.1794 51.6614 77.7817 51.6976C77.3762 51.7339 77.0241 51.6645 76.7239 51.4927C76.4237 51.3208 76.1895 51.0654 76.0213 50.728C75.8515 50.3922 75.7682 50.0075 75.7682 49.5755C75.7682 49.1435 75.8531 48.7383 76.0213 48.3836C76.1895 48.0304 76.4252 47.7403 76.7239 47.5148C77.0241 47.2894 77.3762 47.1585 77.7817 47.1223C78.1794 47.0876 78.5252 47.1569 78.8207 47.3288C79.1162 47.5022 79.3504 47.7529 79.5233 48.0793C79.6962 48.4072 79.7827 48.7872 79.7827 49.2192C79.7827 49.6512 79.6962 50.0516 79.5233 50.4174V50.419Z" fill="url(#paint9_linear_6_474)"/>
<path d="M30.7418 36.7322L20.025 37.6782L17.9471 42.8652C17.7789 43.3319 17.5101 43.7261 17.1565 44.0241C16.7918 44.3299 16.3737 44.5065 15.9147 44.5475C15.866 44.5522 15.8204 44.5522 15.7733 44.5538C15.9446 44.5869 16.1348 44.5932 16.347 44.5759C16.7148 44.5428 17.048 44.4024 17.3419 44.1549C17.6374 43.9074 17.8575 43.5794 18.0052 43.1727L20.1854 37.7302L30.77 36.7952L30.7418 36.7322V36.7322Z" fill="#DCCCBB" stroke="#ED705B" stroke-miterlimit="10"/>
<path d="M25.3457 24.4014L21.8719 33.0696L22.059 33.0523L25.44 24.6174L25.3457 24.4014Z" fill="#DCCCBB" stroke="#ED705B" stroke-miterlimit="10"/>
<path d="M37.1013 40.5947C37.0715 41.1938 36.853 41.711 36.4459 42.1272C36.0152 42.5687 35.5169 42.8162 34.9684 42.8651C34.9589 42.8651 34.9495 42.8651 34.9401 42.8651C35.0878 42.8966 35.2419 42.9061 35.4006 42.8919C35.8423 42.8524 36.2415 42.6506 36.5983 42.2864C36.9536 41.9222 37.1328 41.4698 37.1328 40.9274C37.1328 40.8155 37.1218 40.7051 37.1013 40.5947V40.5947Z" fill="#DCCCBB" stroke="#ED705B" stroke-miterlimit="10"/>
<path d="M36.5135 39.7292L27.2617 18.18C27.1139 17.7984 26.8797 17.5115 26.5607 17.3176C26.2416 17.1236 25.8974 17.0432 25.528 17.0763C25.135 17.0874 24.7719 17.2167 24.4403 17.4673C24.1086 17.718 23.8556 18.0617 23.6842 18.4953L14.3224 42.0216C14.2486 42.2503 14.2124 42.4505 14.2124 42.6223C14.236 43.089 14.3837 43.4643 14.6541 43.748C14.9244 44.0334 15.33 44.1501 15.8707 44.1028C16.2385 44.0697 16.5717 43.9294 16.8656 43.6818C17.1596 43.4343 17.3812 43.1064 17.529 42.6996L19.7091 37.2571L31.0168 36.2591L33.2299 41.3137C33.3777 41.6701 33.604 41.9523 33.9121 42.1588C34.2186 42.3653 34.5565 42.4536 34.9259 42.4205C35.3676 42.3811 35.7668 42.1793 36.1237 41.8151C36.4789 41.4509 36.6581 40.9984 36.6581 40.4561C36.6581 40.2101 36.6078 39.9673 36.5103 39.7292H36.5135ZM21.1866 33.5773L25.3252 23.2472L29.5236 32.841L21.185 33.5773H21.1866Z" fill="#DCCCBB" stroke="#BAAFA6" stroke-miterlimit="10"/>
<path d="M48.5584 25.0951C48.7753 25.0762 48.9843 25.0715 49.1902 25.0746C49.0126 25.0557 48.8334 25.0447 48.648 25.0447C48.4782 25.0447 48.3021 25.0526 48.1261 25.0683C47.0856 25.1598 46.1456 25.5192 45.333 26.1341C44.5109 26.7569 43.8617 27.5704 43.4043 28.5527C42.9422 29.5412 42.7096 30.6559 42.7096 31.8667C42.7096 32.1174 42.7222 32.3586 42.7426 32.5967C42.741 32.5116 42.7363 32.4264 42.7363 32.3397C42.7363 31.0579 42.9815 29.8912 43.4735 28.8365C43.9639 27.7833 44.6524 26.9209 45.5373 26.2508C46.4222 25.5807 47.4298 25.196 48.5599 25.0967L48.5584 25.0951Z" fill="#DCCCBB" stroke="#ED705B" stroke-miterlimit="10"/>
<path d="M53.3446 39.1128C53.178 39.291 53.0003 39.4675 52.8133 39.6425C52.1689 40.2417 51.4018 40.7604 50.5294 41.1845C49.6492 41.6133 48.6904 41.875 47.6829 41.9649C47.3984 41.9901 47.1123 42.0027 46.8356 42.0027C46.7398 42.0027 46.6439 41.998 46.548 41.9949C47.0541 42.0406 47.576 42.0406 48.1151 41.9949C49.0739 41.9097 49.9699 41.6653 50.8061 41.2586C51.6407 40.8518 52.3669 40.3631 52.9799 39.7907C53.1277 39.6536 53.2644 39.5164 53.3964 39.3777C53.3744 39.2925 53.3556 39.2058 53.3414 39.1144L53.3446 39.1128Z" fill="#DCCCBB" stroke="#ED705B" stroke-miterlimit="10"/>
<path d="M57.895 14.9417V38.3986C57.895 39.0545 57.675 39.6252 57.2427 40.0982C56.8105 40.5696 56.2729 40.8377 55.6457 40.8928C55.6064 40.896 55.5687 40.896 55.5294 40.8976C55.6992 40.9291 55.8815 40.937 56.078 40.9196C56.5935 40.8739 57.0305 40.6564 57.3857 40.2685C57.741 39.8807 57.9202 39.414 57.9202 38.8716V15.2854C57.9202 15.164 57.9107 15.0504 57.8934 14.9417H57.895Z" fill="#DCCCBB" stroke="#ED705B" stroke-miterlimit="10"/>
<path d="M53.7627 37.8893V38.7249C53.7627 39.2673 53.934 39.7024 54.2782 40.0288C54.6224 40.3567 55.0641 40.4955 55.6048 40.4482C56.1455 40.4009 56.5574 40.1849 56.9126 39.797C57.2678 39.4092 57.447 38.9425 57.447 38.4001V14.8123C57.447 14.2463 57.2678 13.8064 56.9126 13.4911C56.5558 13.1773 56.1204 13.0433 55.6048 13.089C55.0893 13.1348 54.6224 13.3555 54.2782 13.7418C53.934 14.1296 53.7627 14.5947 53.7627 15.1371V23.5263C53.4766 23.222 53.1449 22.9319 52.7677 22.656C52.1044 22.172 51.3232 21.7983 50.4272 21.5319C49.5297 21.267 48.5662 21.1787 47.5335 21.2701C45.8862 21.4152 44.3946 21.9859 43.0554 22.9776C41.7162 23.9709 40.6536 25.2606 39.8677 26.8451C39.0818 28.4296 38.6888 30.2096 38.6888 32.1804C38.6888 34.1511 39.0818 35.8618 39.8677 37.3075C40.6536 38.7533 41.7288 39.8554 43.0931 40.609C44.4574 41.3642 45.9743 41.6669 47.6451 41.5203C48.6039 41.4351 49.4999 41.1908 50.3361 40.784C51.1707 40.3772 51.8969 39.8885 52.5099 39.3161C53.016 38.8447 53.4326 38.3702 53.7627 37.8893ZM51.1267 36.9244C50.2543 37.5929 49.2405 37.9776 48.0868 38.0801C46.9331 38.1826 45.9491 37.9729 45.0642 37.4589C44.1792 36.9449 43.4908 36.2055 43.0004 35.2374C42.5084 34.271 42.2632 33.1468 42.2632 31.865C42.2632 30.5832 42.5084 29.4165 43.0004 28.3618C43.4908 27.3086 44.1792 26.4462 45.0642 25.7761C45.9491 25.1061 46.9566 24.7214 48.0868 24.622C49.2169 24.5227 50.2543 24.7261 51.1267 25.2401C51.9991 25.754 52.6812 26.4951 53.1716 27.4631C53.6621 28.4312 53.9088 29.5553 53.9088 30.8355C53.9088 32.1157 53.6636 33.2856 53.1716 34.3388C52.6797 35.3935 51.9975 36.2543 51.1267 36.9228V36.9244Z" fill="#DCCCBB" stroke="#BAAFA6" stroke-miterlimit="10"/>
<path d="M71.6673 23.055C71.8937 23.0345 72.1153 23.0297 72.3338 23.0329C72.1499 23.014 71.9644 23.0029 71.7742 23.0029C71.5982 23.0029 71.4174 23.0108 71.2351 23.0266C70.1914 23.118 69.2294 23.4743 68.3775 24.0861C67.5161 24.7025 66.8183 25.5129 66.3011 26.4936C65.7856 27.4711 65.5231 28.6125 65.5231 29.888C65.5231 30.123 65.5356 30.3516 65.5545 30.5754C65.5529 30.5045 65.5482 30.4335 65.5482 30.3626C65.5482 29.0067 65.8249 27.8053 66.3781 26.7584C66.9314 25.7116 67.6686 24.8586 68.5897 24.1964C69.5108 23.5358 70.5372 23.1559 71.6673 23.0565V23.055Z" fill="#DCCCBB" stroke="#ED705B" stroke-miterlimit="10"/>
<path d="M81.4378 28.0181C81.4425 28.171 81.4472 28.3255 81.4472 28.4816C81.4472 30.5202 80.9883 32.3916 80.0845 34.0439C79.1807 35.6931 77.9499 37.0505 76.4221 38.0785C74.8927 39.1096 73.148 39.7166 71.2367 39.8853C70.8971 39.9153 70.5592 39.931 70.2307 39.931C70.1097 39.931 69.9886 39.9263 69.8692 39.9216C70.4492 39.9704 71.0496 39.9689 71.6689 39.9137C73.5111 39.7513 75.1709 39.1742 76.6453 38.181C78.1197 37.1877 79.2923 35.8949 80.1646 34.3025C81.037 32.7101 81.4724 30.9285 81.4724 28.9562C81.4724 28.6361 81.4598 28.3255 81.4378 28.0196V28.0181Z" fill="#DCCCBB" stroke="#ED705B" stroke-miterlimit="10"/>
<path d="M76.1722 20.0547C74.6978 19.3105 73.0395 19.0189 71.1958 19.1813C69.352 19.3437 67.7252 19.9254 66.2382 20.9313C64.7513 21.9372 63.5724 23.2363 62.7001 24.8303C61.8277 26.4227 61.3923 28.2169 61.3923 30.2145C61.3923 32.212 61.8277 33.8911 62.7001 35.3306C63.5724 36.7701 64.7513 37.8548 66.2382 38.5863C67.7252 39.3179 69.3772 39.6032 71.1958 39.4424C73.0144 39.2816 74.6978 38.703 76.1722 37.7097C77.6466 36.7164 78.8191 35.4236 79.6915 33.8312C80.5639 32.2388 80.9993 30.4573 80.9993 28.4849C80.9993 26.5126 80.5623 24.7704 79.6915 23.3325C78.8191 21.8931 77.6466 20.802 76.1722 20.0579V20.0547ZM76.5038 32.3539C75.9631 33.4118 75.2322 34.2648 74.3111 34.9128C73.39 35.5608 72.3511 35.936 71.1974 36.0385C70.0436 36.141 69.0408 35.9455 68.1197 35.4599C67.1986 34.9743 66.4614 34.2506 65.9082 33.2889C65.3549 32.3271 65.0782 31.1935 65.0782 29.8865C65.0782 28.5795 65.3549 27.3292 65.9082 26.2824C66.4614 25.2355 67.1986 24.3825 68.1197 23.7204C69.0408 23.0598 70.0672 22.6798 71.1974 22.5805C72.3275 22.4811 73.39 22.6766 74.3111 23.1748C75.2322 23.6731 75.9631 24.3967 76.5038 25.3474C77.0445 26.2981 77.3149 27.4506 77.3149 28.8065C77.3149 30.1624 77.0445 31.2944 76.5038 32.3539V32.3539Z" fill="#DCCCBB" stroke="#BAAFA6" stroke-miterlimit="10"/>
<path d="M88.9527 28.2579C88.9527 26.9761 89.1979 25.8204 89.6899 24.7909C90.1803 23.7614 90.8625 22.9194 91.7348 22.262C92.6072 21.6061 93.6336 21.2262 94.8125 21.1221C95.0341 21.1032 95.2478 21.0984 95.4585 21.1C95.2809 21.0811 95.0985 21.0701 94.9115 21.0701C94.7401 21.0701 94.561 21.078 94.3802 21.0937C93.2909 21.1899 92.3321 21.5446 91.5305 22.1469C90.721 22.7571 90.0765 23.5517 89.6191 24.5103C89.1586 25.4736 88.926 26.5741 88.926 27.7833C88.926 28.0277 88.9385 28.2642 88.9574 28.4975C88.9558 28.4171 88.9511 28.3383 88.9511 28.2563L88.9527 28.2579Z" fill="#DCCCBB" stroke="#ED705B" stroke-miterlimit="10"/>
<path d="M89.1114 36.0433V43.0372C89.1114 43.6915 88.893 44.2638 88.4591 44.7352C88.0253 45.2067 87.4877 45.4747 86.8606 45.5299C86.8213 45.533 86.7836 45.533 86.7458 45.5346C86.9156 45.5661 87.0979 45.574 87.2928 45.5567C87.8084 45.5109 88.2454 45.2934 88.6006 44.9055C88.9558 44.5161 89.135 44.051 89.135 43.5086V36.0622C89.1272 36.0559 89.1177 36.0496 89.1083 36.0417L89.1114 36.0433Z" fill="#DCCCBB" stroke="#ED705B" stroke-miterlimit="10"/>
<path d="M104.138 25.8976C104.144 26.0773 104.149 26.257 104.149 26.4399C104.149 28.4722 103.737 30.3342 102.923 31.9739C102.107 33.6167 100.996 34.9647 99.6191 35.9816C98.2328 37.0064 96.6436 37.604 94.8973 37.7585C94.6333 37.7821 94.3676 37.7932 94.1099 37.7932C94.0297 37.7932 93.9511 37.7885 93.8709 37.7853C94.3425 37.8279 94.8282 37.8294 95.3296 37.7853C97.0004 37.6371 98.5 37.0742 99.8266 36.0936C101.153 35.1145 102.209 33.8311 102.997 32.2466C103.783 30.6621 104.176 28.8837 104.176 26.9113C104.176 26.5645 104.163 26.2255 104.138 25.896V25.8976Z" fill="#DCCCBB" stroke="#ED705B" stroke-miterlimit="10"/>
<path d="M99.3362 18.1012C97.997 17.357 96.4676 17.0606 94.748 17.212C93.9118 17.2861 93.1086 17.4926 92.3337 17.8316C91.5604 18.1721 90.8719 18.5899 90.2699 19.0866C89.6679 19.5832 89.1696 20.1019 88.7767 20.6411C88.7374 20.6947 88.7012 20.7467 88.6666 20.8003V19.8938C88.6666 19.3767 88.4874 18.9478 88.1322 18.6104C87.7754 18.2714 87.34 18.1264 86.8245 18.1721C86.3089 18.2178 85.8421 18.4433 85.4978 18.8438C85.1536 19.2442 84.9823 19.703 84.9823 20.2202V43.3634C84.9823 43.9057 85.1536 44.3393 85.4978 44.6672C85.8421 44.9936 86.2837 45.1339 86.8245 45.0866C87.3652 45.0393 87.777 44.8233 88.1322 44.4355C88.4874 44.0461 88.6666 43.581 88.6666 43.0386V35.0199C89.0313 35.4204 89.473 35.7924 89.9933 36.1377C90.6314 36.5618 91.3686 36.885 92.2048 37.1073C93.0394 37.3296 93.9244 37.399 94.8581 37.317C96.5289 37.1688 98.0284 36.606 99.355 35.6253C100.682 34.6462 101.738 33.3629 102.525 31.7784C103.311 30.1939 103.704 28.4154 103.704 26.4431C103.704 24.4707 103.311 22.7743 102.525 21.3537C101.74 19.9316 100.677 18.8501 99.3378 18.1043L99.3362 18.1012ZM99.4101 30.2396C98.9055 31.307 98.2249 32.1678 97.3651 32.8237C96.5053 33.4795 95.4978 33.8579 94.3425 33.9588C93.1872 34.0597 92.1372 33.8642 91.2649 33.3613C90.3925 32.8599 89.7103 32.1189 89.2199 31.1383C88.7279 30.1592 88.4827 29.0413 88.4827 27.7832C88.4827 26.5251 88.7279 25.3457 89.2199 24.3162C89.7103 23.2867 90.3925 22.4448 91.2649 21.7873C92.1372 21.1314 93.1636 20.7515 94.3425 20.6474C95.5214 20.5434 96.5038 20.7467 97.3651 21.2497C98.2249 21.7526 98.9071 22.481 99.4101 23.4349C99.913 24.3887 100.166 25.4939 100.166 26.7505C100.166 28.0071 99.913 29.1706 99.4101 30.2364V30.2396Z" fill="#DCCCBB" stroke="#BAAFA6" stroke-miterlimit="10"/>
<path d="M118.259 17.5872C118.233 18.1232 118.027 18.5993 117.645 19.003C117.238 19.4318 116.727 19.6762 116.126 19.7298L113.585 19.9537V30.3767C113.585 30.5139 113.596 30.6369 113.612 30.7488V20.0167L116.56 19.7566C117.051 19.7124 117.462 19.5169 117.794 19.1669C118.126 18.8169 118.292 18.4086 118.292 17.9403C118.292 17.8173 118.281 17.6991 118.261 17.5872H118.259Z" fill="#DCCCBB" stroke="#ED705B" stroke-miterlimit="10"/>
<path d="M113.585 15.6558H113.612V13.696C113.612 13.5778 113.602 13.4659 113.585 13.3586V15.6558Z" fill="#DCCCBB" stroke="#ED705B" stroke-miterlimit="10"/>
<path d="M116.703 34.8921C116.004 35.3588 115.24 35.63 114.432 35.7025C114.166 35.7262 113.871 35.7372 113.553 35.7372C113.423 35.7372 113.285 35.7341 113.143 35.7309C113.225 35.7388 113.307 35.7467 113.39 35.7498C113.954 35.7735 114.446 35.7672 114.864 35.7309C115.601 35.6663 116.288 35.4203 116.928 34.9946C117.566 34.5689 117.887 34.0597 117.887 33.4684C117.887 33.3376 117.876 33.2178 117.857 33.1042C117.821 33.8043 117.434 34.4065 116.703 34.8937V34.8921Z" fill="#DCCCBB" stroke="#ED705B" stroke-miterlimit="10"/>
<path d="M109.008 20.3573L107.466 20.4929C107.437 20.496 107.409 20.4945 107.381 20.496C107.543 20.5276 107.714 20.537 107.898 20.5197L109.008 20.4219V20.3557V20.3573Z" fill="#DCCCBB" stroke="#ED705B" stroke-miterlimit="10"/>
<path d="M116.087 19.2837C116.578 19.2395 116.989 19.044 117.321 18.694C117.653 18.344 117.819 17.9357 117.819 17.4674C117.819 16.9739 117.653 16.5766 117.321 16.2723C116.989 15.9681 116.578 15.8388 116.087 15.8829L113.138 16.1431V13.2232C113.138 12.6808 112.965 12.2472 112.623 11.9193C112.279 11.5929 111.837 11.4526 111.296 11.4999C110.756 11.5472 110.344 11.7632 109.988 12.1511C109.632 12.5405 109.454 13.0056 109.454 13.5479V16.4678L107.426 16.6476C106.934 16.6917 106.523 16.8872 106.191 17.2372C105.859 17.5872 105.693 18.0082 105.693 18.5017C105.693 18.9952 105.858 19.3562 106.191 19.6589C106.524 19.9616 106.934 20.0925 107.426 20.0484L109.454 19.8686V30.8482C109.454 32.0307 109.625 32.9341 109.97 33.5568C110.314 34.1796 110.749 34.6163 111.277 34.8654C111.805 35.1146 112.352 35.2517 112.917 35.2754C113.481 35.299 113.973 35.2927 114.391 35.2564C115.128 35.1918 115.815 34.9459 116.455 34.5202C117.093 34.0945 117.414 33.5852 117.414 32.994C117.414 32.5257 117.291 32.1678 117.044 31.9172C116.799 31.6681 116.529 31.5561 116.233 31.5813C115.938 31.6066 115.686 31.6791 115.477 31.7958C115.268 31.9124 115.029 31.9834 114.759 32.007C114.489 32.0307 114.225 32.0055 113.967 31.9298C113.709 31.8541 113.506 31.687 113.358 31.4284C113.211 31.1698 113.137 30.8198 113.137 30.3752V19.5438L116.086 19.2837H116.087Z" fill="#DCCCBB" stroke="#BAAFA6" stroke-miterlimit="10"/>
<path d="M122.524 34.5753C122.406 34.5863 122.266 34.6131 122.11 34.6588C121.98 34.6967 121.862 34.755 121.757 34.8338C121.757 34.8338 121.755 34.8338 121.754 34.8354C121.82 34.8764 121.887 34.9142 121.961 34.9489C122.109 34.837 122.274 34.755 122.459 34.7014C122.629 34.6525 122.783 34.6226 122.921 34.6068C122.844 34.5816 122.755 34.5674 122.651 34.5674C122.61 34.5674 122.568 34.569 122.525 34.5737L122.524 34.5753Z" fill="#DCCCBB" stroke="#ED705B" stroke-miterlimit="10"/>
<path d="M127.239 33.7051C127.239 33.7335 127.242 33.7587 127.242 33.7871C127.242 34.2916 127.118 34.856 126.862 35.515C126.617 36.1425 126.293 36.7637 125.897 37.3628C125.491 37.9746 125.028 38.4949 124.515 38.9079C123.968 39.3494 123.385 39.6016 122.782 39.6552C122.745 39.6584 122.711 39.6584 122.675 39.66C122.843 39.6915 123.022 39.6994 123.214 39.6836C123.729 39.6379 124.228 39.4219 124.707 39.0341C125.186 38.6462 125.616 38.1653 125.997 37.5899C126.378 37.0144 126.686 36.4263 126.919 35.8272C127.151 35.2265 127.269 34.7062 127.269 34.2616C127.269 34.0661 127.258 33.8848 127.241 33.7067L127.239 33.7051Z" fill="#DCCCBB" stroke="#ED705B" stroke-miterlimit="10"/>
<path d="M125.968 31.3258C125.414 30.7961 124.671 30.5722 123.737 30.6542C123.319 30.6904 122.871 30.8355 122.392 31.0877C121.912 31.34 121.513 31.6585 121.194 32.0432C120.875 32.4295 120.715 32.8567 120.715 33.3234C120.715 33.6687 120.788 33.9209 120.936 34.0802C121.084 34.2394 121.268 34.3719 121.49 34.4743C121.637 34.3624 121.802 34.2804 121.988 34.2268C122.172 34.1732 122.338 34.1401 122.486 34.1275C122.854 34.0944 123.149 34.1685 123.371 34.345C123.593 34.5232 123.703 34.7471 123.703 35.0183C123.703 35.3635 123.61 35.6789 123.426 35.9674C123.242 36.2543 122.989 36.4987 122.67 36.6989C122.4 36.8456 122.099 36.9827 121.766 37.112C121.434 37.2397 121.268 37.5629 121.268 38.0801C121.268 38.5231 121.416 38.8305 121.71 39.0024C122.005 39.1727 122.348 39.242 122.742 39.2073C123.258 39.1616 123.756 38.9456 124.235 38.5578C124.715 38.1699 125.144 37.6891 125.526 37.1136C125.906 36.5381 126.214 35.95 126.447 35.3509C126.68 34.7502 126.798 34.23 126.798 33.7853C126.798 32.677 126.521 31.8571 125.968 31.3258V31.3258Z" fill="#DCCCBB" stroke="#BAAFA6" stroke-miterlimit="10"/>
<path d="M71.1927 33.2038C71.1927 33.2038 70.9868 33.1801 70.4351 33.4907C70.4351 33.4907 70.2402 33.609 70.0091 33.3993C70.0091 33.3993 69.734 33.1517 70.1679 32.7339C70.1679 32.7339 70.531 32.22 70.6253 31.9109L70.5718 26.9572C70.5718 26.9572 70.5734 26.6718 70.2732 26.3328C70.2732 26.3328 69.5737 25.7479 69.9117 25.3002C69.9117 25.3002 70.2182 24.9927 70.9019 25.5051C70.9019 25.5051 71.1393 25.6628 71.4143 25.5729C71.4143 25.5729 71.3907 25.5682 71.287 25.4436C71.287 25.4436 71.614 25.3616 71.8985 25.163C71.8985 25.163 72.3087 24.9312 72.4973 25.2229C72.4973 25.2229 72.7111 25.5855 72.1782 26.0853C72.1782 26.0853 71.7979 26.4038 71.7806 27.2284C71.7648 28.0529 71.8089 31.6949 71.8089 31.6949C71.8089 31.6949 71.7868 31.9803 72.0179 32.2846C72.0179 32.2846 72.7488 33.0587 72.513 33.3709C72.513 33.3709 72.2505 33.7414 71.7114 33.311C71.7114 33.311 71.3059 33.0571 70.9726 33.0193C70.9726 33.0193 71.1235 33.0461 71.1911 33.2053L71.1927 33.2038Z" fill="#DCCCBB"/>
<path d="M71.5794 25.5951C71.5794 25.5951 71.2241 25.8395 70.7777 25.8694C70.7777 25.8694 70.3942 25.8742 70.5357 26.3314C70.5357 26.3314 70.63 26.5379 70.6017 28.8697C70.6017 28.8697 70.5467 26.7823 70.0735 26.0886C70.0735 26.0886 69.6224 25.5919 69.9195 25.294C69.9195 25.294 70.1914 24.9597 70.8752 25.4784C70.8752 25.4784 71.3703 25.5163 71.5778 25.5967L71.5794 25.5951Z" fill="#BFB2A5"/>
<path d="M71.7664 25.2733C71.7664 25.2733 72.3291 25.1929 72.4643 25.6312C72.4643 25.6312 72.6372 25.4136 72.4344 25.1456C72.4344 25.1456 72.1782 24.9327 71.7664 25.2717V25.2733Z" fill="#BFB2A5"/>
<path d="M70.8249 32.9831C70.8249 32.9831 71.0607 32.7498 71.5573 32.8397C71.5573 32.8397 72.1405 32.9138 71.6894 32.2595C71.6894 32.2595 71.1188 31.3734 71.7538 28.6064C71.7538 28.6064 71.8403 31.6761 71.9126 32.116C71.9126 32.116 72.8478 32.9453 72.5114 33.3694C72.5114 33.3694 72.2615 33.8739 71.3216 33.1865C71.3216 33.1865 70.9632 33.0178 70.8233 32.9831H70.8249Z" fill="#BFB2A5"/>
<defs>
<linearGradient id="paint0_linear_6_474" x1="3.7739" y1="51.1615" x2="119.33" y2="69.3184" gradientUnits="userSpaceOnUse">
<stop stop-color="#F18F6B"/>
<stop offset="1" stop-color="#ED705B"/>
</linearGradient>
<linearGradient id="paint1_linear_6_474" x1="3.83679" y1="50.7611" x2="119.392" y2="68.9195" gradientUnits="userSpaceOnUse">
<stop stop-color="#F18F6B"/>
<stop offset="1" stop-color="#ED705B"/>
</linearGradient>
<linearGradient id="paint2_linear_6_474" x1="4.10866" y1="49.0316" x2="119.664" y2="67.19" gradientUnits="userSpaceOnUse">
<stop stop-color="#F18F6B"/>
<stop offset="1" stop-color="#ED705B"/>
</linearGradient>
<linearGradient id="paint3_linear_6_474" x1="4.47964" y1="46.6792" x2="120.034" y2="64.836" gradientUnits="userSpaceOnUse">
<stop stop-color="#F18F6B"/>
<stop offset="1" stop-color="#ED705B"/>
</linearGradient>
<linearGradient id="paint4_linear_6_474" x1="5.1461" y1="42.4303" x2="120.702" y2="60.5872" gradientUnits="userSpaceOnUse">
<stop stop-color="#F18F6B"/>
<stop offset="1" stop-color="#ED705B"/>
</linearGradient>
<linearGradient id="paint5_linear_6_474" x1="4.78304" y1="44.7478" x2="120.337" y2="62.9047" gradientUnits="userSpaceOnUse">
<stop stop-color="#F18F6B"/>
<stop offset="1" stop-color="#ED705B"/>
</linearGradient>
<linearGradient id="paint6_linear_6_474" x1="5.00147" y1="43.3526" x2="120.556" y2="61.511" gradientUnits="userSpaceOnUse">
<stop stop-color="#F18F6B"/>
<stop offset="1" stop-color="#ED705B"/>
</linearGradient>
<linearGradient id="paint7_linear_6_474" x1="5.37877" y1="40.9497" x2="120.934" y2="59.1082" gradientUnits="userSpaceOnUse">
<stop stop-color="#F18F6B"/>
<stop offset="1" stop-color="#ED705B"/>
</linearGradient>
<linearGradient id="paint8_linear_6_474" x1="5.53906" y1="39.9376" x2="121.093" y2="58.0945" gradientUnits="userSpaceOnUse">
<stop stop-color="#F18F6B"/>
<stop offset="1" stop-color="#ED705B"/>
</linearGradient>
<linearGradient id="paint9_linear_6_474" x1="5.60979" y1="39.4788" x2="121.165" y2="57.6357" gradientUnits="userSpaceOnUse">
<stop stop-color="#F18F6B"/>
<stop offset="1" stop-color="#ED705B"/>
</linearGradient>
</defs>
</svg>
