<svg width="59" height="59" viewBox="0 0 59 59" fill="none" xmlns="http://www.w3.org/2000/svg">
<path d="M29.282 26.564C29.6511 26.5518 30.0191 26.6124 30.3648 26.7424C30.7105 26.8724 31.0272 27.0692 31.2969 27.3216C31.5666 27.574 31.7839 27.877 31.9364 28.2134C32.0889 28.5497 32.1737 28.9129 32.186 29.282C32.1982 29.6511 32.1376 30.0191 32.0076 30.3648C31.8776 30.7105 31.6808 31.0272 31.4284 31.2969C31.176 31.5666 30.873 31.7839 30.5366 31.9364C30.2003 32.0889 29.8371 32.1737 29.468 32.186C29.0989 32.1982 28.7309 32.1376 28.3852 32.0076C28.0395 31.8776 27.7228 31.6808 27.4531 31.4284C27.1834 31.176 26.9661 30.873 26.8136 30.5366C26.661 30.2003 26.5763 29.8371 26.564 29.468C26.5518 29.0989 26.6124 28.7309 26.7424 28.3852C26.8724 28.0395 27.0692 27.7228 27.3216 27.4531C27.574 27.1834 27.877 26.9661 28.2134 26.8136C28.5497 26.6611 28.9129 26.5763 29.282 26.564Z" fill="white"/>
<path fill-rule="evenodd" clip-rule="evenodd" d="M30.8102 20H27.9398C26.7292 20 25.7625 20 24.9822 20.0648C24.1817 20.1313 23.4938 20.2707 22.8636 20.5981C21.8933 21.1021 21.1021 21.8933 20.5981 22.8636C20.2707 23.4938 20.1313 24.1817 20.0648 24.9822C20 25.7625 20 26.7292 20 27.9398V30.8102C20 32.0208 20 32.9875 20.0648 33.7678C20.1313 34.5683 20.2707 35.2562 20.5981 35.8864C21.1021 36.8567 21.8933 37.6479 22.8636 38.1519C23.4938 38.4793 24.1817 38.6187 24.9822 38.6852C25.7625 38.75 26.7291 38.75 27.9397 38.75H30.8102C32.0208 38.75 32.9875 38.75 33.7678 38.6852C34.5683 38.6187 35.2562 38.4793 35.8864 38.1519C36.8567 37.6479 37.6479 36.8567 38.1519 35.8864C38.4793 35.2562 38.6187 34.5683 38.6852 33.7678C38.75 32.9875 38.75 32.0209 38.75 30.8103V27.9398C38.75 26.7292 38.75 25.7625 38.6852 24.9822C38.6187 24.1817 38.4793 23.4938 38.1519 22.8636C37.6479 21.8933 36.8567 21.1021 35.8864 20.5981C35.2562 20.2707 34.5683 20.1313 33.7678 20.0648C32.9875 20 32.0208 20 30.8102 20ZM31.0247 24.9874C30.4485 24.7707 29.8352 24.6697 29.22 24.6901C28.6048 24.7104 27.9996 24.8518 27.439 25.106C26.8783 25.3602 26.3733 25.7224 25.9527 26.1718C25.532 26.6213 25.204 27.1492 24.9874 27.7253C24.7707 28.3015 24.6697 28.9148 24.6901 29.53C24.7104 30.1452 24.8517 30.7504 25.106 31.311C25.3602 31.8717 25.7224 32.3767 26.1718 32.7973C26.6213 33.218 27.1492 33.546 27.7253 33.7626C28.3015 33.9793 28.9148 34.0803 29.53 34.0599C30.1452 34.0396 30.7504 33.8983 31.311 33.644C31.8717 33.3898 32.3767 33.0276 32.7973 32.5782C33.218 32.1287 33.546 31.6008 33.7626 31.0247C33.9793 30.4485 34.0803 29.8352 34.0599 29.22C34.0396 28.6048 33.8982 27.9996 33.644 27.439C33.3898 26.8783 33.0276 26.3733 32.5782 25.9527C32.1287 25.532 31.6008 25.204 31.0247 24.9874ZM34.0625 23.75C34.5803 23.75 35 24.1697 35 24.6875C35 25.2053 34.5803 25.625 34.0625 25.625H34.05C33.5322 25.625 33.1125 25.2053 33.1125 24.6875C33.1125 24.1697 33.5322 23.75 34.05 23.75H34.0625Z" fill="white"/>
<rect x="0.5" y="0.5" width="57.75" height="57.75" rx="28.875" stroke="#8C97CA"/>
</svg>
