<svg width="59" height="58" viewBox="0 0 59 58" fill="none" xmlns="http://www.w3.org/2000/svg">
<path d="M20.75 29.0087C20.75 24.0333 24.7794 20 29.75 20C34.7206 20 38.75 24.0333 38.75 29.0087C38.75 33.7949 35.021 37.7094 30.3125 38V31.5423H32.2812C32.7472 31.5423 33.125 31.1642 33.125 30.6978C33.125 30.2313 32.7472 29.8532 32.2812 29.8532H30.3125V27.6011C30.3125 27.4532 30.3416 27.3067 30.3981 27.1701C30.4547 27.0335 30.5375 26.9094 30.642 26.8048C30.7465 26.7002 30.8705 26.6173 31.007 26.5607C31.1435 26.5041 31.2898 26.475 31.4375 26.475H32.2812C32.7472 26.475 33.125 26.0968 33.125 25.6304C33.125 25.164 32.7472 24.7858 32.2812 24.7858H31.4375C31.0682 24.7858 30.7024 24.8587 30.3612 25.0001C30.02 25.1416 29.7099 25.349 29.4488 25.6104C29.1876 25.8718 28.9804 26.1822 28.8391 26.5237C28.6977 26.8653 28.625 27.2314 28.625 27.6011V29.8532H27.2188C26.7528 29.8532 26.375 30.2313 26.375 30.6978C26.375 31.1642 26.7528 31.5423 27.2188 31.5423H28.625V37.9476C24.1854 37.3935 20.75 33.6026 20.75 29.0087Z" fill="white"/>
<rect x="1.25" y="0.5" width="57" height="57" rx="28.5" stroke="#8C97CA"/>
</svg>
