<svg width="58" height="56" viewBox="0 0 58 56" fill="none" xmlns="http://www.w3.org/2000/svg">
<path fill-rule="evenodd" clip-rule="evenodd" d="M21.9567 20C21.2902 20 20.75 20.5085 20.75 21.1357V34.8643C20.75 35.4915 21.2902 36 21.9567 36H36.5433C37.2098 36 37.75 35.4915 37.75 34.8643V21.1357C37.75 20.5085 37.2098 20 36.5433 20H21.9567ZM24.5657 24.9688C25.3802 24.9688 26.0405 24.3474 26.0405 23.5808C26.0405 22.8142 25.3802 22.1928 24.5657 22.1928C23.7512 22.1928 23.091 22.8142 23.091 23.5808C23.091 24.3474 23.7512 24.9688 24.5657 24.9688ZM27.3911 25.9946H29.8352V27.0484C29.8352 27.0484 30.4985 25.7999 32.3031 25.7999C33.9128 25.7999 35.2464 26.5463 35.2464 28.8213V33.6186H32.7136V29.4026C32.7136 28.0606 31.9523 27.913 31.3722 27.913C30.1683 27.913 29.9622 28.8903 29.9622 29.5777V33.6186H27.3911V25.9946ZM25.8513 25.9946H23.2801V33.6186H25.8513V25.9946Z" fill="white"/>
<rect x="1.25" y="0.5" width="56" height="55" rx="27.5" stroke="#8C97CA"/>
</svg>
