<svg width="270" height="140" viewBox="0 0 270 140" fill="none" xmlns="http://www.w3.org/2000/svg">
<path d="M32.1401 129.172C28.585 129.172 25.2237 128.308 22.1422 126.601C18.6548 124.672 15.7917 121.77 13.8573 118.211C12.0767 114.937 11.1757 111.273 11.1757 107.322C11.1757 103.575 11.9875 100.037 13.5898 96.8057C14.1556 95.6636 14.8168 94.5679 15.5641 93.5339C13.639 90.7003 12.5319 87.3513 12.3474 83.777C12.332 83.5085 12.3258 83.2369 12.3258 82.9683C12.3258 81.0052 12.6518 78.9989 13.2945 77.005C13.3991 76.6778 13.519 76.3475 13.6451 76.0265L31.9648 29.9679C33.3333 26.5047 35.5936 23.5107 38.4967 21.313C41.5936 18.9672 45.2563 17.6245 49.0881 17.4331C49.4664 17.4084 49.8692 17.3961 50.2629 17.3961C53.6765 17.3961 57.0378 18.3375 59.9778 20.1216C63.4406 22.2235 66.0915 25.3441 67.6414 29.1468L70.563 35.9559C71.9407 34.5176 73.4384 33.1965 75.0376 32.0112C79.5152 28.6869 84.5372 26.6251 89.9774 25.8719C90.5833 22.2205 92.1793 18.8622 94.6365 16.0935C97.924 12.3896 102.469 10.1055 107.442 9.66716C108.017 9.61777 108.602 9.58999 109.177 9.58999C113.753 9.58999 118.153 11.2444 121.567 14.2477C124.556 16.8868 126.552 20.2759 127.41 24.1403C130.741 22.7699 134.277 21.9149 137.946 21.5908C139.038 21.4951 140.136 21.4457 141.206 21.4457C146.486 21.4457 151.462 22.6094 155.998 24.8997C156.18 24.9923 156.364 25.0879 156.552 25.1867C159.75 21.9828 163.954 20.0166 168.518 19.6123C169.087 19.5629 169.662 19.5351 170.228 19.5351C171.744 19.5351 173.251 19.7172 174.711 20.0783C177.685 18.8067 180.816 18.0196 184.02 17.7356C185.035 17.6461 186.056 17.5998 187.056 17.5998C191.407 17.5998 195.541 18.4486 199.357 20.1216C199.449 20.0537 199.542 19.9888 199.634 19.9271C200.495 17.2942 201.925 14.8373 203.795 12.7939C207.088 9.1949 211.566 6.97871 216.4 6.55275C216.982 6.50028 217.569 6.47559 218.15 6.47559C222.972 6.47559 227.533 8.28126 230.99 11.5593C232.512 13.01 233.764 14.6737 234.717 16.5164C236.654 17.3343 238.423 18.4671 239.979 19.8931C243.863 23.4489 246.003 28.3598 246.003 33.7181C246.003 37.3851 244.958 40.9192 243.011 43.9627C248.387 44.012 253.402 46.0153 257.157 49.6143C260.082 52.4231 263.566 57.4882 263.566 65.6647C263.566 68.5075 262.997 71.3565 261.823 74.3783C260.965 76.5821 259.848 78.7304 258.501 80.7707C256.878 83.2245 254.956 85.3574 252.79 87.1106C249.469 89.799 245.567 91.4072 241.507 91.7652C240.926 91.8177 240.342 91.8424 239.77 91.8424C236.454 91.8424 233.21 90.9781 230.387 89.3422C228.136 88.0304 226.208 86.2186 224.762 84.0641C223.938 84.1258 223.068 84.1567 222.17 84.1567C221.564 84.1567 220.924 84.1413 220.272 84.1135C217.105 83.9777 214.029 83.2153 211.129 81.8479C209.579 81.1164 208.128 80.1904 206.799 79.0823C205.775 80.0515 204.693 80.9559 203.573 81.7831C199.099 85.0888 194.046 87.1384 188.538 87.8822C187.818 91.2961 186.21 94.4351 183.845 97.0217C180.917 100.21 177.036 102.331 172.823 103.059C172.476 104.136 172.048 105.186 171.553 106.189C169.917 109.489 167.623 112.242 164.735 114.375C163.48 115.304 162.121 116.091 160.691 116.727C160.301 117.273 159.873 117.798 159.421 118.295C156.561 121.415 152.677 123.338 148.485 123.709C147.993 123.752 147.492 123.774 146.994 123.774C143.131 123.774 139.413 122.434 136.458 119.992C136.292 119.995 136.129 119.999 135.972 119.999C134.591 119.999 133.207 119.866 131.848 119.603C130.442 120.125 128.979 120.455 127.493 120.585C126.998 120.628 126.497 120.65 126.002 120.65C125.067 120.65 124.132 120.573 123.215 120.418C121.871 120.897 120.472 121.205 119.045 121.332C118.547 121.375 118.043 121.4 117.548 121.4C116.856 121.4 116.151 121.357 115.453 121.267C113.799 121.832 112.089 122.196 110.364 122.348C109.687 122.406 108.998 122.437 108.319 122.437C106.224 122.437 104.13 122.153 102.094 121.591C101.811 121.514 101.522 121.428 101.236 121.335C98.9973 122.564 96.5125 123.323 94.0092 123.545C93.3879 123.601 92.7421 123.628 92.084 123.628C91.7334 123.628 91.3675 123.619 91.0015 123.604C89.2117 123.53 87.4495 123.19 85.7519 122.594C83.4485 123.9 80.8868 124.706 78.2912 124.934C77.6762 124.99 77.0304 125.017 76.3692 125.017C76.0155 125.017 75.6496 125.008 75.2897 124.993C74.6593 124.965 74.0073 124.903 73.3492 124.801C71.9776 125.301 70.5476 125.616 69.093 125.746C68.5979 125.789 68.0966 125.811 67.6015 125.811C66.6235 125.811 65.6456 125.724 64.6891 125.558C63.3053 126.064 61.8629 126.385 60.3929 126.514C59.8978 126.558 59.3965 126.579 58.9014 126.579C57.9173 126.579 56.9209 126.49 55.9399 126.314C54.0147 127.042 51.982 127.508 49.8877 127.69C49.2173 127.749 48.5407 127.78 47.8795 127.78C46.4987 127.78 45.1148 127.647 43.7555 127.385C42.3501 127.907 40.8893 128.237 39.407 128.366C38.9088 128.41 38.4045 128.431 37.9093 128.431C37.8447 128.431 37.7771 128.431 37.7125 128.431C36.5224 128.758 35.2892 128.978 34.0467 129.089C33.4132 129.144 32.7766 129.172 32.1493 129.172H32.1401Z" fill="#272D50"/>
<path d="M218.147 8.019C222.576 8.019 226.761 9.67652 229.932 12.6829C231.476 14.1521 232.709 15.859 233.601 17.7326C235.557 18.4827 237.371 19.5969 238.942 21.0384C242.504 24.3009 244.466 28.8043 244.466 33.7213C244.466 38.2031 242.765 42.4688 239.677 45.7407C240.077 45.6789 240.477 45.6264 240.877 45.5925C241.526 45.5338 242.178 45.5061 242.814 45.5061C247.867 45.5061 252.585 47.3611 256.097 50.7317C258.809 53.3368 262.032 58.0347 262.032 65.6679C262.032 68.3162 261.497 70.9831 260.393 73.8197C259.572 75.9248 258.508 77.9712 257.222 79.9189C255.681 82.2462 253.87 84.2556 251.828 85.91C248.743 88.404 245.13 89.8979 241.375 90.2313C240.84 90.2776 240.302 90.3023 239.77 90.3023C236.722 90.3023 233.745 89.509 231.156 88.0089C228.791 86.6323 226.896 84.7124 225.559 82.4406C225.386 82.4592 225.211 82.4808 225.036 82.4962C224.138 82.5764 223.172 82.6166 222.17 82.6166C221.582 82.6166 220.967 82.6042 220.337 82.5764C217.378 82.4499 214.497 81.7369 211.784 80.4559C209.933 79.5824 208.239 78.4095 206.747 76.9773C205.483 78.2737 204.121 79.4651 202.66 80.5454C198.099 83.916 192.908 85.9162 187.228 86.4872C186.702 90.0214 185.143 93.3241 182.713 95.9817C179.786 99.1732 175.874 101.176 171.633 101.68C171.27 102.998 170.784 104.279 170.175 105.507C168.65 108.584 166.513 111.149 163.822 113.137C162.536 114.088 161.146 114.875 159.679 115.486C159.261 116.106 158.794 116.696 158.283 117.255C155.678 120.094 152.154 121.838 148.347 122.175C147.898 122.215 147.443 122.233 146.991 122.233C143.276 122.233 139.745 120.885 136.996 118.431C136.651 118.446 136.307 118.458 135.966 118.458C134.511 118.458 133.09 118.304 131.709 118.005C130.329 118.56 128.865 118.918 127.352 119.051C126.903 119.091 126.444 119.11 125.995 119.11C125.002 119.11 124.024 119.014 123.071 118.826C121.745 119.338 120.346 119.668 118.907 119.795C118.452 119.835 117.994 119.857 117.545 119.857C116.785 119.857 116.031 119.798 115.293 119.687C113.663 120.276 111.969 120.656 110.228 120.81C109.595 120.866 108.952 120.894 108.316 120.894C106.36 120.894 104.404 120.628 102.497 120.104C102.014 119.971 101.541 119.82 101.073 119.647C98.8743 120.968 96.4049 121.783 93.8677 122.005C93.2926 122.054 92.6899 122.082 92.0779 122.082C91.7488 122.082 91.4075 122.076 91.06 122.061C89.1748 121.98 87.3419 121.585 85.5921 120.888C83.3348 122.295 80.7761 123.162 78.1467 123.394C77.5747 123.443 76.972 123.471 76.36 123.471C76.0309 123.471 75.6896 123.465 75.3451 123.45C74.6163 123.419 73.8936 123.335 73.1832 123.212C71.8393 123.74 70.4154 124.079 68.9515 124.209C68.5026 124.249 68.0474 124.268 67.5953 124.268C66.559 124.268 65.538 124.163 64.5446 123.959C63.1823 124.499 61.7399 124.845 60.2515 124.977C59.8025 125.018 59.3443 125.036 58.8953 125.036C57.8404 125.036 56.801 124.925 55.7892 124.712C53.8825 125.481 51.862 125.965 49.7432 126.153C49.1189 126.209 48.4884 126.237 47.8703 126.237C46.4157 126.237 44.9949 126.082 43.6141 125.783C42.2363 126.339 40.7725 126.697 39.2625 126.829C38.8073 126.87 38.3522 126.891 37.9001 126.891C37.7679 126.891 37.6357 126.891 37.5065 126.885C36.3379 127.221 35.1324 127.444 33.9022 127.552C33.3179 127.604 32.7244 127.629 32.1401 127.629C28.8495 127.629 25.7342 126.829 22.8834 125.249C19.6543 123.462 17.0003 120.773 15.2043 117.471C13.5498 114.427 12.7103 111.01 12.7103 107.319C12.7103 103.627 13.4699 100.507 14.9645 97.491C15.6718 96.065 16.5144 94.7532 17.4831 93.5525C15.3181 90.7776 14.0757 87.3978 13.882 83.6938C13.8697 83.453 13.8635 83.2092 13.8635 82.9654C13.8635 81.1628 14.1649 79.317 14.7584 77.4773C14.8538 77.181 14.9583 76.8878 15.0752 76.5976L33.3917 30.5421C34.6526 27.3505 36.7438 24.5757 39.4224 22.5447C42.2794 20.3809 45.6376 19.1525 49.165 18.9734C49.531 18.9518 49.9 18.9395 50.2629 18.9395C53.3966 18.9395 56.4812 19.8037 59.1844 21.4427C62.3704 23.378 64.7937 26.2363 66.2207 29.7334L70.1017 38.7803C71.827 36.7123 73.7798 34.8634 75.951 33.2522C80.5362 29.8507 85.712 27.8351 91.3398 27.261C91.7304 23.4953 93.2711 19.9488 95.7806 17.1184C98.8036 13.7076 102.992 11.6087 107.571 11.2044C108.103 11.1581 108.642 11.1334 109.17 11.1334C113.371 11.1334 117.412 12.652 120.546 15.4084C123.76 18.245 125.725 22.0724 126.217 26.3566C129.91 24.5849 133.878 23.4984 138.072 23.128C139.121 23.0354 140.173 22.9891 141.2 22.9891C146.237 22.9891 150.982 24.0972 155.303 26.2795C155.829 26.5449 156.343 26.8289 156.847 27.119C159.864 23.6805 164.049 21.5569 168.647 21.1526C169.173 21.1063 169.702 21.0816 170.222 21.0816C171.799 21.0816 173.346 21.2946 174.831 21.7082C174.905 21.6742 174.982 21.6403 175.056 21.6094C177.959 20.3346 181.016 19.5506 184.15 19.2759C185.121 19.1895 186.096 19.1463 187.05 19.1463C191.506 19.1463 195.7 20.0754 199.545 21.9088C199.994 21.5539 200.455 21.2174 200.932 20.9087C201.7 18.2975 203.05 15.8775 204.917 13.8404C207.953 10.5253 212.073 8.48508 216.526 8.08999C217.065 8.04369 217.606 8.019 218.141 8.019M218.141 4.93237C217.517 4.93237 216.883 4.96015 216.256 5.01571C211.04 5.47562 206.209 7.86775 202.654 11.7507C200.944 13.6181 199.575 15.8066 198.631 18.1617C194.996 16.7665 191.112 16.0597 187.05 16.0597C186.007 16.0597 184.94 16.106 183.879 16.2016C180.681 16.4825 177.553 17.2449 174.57 18.4672C173.146 18.1555 171.688 17.9981 170.222 17.9981C169.613 17.9981 168.991 18.0258 168.376 18.0783C163.828 18.4796 159.612 20.3192 156.275 23.3225C151.631 21.0538 146.56 19.9056 141.197 19.9056C140.08 19.9056 138.939 19.9581 137.802 20.0568C134.569 20.3439 131.433 21.026 128.443 22.0909C127.352 18.6154 125.362 15.5535 122.576 13.0903C118.876 9.83702 114.116 8.04678 109.167 8.04678C108.549 8.04678 107.919 8.07456 107.298 8.13012C101.934 8.60237 97.0261 11.0686 93.4802 15.0689C91.0815 17.7727 89.4423 21.0013 88.6674 24.5139C83.3901 25.4183 78.5035 27.5172 74.115 30.7705C73.0602 31.5514 72.0484 32.391 71.0827 33.283L69.0469 28.5389C67.3678 24.4398 64.5046 21.0754 60.7651 18.8037C57.5821 16.8745 53.9471 15.8559 50.2537 15.8559C49.8323 15.8559 49.4049 15.8683 48.9805 15.8961C44.8473 16.109 40.9016 17.5567 37.5618 20.0846C34.4312 22.4551 31.9986 25.6776 30.5255 29.4062L12.2182 75.4556C12.0767 75.8075 11.9476 76.1686 11.8307 76.5297C11.1388 78.6749 10.7882 80.8418 10.7882 82.9654C10.7882 83.2617 10.7974 83.558 10.8128 83.8543C10.9942 87.3422 11.9906 90.6325 13.7159 93.5C13.1623 94.3427 12.658 95.2162 12.2121 96.1175C10.5022 99.5652 9.63495 103.334 9.63495 107.322C9.63495 111.535 10.6006 115.446 12.5042 118.952C14.577 122.77 17.6523 125.885 21.398 127.956C24.707 129.789 28.3205 130.719 32.137 130.719C32.8074 130.719 33.4932 130.688 34.1698 130.629C35.4337 130.518 36.6854 130.299 37.9001 129.978C38.4383 129.978 38.9888 129.953 39.53 129.907C41.0093 129.774 42.467 129.465 43.8755 128.981C45.1948 129.209 46.5356 129.326 47.8703 129.326C48.5776 129.326 49.3003 129.296 50.0138 129.231C52.1081 129.046 54.1439 128.601 56.0814 127.904C57.0163 128.049 57.9573 128.123 58.8953 128.123C59.4335 128.123 59.9809 128.098 60.519 128.052C61.989 127.922 63.4314 127.616 64.8214 127.144C65.7348 127.283 66.6666 127.354 67.5953 127.354C68.1335 127.354 68.6809 127.329 69.2191 127.283C70.6768 127.153 72.1099 126.851 73.4969 126.382C74.0781 126.459 74.6532 126.508 75.216 126.533C75.5973 126.549 75.9848 126.558 76.36 126.558C77.0642 126.558 77.7562 126.527 78.4174 126.468C81.0037 126.24 83.5593 125.484 85.8934 124.264C87.5295 124.777 89.2209 125.07 90.9308 125.144C91.3183 125.16 91.7027 125.169 92.0779 125.169C92.7791 125.169 93.471 125.138 94.1383 125.079C96.6386 124.857 99.1173 124.141 101.387 122.993C101.485 123.021 101.584 123.048 101.682 123.076C103.853 123.675 106.083 123.977 108.316 123.977C109.041 123.977 109.773 123.943 110.499 123.882C112.23 123.727 113.946 123.379 115.613 122.835C116.259 122.903 116.905 122.94 117.545 122.94C118.086 122.94 118.636 122.916 119.178 122.866C120.601 122.74 122.001 122.449 123.351 121.999C124.224 122.125 125.11 122.19 125.995 122.19C126.534 122.19 127.081 122.166 127.619 122.119C129.102 121.99 130.559 121.678 131.971 121.19C133.275 121.415 134.6 121.533 135.923 121.536C139.078 123.977 142.962 125.311 146.991 125.311C147.532 125.311 148.079 125.286 148.617 125.24C153.19 124.835 157.428 122.74 160.547 119.335C160.949 118.897 161.331 118.437 161.688 117.962C163.084 117.313 164.412 116.526 165.645 115.613C168.733 113.335 171.181 110.393 172.928 106.874C173.325 106.075 173.678 105.248 173.986 104.402C178.184 103.482 182.028 101.278 184.974 98.0682C187.283 95.5434 188.923 92.5308 189.79 89.2528C195.15 88.367 200.083 86.2773 204.48 83.024C205.299 82.419 206.098 81.7739 206.87 81.0949C208.002 81.9282 209.207 82.6443 210.474 83.2432C213.559 84.7 216.834 85.5118 220.205 85.6538C220.878 85.6816 221.539 85.697 222.17 85.697C222.8 85.697 223.409 85.6816 224.003 85.6538C225.509 87.6817 227.422 89.3979 229.612 90.6758C232.675 92.4506 236.184 93.3858 239.77 93.3858C240.388 93.3858 241.018 93.358 241.643 93.3025C246.006 92.9166 250.195 91.1912 253.756 88.3114C256.044 86.4594 258.071 84.2093 259.781 81.6258C261.189 79.4929 262.358 77.2458 263.256 74.9432C264.501 71.7393 265.107 68.7051 265.107 65.6679C265.107 56.9451 261.365 51.5188 258.225 48.5032C254.777 45.1974 250.349 43.1448 245.542 42.5799C246.852 39.839 247.544 36.8234 247.544 33.7213C247.544 27.9246 245.225 22.6095 241.018 18.7574C239.468 17.3375 237.725 16.1831 235.821 15.3189C234.825 13.5163 233.561 11.8835 232.051 10.4451C228.302 6.88929 223.369 4.93546 218.15 4.93546L218.141 4.93237Z" fill="#DCCCBB"/>
<path d="M30.4825 105.677C30.8115 104.967 31.2759 104.387 31.8694 103.936C32.463 103.486 33.1426 103.226 33.9022 103.158C33.9176 103.158 33.933 103.158 33.9483 103.158C33.7638 103.115 33.567 103.094 33.3579 103.094C33.2595 103.094 33.158 103.1 33.0565 103.106C32.4568 103.158 31.9402 103.356 31.4727 103.711C30.9899 104.078 30.6209 104.538 30.3502 105.121C30.0765 105.711 29.9351 106.378 29.9351 107.109C29.9351 107.372 29.9597 107.618 29.9935 107.856C30.015 107.066 30.1719 106.338 30.4794 105.68L30.4825 105.677Z" fill="#D36F50"/>
<path d="M40.1481 96.1855V111.501C40.1481 112.082 39.9452 112.613 39.5577 113.032C39.2317 113.39 38.8196 113.622 38.3614 113.714C38.5367 113.792 38.7335 113.826 38.958 113.807C39.3055 113.776 39.5977 113.631 39.8375 113.369C40.0774 113.106 40.1974 112.795 40.1974 112.43V96.559C40.1974 96.4232 40.1758 96.3028 40.1451 96.1886L40.1481 96.1855Z" fill="#D36F50"/>
<path d="M36.5439 113.236C36.4578 113.153 36.3809 113.066 36.3102 112.971C35.8888 113.326 35.406 113.634 34.8709 113.897C34.2159 114.215 33.5055 114.412 32.7582 114.477C32.5982 114.492 32.4383 114.495 32.2815 114.499C32.7059 114.56 33.1457 114.573 33.607 114.533C34.2528 114.477 34.8555 114.31 35.4152 114.036C35.8581 113.82 36.2548 113.57 36.6054 113.282C36.5869 113.267 36.5654 113.255 36.5469 113.236H36.5439Z" fill="#D36F50"/>
<path d="M45.8867 104.279C46.2588 103.575 46.754 103.001 47.3752 102.556C47.9964 102.112 48.6853 101.856 49.4449 101.788C49.4695 101.788 49.4941 101.788 49.5187 101.785C49.3249 101.744 49.125 101.72 48.9128 101.72C48.8113 101.72 48.7068 101.726 48.5991 101.735C47.9902 101.788 47.4551 101.988 46.96 102.343C46.4464 102.711 46.0466 103.177 45.736 103.763C45.4346 104.337 45.2809 105.016 45.2809 105.779C45.2809 106.032 45.3055 106.269 45.3424 106.498C45.3701 105.671 45.5454 104.93 45.8898 104.279H45.8867Z" fill="#D36F50"/>
<path d="M55.9891 104.831C55.9891 106.3 55.657 107.652 55.0019 108.85C54.35 110.041 53.4581 111.023 52.3572 111.764C51.247 112.511 49.983 112.952 48.6022 113.076C48.387 113.094 48.1748 113.1 47.9656 113.103C48.4392 113.165 48.9344 113.174 49.4479 113.128C50.6873 113.02 51.8036 112.631 52.7939 111.961C53.7841 111.295 54.5745 110.424 55.1619 109.35C55.7492 108.279 56.0414 107.078 56.0414 105.751C56.0414 105.433 56.023 105.124 55.9891 104.825V104.831Z" fill="#D36F50"/>
<path d="M64.111 100.374C64.0034 100.374 63.8865 100.38 63.7696 100.389C63.2315 100.436 62.7794 100.587 62.3858 100.843C61.986 101.106 61.6815 101.42 61.4601 101.8C61.2479 102.164 61.1433 102.559 61.1433 103.004V109.646C61.1433 110.227 60.9404 110.757 60.5529 111.177C60.2269 111.535 59.8148 111.767 59.3566 111.859C59.5319 111.937 59.7287 111.97 59.9532 111.952C60.3007 111.921 60.5928 111.776 60.8327 111.514C61.0726 111.251 61.1925 110.94 61.1925 110.575V103.933C61.1925 103.337 61.3371 102.788 61.6261 102.291C61.9152 101.794 62.315 101.377 62.8286 101.041C63.3422 100.704 63.9357 100.507 64.6123 100.448C64.6338 100.448 64.6492 100.448 64.6707 100.448C64.5139 100.405 64.3263 100.38 64.1079 100.38L64.111 100.374Z" fill="#D36F50"/>
<path d="M69.8403 102.103C69.8403 102.14 69.8434 102.174 69.8434 102.211V108.878C69.8434 109.458 69.6404 109.989 69.2529 110.409C68.9269 110.767 68.5148 110.998 68.0566 111.091C68.2319 111.168 68.4287 111.202 68.6532 111.183C69.0007 111.153 69.2929 111.007 69.5328 110.745C69.7726 110.483 69.8926 110.171 69.8926 109.807V103.14C69.8926 102.779 69.871 102.439 69.8372 102.106L69.8403 102.103Z" fill="#D36F50"/>
<path d="M72.7342 100.047L72.6234 100.056C72.6603 100.072 72.6942 100.087 72.7342 100.099V100.047Z" fill="#D36F50"/>
<path d="M80.0565 97.9202C79.9765 98.2844 79.8012 98.6208 79.5306 98.9048C79.1646 99.2906 78.6849 99.5221 78.1467 99.5684L76.9596 99.6734V106.161C76.9596 106.273 76.9689 106.344 76.9781 106.387C76.9873 106.387 76.9996 106.387 77.0088 106.387V99.7968L78.9924 99.6209C79.3215 99.5931 79.6013 99.4604 79.8227 99.2227C80.0472 98.9881 80.1579 98.7134 80.1579 98.3986C80.1579 98.2196 80.1241 98.0622 80.0565 97.9202Z" fill="#D36F50"/>
<path d="M76.9566 95.6299H77.0089V95.5466C77.0089 95.4139 76.9873 95.2966 76.9566 95.1824V95.6299Z" fill="#D36F50"/>
<path d="M78.7987 109.68C78.2482 110.047 77.6454 110.264 77.0027 110.319C76.8428 110.335 76.6675 110.341 76.4861 110.344C76.6091 110.365 76.7321 110.384 76.8582 110.387C77.2395 110.402 77.5686 110.399 77.8484 110.375C78.3435 110.331 78.8079 110.165 79.2354 109.878C79.6659 109.591 79.8812 109.248 79.8812 108.85C79.8812 108.655 79.8443 108.489 79.7828 108.35C79.6874 108.773 79.4261 109.26 78.7987 109.677V109.68Z" fill="#D36F50"/>
<path d="M84.6633 93.4847C84.5679 93.5217 84.4788 93.5619 84.3957 93.6051C84.4419 93.5958 84.4911 93.5927 84.5372 93.5927C84.6356 93.5927 84.734 93.6081 84.8293 93.6452C84.8878 93.6668 84.9431 93.6915 84.9954 93.7162C85.0846 93.673 85.1769 93.6328 85.2722 93.5958C85.4967 93.5094 85.6074 93.3026 85.6074 92.9692C85.6074 92.7871 85.5643 92.642 85.4905 92.5278C85.3275 93.1482 84.8786 93.4013 84.6602 93.4847H84.6633Z" fill="#D36F50"/>
<path d="M85.8565 95.6855C85.7827 96.0374 85.6228 96.3708 85.3798 96.6671C85.0938 97.0097 84.7463 97.2968 84.3465 97.5159C83.956 97.732 83.5469 97.8616 83.1349 97.9048C83.3717 97.9727 83.6331 97.9943 83.9221 97.9666C84.2358 97.9388 84.5464 97.84 84.8509 97.6733C85.1553 97.5067 85.4167 97.2906 85.632 97.0313C85.8473 96.772 85.9549 96.485 85.9549 96.1701C85.9703 95.9603 85.9365 95.7998 85.8565 95.6855Z" fill="#D36F50"/>
<path d="M95.7713 96.5343C95.6914 96.8986 95.5161 97.235 95.2454 97.5159C94.8795 97.9017 94.3997 98.1332 93.8615 98.1795L92.6745 98.2845V104.773C92.6745 104.884 92.6837 104.955 92.6929 104.998C92.7021 104.998 92.7144 104.998 92.7237 104.998V98.4079L94.7072 98.232C95.0363 98.2042 95.3162 98.0715 95.5376 97.8338C95.7621 97.5992 95.8728 97.3245 95.8728 97.0097C95.8728 96.8307 95.839 96.6732 95.7713 96.5312V96.5343Z" fill="#D36F50"/>
<path d="M88.449 98.658L88.3383 98.6672C88.3752 98.6827 88.409 98.6981 88.449 98.7104V98.658Z" fill="#D36F50"/>
<path d="M94.5135 108.291C93.963 108.659 93.3603 108.875 92.7206 108.93C92.5607 108.946 92.3854 108.952 92.2039 108.955C92.327 108.977 92.45 108.992 92.5761 108.998C92.9574 109.014 93.2865 109.01 93.5663 108.986C94.0614 108.943 94.5258 108.776 94.9533 108.489C95.3838 108.202 95.5991 107.859 95.5991 107.461C95.5991 107.267 95.5622 107.1 95.5007 106.961C95.4053 107.384 95.1439 107.871 94.5166 108.288L94.5135 108.291Z" fill="#D36F50"/>
<path d="M92.6714 94.241H92.7237V94.1577C92.7237 94.025 92.7021 93.9077 92.6714 93.7935V94.241Z" fill="#D36F50"/>
<path d="M108.804 96.1888C108.568 96.2104 108.309 96.269 108.042 96.3647C107.836 96.4388 107.673 96.5468 107.537 96.6919C107.442 96.7968 107.421 97.0006 107.421 97.1518C107.421 97.3586 107.479 97.408 107.51 97.4358C107.525 97.4481 107.544 97.4605 107.562 97.4728C107.62 97.3031 107.704 97.1549 107.817 97.0283C108.048 96.7752 108.334 96.59 108.672 96.4666C109.011 96.3462 109.337 96.2721 109.65 96.2443C109.699 96.2412 109.742 96.2413 109.789 96.2382C109.592 96.198 109.383 96.1733 109.158 96.1733C109.041 96.1733 108.924 96.1795 108.801 96.1888H108.804Z" fill="#D36F50"/>
<path d="M113.614 96.9171C113.371 97.1425 113.07 97.2968 112.735 97.3678C112.882 97.4388 113.052 97.4727 113.248 97.4696C113.528 97.4604 113.768 97.3647 113.968 97.1826C114.266 96.9233 114.402 96.6455 114.377 96.3492C114.365 96.1887 114.328 96.0436 114.272 95.9109C114.189 96.2257 114.005 96.5776 113.614 96.9171Z" fill="#D36F50"/>
<path d="M114.626 102.822C114.586 103.742 114.294 104.572 113.747 105.285C113.196 106.001 112.495 106.578 111.661 106.998C110.846 107.409 109.979 107.655 109.078 107.736C108.841 107.757 108.605 107.767 108.368 107.767C108.884 107.825 109.404 107.834 109.924 107.791C110.717 107.72 111.474 107.504 112.193 107.143C112.913 106.782 113.507 106.294 113.977 105.68C114.448 105.066 114.684 104.353 114.684 103.541C114.684 103.282 114.66 103.047 114.626 102.825V102.822Z" fill="#D36F50"/>
<path d="M122.61 95.281C122.508 95.281 122.404 95.2872 122.29 95.2964C121.785 95.3396 121.352 95.4847 120.964 95.7347C120.583 95.9817 120.297 96.2872 120.094 96.6638C119.891 97.0435 119.79 97.4386 119.79 97.8738V104.467C119.79 105.047 119.587 105.578 119.199 105.998C118.873 106.356 118.461 106.587 118.003 106.68C118.178 106.757 118.375 106.791 118.599 106.773C118.947 106.742 119.239 106.597 119.479 106.334C119.719 106.072 119.839 105.76 119.839 105.396V98.8028C119.839 98.2226 119.974 97.6793 120.248 97.1731C120.521 96.6669 120.909 96.2533 121.413 95.9261C121.918 95.5989 122.493 95.4076 123.135 95.352C123.139 95.352 123.145 95.352 123.148 95.352C123 95.3088 122.819 95.2841 122.606 95.2841L122.61 95.281Z" fill="#D36F50"/>
<path d="M119.789 92.4723C119.805 92.4599 119.823 92.4507 119.842 92.4383V89.5246C119.842 89.3949 119.82 89.2776 119.789 89.1665V92.4754V92.4723Z" fill="#D36F50"/>
<path d="M128.237 97.0374C128.237 97.0682 128.237 97.096 128.237 97.1269V103.72C128.237 104.3 128.034 104.831 127.647 105.251C127.321 105.609 126.909 105.84 126.451 105.933C126.626 106.01 126.823 106.044 127.047 106.026C127.395 105.995 127.687 105.85 127.927 105.587C128.167 105.325 128.287 105.013 128.287 104.649V98.0559C128.287 97.7041 128.265 97.3676 128.231 97.0404L128.237 97.0374Z" fill="#D36F50"/>
<path d="M133.982 96.4941C134.354 95.7904 134.849 95.2163 135.471 94.7718C136.092 94.3273 136.781 94.0711 137.54 94.0032C137.565 94.0032 137.589 94.0032 137.614 94.0001C137.42 93.96 137.22 93.9353 137.008 93.9353C136.907 93.9353 136.802 93.9415 136.694 93.9507C136.086 94.0032 135.55 94.2038 135.055 94.5588C134.542 94.9261 134.142 95.3922 133.831 95.9786C133.53 96.5528 133.376 97.2318 133.376 97.9942C133.376 98.2473 133.401 98.485 133.438 98.7134C133.465 97.8862 133.641 97.1454 133.985 96.4941H133.982Z" fill="#D36F50"/>
<path d="M144.081 97.0496C144.081 98.5189 143.749 99.8708 143.094 101.068C142.442 102.26 141.553 103.241 140.449 103.982C139.339 104.729 138.075 105.171 136.694 105.294C136.479 105.313 136.267 105.319 136.058 105.322C136.531 105.384 137.027 105.393 137.54 105.346C138.78 105.238 139.896 104.85 140.886 104.18C141.876 103.513 142.667 102.643 143.254 101.568C143.842 100.497 144.134 99.2967 144.134 97.9694C144.134 97.6515 144.115 97.3429 144.081 97.0435V97.0496Z" fill="#D36F50"/>
<path d="M149.236 103.201V106.844C149.236 107.424 149.033 107.955 148.645 108.375C148.316 108.733 147.907 108.964 147.449 109.057C147.624 109.134 147.821 109.168 148.045 109.149C148.393 109.118 148.685 108.973 148.925 108.711C149.165 108.449 149.285 108.137 149.285 107.773V103.229C149.269 103.22 149.251 103.214 149.233 103.208L149.236 103.201Z" fill="#D36F50"/>
<path d="M149.657 95.1732C149.986 94.4818 150.447 93.9138 151.032 93.4725C151.619 93.0311 152.308 92.7749 153.101 92.7039C153.12 92.7039 153.138 92.7039 153.157 92.7008C152.972 92.6576 152.775 92.636 152.563 92.636C152.462 92.636 152.36 92.6422 152.256 92.6483C151.622 92.7039 151.09 92.8983 150.632 93.2441C150.155 93.6021 149.792 94.0558 149.519 94.6238C149.245 95.1948 149.11 95.8522 149.11 96.5776C149.11 96.8338 149.134 97.0776 149.171 97.3122C149.193 96.5282 149.352 95.809 149.657 95.1701V95.1732Z" fill="#D36F50"/>
<path d="M159.347 95.6177C159.347 95.6362 159.347 95.6547 159.347 95.6732C159.347 97.1301 159.049 98.4697 158.462 99.6519C157.871 100.84 157.065 101.816 156.066 102.556C155.048 103.31 153.882 103.748 152.603 103.862C152.465 103.874 152.326 103.877 152.191 103.881C152.594 103.942 153.015 103.955 153.449 103.918C154.571 103.819 155.58 103.439 156.472 102.779C157.364 102.118 158.074 101.257 158.603 100.189C159.132 99.121 159.396 97.9265 159.396 96.5992C159.396 96.2597 159.378 95.9325 159.344 95.6177H159.347Z" fill="#D36F50"/>
<path d="M38.0385 94.4723C37.6756 94.5031 37.3773 94.6513 37.1467 94.9106C36.916 95.1729 36.7992 95.4847 36.7992 95.8489V101.497C36.6054 101.291 36.384 101.096 36.1287 100.908C35.6828 100.584 35.1569 100.331 34.5542 100.152C33.9514 99.9726 33.3025 99.914 32.6075 99.9757C31.5004 100.074 30.4948 100.457 29.5968 101.124C28.6957 101.794 27.9822 102.661 27.4533 103.726C26.9243 104.794 26.6599 105.988 26.6599 107.316C26.6599 108.643 26.9243 109.791 27.4533 110.767C27.9822 111.739 28.7049 112.48 29.6214 112.989C30.5378 113.498 31.5588 113.702 32.6813 113.603C33.3271 113.548 33.9299 113.381 34.4896 113.106C35.0524 112.832 35.5383 112.504 35.9534 112.118C36.2948 111.801 36.5747 111.48 36.7961 111.155V111.72C36.7961 112.085 36.9129 112.378 37.1436 112.597C37.3742 112.816 37.6725 112.912 38.0354 112.878C38.3829 112.847 38.6751 112.702 38.915 112.44C39.1548 112.177 39.2748 111.865 39.2748 111.501V95.6298C39.2748 95.247 39.1548 94.9507 38.915 94.7408C38.6751 94.5309 38.3829 94.4383 38.0354 94.4692L38.0385 94.4723ZM36.4024 108.773C36.0703 109.483 35.6121 110.063 35.0278 110.51C34.4404 110.961 33.7607 111.22 32.9827 111.288C32.2231 111.356 31.5465 111.217 30.9499 110.872C30.3564 110.526 29.892 110.029 29.5629 109.378C29.2308 108.726 29.0678 107.97 29.0678 107.109C29.0678 106.248 29.2339 105.461 29.5629 104.751C29.892 104.041 30.3564 103.461 30.9499 103.01C31.5434 102.559 32.2231 102.3 32.9827 102.232C33.7577 102.164 34.4404 102.303 35.0278 102.649C35.6152 102.994 36.0734 103.494 36.4024 104.143C36.7315 104.794 36.8976 105.55 36.8976 106.411C36.8976 107.273 36.7315 108.06 36.4024 108.77V108.773Z" fill="url(#paint0_linear_6_345)"/>
<path d="M51.8682 99.1578C50.8779 98.6577 49.7616 98.4602 48.5222 98.5713C47.2983 98.6793 46.1881 99.0713 45.1886 99.7504C44.1891 100.426 43.3957 101.303 42.8083 102.374C42.2209 103.445 41.9288 104.655 41.9288 105.998C41.9288 107.34 42.2209 108.473 42.8083 109.439C43.3957 110.409 44.1891 111.137 45.1886 111.631C46.1881 112.125 47.2983 112.316 48.5222 112.208C49.7616 112.1 50.8779 111.711 51.8682 111.041C52.8584 110.375 53.6488 109.504 54.2362 108.43C54.8236 107.359 55.1157 106.158 55.1157 104.831C55.1157 103.504 54.8236 102.331 54.2362 101.365C53.6488 100.395 52.8615 99.6609 51.8682 99.1608V99.1578ZM52.0927 107.436C51.7298 108.149 51.2377 108.723 50.6165 109.158C49.9984 109.594 49.2972 109.847 48.5222 109.915C47.7626 109.983 47.0707 109.853 46.4526 109.526C45.8313 109.199 45.3362 108.714 44.9641 108.066C44.592 107.418 44.4075 106.655 44.4075 105.775C44.4075 104.896 44.592 104.056 44.9641 103.349C45.3362 102.646 45.8313 102.072 46.4526 101.627C47.0738 101.183 47.7626 100.926 48.5222 100.858C49.2972 100.791 49.9984 100.923 50.6165 101.257C51.2377 101.593 51.7267 102.078 52.0927 102.72C52.4556 103.359 52.637 104.136 52.637 105.047C52.637 105.958 52.4556 106.723 52.0927 107.433V107.436Z" fill="url(#paint1_linear_6_345)"/>
<path d="M67.2355 97.6516C66.5897 97.2194 65.6824 97.0559 64.5077 97.1577C63.9295 97.2102 63.3852 97.3522 62.8716 97.5868C62.358 97.8213 61.8967 98.1207 61.4846 98.4819C61.0726 98.843 60.7189 99.2227 60.4298 99.6208C60.3714 99.7011 60.3191 99.7813 60.2699 99.8585V99.0992C60.2699 98.735 60.15 98.4417 59.9101 98.2226C59.6702 98.0034 59.3781 97.9078 59.0305 97.9386C58.6677 97.9695 58.3694 98.1177 58.1387 98.3769C57.9081 98.6393 57.7912 98.951 57.7912 99.3153V109.862C57.7912 110.226 57.9081 110.52 58.1387 110.739C58.3694 110.958 58.6677 111.054 59.0305 111.02C59.3781 110.989 59.6702 110.844 59.9101 110.581C60.15 110.319 60.2699 110.007 60.2699 109.643V103.001C60.2699 102.405 60.4144 101.856 60.7035 101.359C60.9926 100.862 61.3924 100.445 61.906 100.109C62.4195 99.7721 63.0131 99.5745 63.6896 99.5159C64.4154 99.4511 64.9813 99.5468 65.3872 99.7999C65.7932 100.056 66.0761 100.411 66.2422 100.868C66.4082 101.325 66.4913 101.852 66.4913 102.451V109.094C66.4913 109.458 66.6081 109.751 66.8388 109.97C67.0694 110.189 67.3677 110.285 67.7306 110.251C68.0781 110.22 68.3703 110.075 68.6101 109.813C68.85 109.551 68.97 109.239 68.97 108.875V102.207C68.97 101.195 68.8408 100.291 68.5855 99.4912C68.3303 98.6918 67.8782 98.0775 67.2355 97.6454V97.6516Z" fill="url(#paint2_linear_6_345)"/>
<path d="M78.0698 98.6979C78.3989 98.6701 78.6787 98.5374 78.9002 98.2997C79.1247 98.0651 79.2354 97.7904 79.2354 97.4756C79.2354 97.1453 79.1247 96.8768 78.9002 96.6731C78.6757 96.4694 78.3989 96.3829 78.0698 96.4107L76.0863 96.5866V94.6205C76.0863 94.2562 75.9694 93.963 75.7387 93.7439C75.5081 93.5247 75.2098 93.429 74.8469 93.463C74.4994 93.4938 74.2072 93.6389 73.9674 93.9013C73.7275 94.1637 73.6076 94.4754 73.6076 94.8396V96.8058L72.2452 96.9262C71.9131 96.954 71.6363 97.0867 71.4149 97.3244C71.1904 97.5589 71.0797 97.8429 71.0797 98.1763C71.0797 98.5096 71.1904 98.7504 71.4149 98.9541C71.6394 99.1578 71.9131 99.2442 72.2452 99.2165L73.6076 99.0961V106.485C73.6076 107.282 73.7244 107.89 73.9551 108.31C74.1857 108.729 74.4809 109.023 74.8346 109.189C75.1913 109.356 75.5573 109.449 75.9386 109.464C76.32 109.479 76.649 109.476 76.9289 109.452C77.424 109.408 77.8884 109.242 78.3159 108.955C78.7464 108.668 78.9617 108.325 78.9617 107.927C78.9617 107.612 78.8786 107.371 78.7126 107.202C78.5465 107.035 78.3651 106.958 78.1682 106.976C77.9683 106.995 77.7992 107.041 77.6608 107.121C77.5194 107.202 77.3594 107.248 77.178 107.263C76.9965 107.279 76.8182 107.263 76.646 107.211C76.4737 107.161 76.3354 107.047 76.2369 106.874C76.1385 106.702 76.0893 106.464 76.0893 106.168V98.8769L78.0729 98.701L78.0698 98.6979Z" fill="url(#paint3_linear_6_345)"/>
<path d="M84.5372 94.4693C84.4388 94.5434 84.3219 94.5989 84.1897 94.636C84.0575 94.673 83.9406 94.6946 83.8422 94.7039C83.5931 94.7255 83.3963 94.673 83.2487 94.5465C83.101 94.4199 83.0242 94.2717 83.0242 94.1051C83.0242 93.8736 83.0857 93.6606 83.2087 93.4661C83.3317 93.2717 83.5101 93.1081 83.7407 92.9723C83.9221 92.8581 84.1251 92.7562 84.3465 92.6698C84.571 92.5834 84.6818 92.3765 84.6818 92.0432C84.6818 91.7438 84.5833 91.537 84.3835 91.4228C84.1836 91.3086 83.9468 91.2623 83.6638 91.287C83.3317 91.3148 83.0057 91.4629 82.6859 91.7222C82.363 91.9846 82.0708 92.3086 81.8063 92.6945C81.5419 93.0834 81.3358 93.4785 81.1851 93.8797C81.0375 94.2841 80.9606 94.6329 80.9606 94.9323C80.9606 95.6792 81.1452 96.2317 81.5173 96.5867C81.8894 96.9448 82.3814 97.096 82.9934 97.0404C83.3071 97.0127 83.6177 96.9139 83.9222 96.7472C84.2266 96.5805 84.488 96.3645 84.7033 96.1052C84.9186 95.8459 85.0262 95.5589 85.0262 95.244C85.0416 95.0094 85.0016 94.8366 84.9032 94.7193C84.8048 94.6051 84.6787 94.5187 84.5311 94.4662L84.5372 94.4693Z" fill="url(#paint4_linear_6_345)"/>
<path d="M93.7816 97.309C94.1107 97.2812 94.3905 97.1485 94.6119 96.9108C94.8364 96.6762 94.9471 96.4015 94.9471 96.0867C94.9471 95.7564 94.8364 95.4879 94.6119 95.2842C94.3874 95.0804 94.1107 94.994 93.7816 95.0218L91.798 95.1977V93.2316C91.798 92.8673 91.6812 92.5741 91.4505 92.355C91.2199 92.1358 90.9216 92.0401 90.5587 92.0741C90.2112 92.1049 89.919 92.25 89.6791 92.5124C89.4393 92.7747 89.3193 93.0865 89.3193 93.4507V95.4169L87.957 95.5373C87.6248 95.565 87.348 95.6978 87.1266 95.9354C86.9021 96.17 86.7914 96.454 86.7914 96.7873C86.7914 97.1207 86.9021 97.3615 87.1266 97.5652C87.3511 97.7689 87.6248 97.8553 87.957 97.8275L89.3193 97.7072V105.097C89.3193 105.893 89.4362 106.501 89.6668 106.921C89.8975 107.341 90.1927 107.634 90.5464 107.8C90.9031 107.967 91.2691 108.06 91.6504 108.075C92.0317 108.091 92.3608 108.087 92.6407 108.063C93.1358 108.02 93.6002 107.853 94.0276 107.566C94.4582 107.279 94.6734 106.936 94.6734 106.538C94.6734 106.223 94.5904 105.982 94.4243 105.813C94.2583 105.646 94.0768 105.569 93.88 105.587C93.6801 105.606 93.511 105.652 93.3726 105.732C93.2311 105.813 93.0712 105.859 92.8897 105.874C92.7083 105.89 92.5299 105.874 92.3577 105.822C92.1855 105.773 92.0471 105.658 91.9487 105.485C91.8503 105.313 91.8011 105.075 91.8011 104.779V97.488L93.7847 97.3121L93.7816 97.309Z" fill="url(#paint5_linear_6_345)"/>
<path d="M112.384 99.8831C111.978 99.63 111.526 99.4325 111.022 99.2936C110.517 99.1547 110.01 99.0435 109.496 98.9571C108.967 98.8707 108.482 98.7657 108.033 98.6392C107.587 98.5126 107.227 98.3367 106.953 98.1114C106.679 97.886 106.544 97.5681 106.544 97.1514C106.544 96.7039 106.661 96.3551 106.892 96.102C107.122 95.8489 107.408 95.6637 107.747 95.5402C108.085 95.4198 108.411 95.3458 108.725 95.318C109.352 95.2624 109.915 95.3241 110.41 95.5063C110.905 95.6853 111.311 95.9631 111.625 96.3304C111.806 96.4816 112.037 96.5526 112.32 96.5434C112.599 96.5341 112.839 96.4384 113.039 96.2563C113.337 95.997 113.473 95.7192 113.448 95.4229C113.424 95.1266 113.328 94.8766 113.162 94.676C112.799 94.2778 112.369 93.966 111.874 93.7438C111.378 93.5216 110.865 93.3734 110.336 93.2962C109.807 93.2191 109.303 93.2006 108.823 93.2438C107.996 93.3178 107.233 93.5432 106.529 93.9197C105.828 94.2963 105.256 94.7871 104.819 95.389C104.382 95.9909 104.161 96.6823 104.161 97.4632C104.161 98.1422 104.296 98.704 104.57 99.1423C104.843 99.5837 105.194 99.9294 105.625 100.183C106.055 100.436 106.538 100.63 107.076 100.763C107.614 100.899 108.146 101.016 108.675 101.118C109.17 101.207 109.635 101.312 110.062 101.429C110.493 101.55 110.837 101.723 111.105 101.948C111.369 102.173 111.502 102.494 111.502 102.908C111.502 103.371 111.378 103.735 111.129 103.998C110.88 104.26 110.585 104.451 110.238 104.575C109.89 104.698 109.552 104.782 109.223 104.825C108.414 104.896 107.722 104.809 107.153 104.559C106.584 104.312 106.067 103.951 105.603 103.476C105.372 103.263 105.126 103.158 104.871 103.155C104.616 103.155 104.37 103.235 104.139 103.405C103.807 103.649 103.635 103.927 103.619 104.235C103.604 104.544 103.669 104.806 103.819 105.025C104.465 105.816 105.252 106.337 106.187 106.597C107.122 106.853 108.06 106.942 109.001 106.859C109.795 106.788 110.551 106.572 111.271 106.211C111.99 105.85 112.584 105.362 113.055 104.748C113.525 104.133 113.762 103.42 113.762 102.609C113.762 101.911 113.633 101.346 113.377 100.914C113.122 100.482 112.79 100.136 112.387 99.8831H112.384Z" fill="url(#paint6_linear_6_345)"/>
<path d="M125.66 92.5648C125.033 92.1327 124.147 91.966 123.009 92.0648C122.447 92.1142 121.918 92.2562 121.422 92.4907C120.927 92.7253 120.475 93.0186 120.072 93.3704C119.666 93.7223 119.328 94.0989 119.058 94.5063C119.008 94.5804 118.965 94.6514 118.922 94.7224V88.5954C118.922 88.2312 118.802 87.938 118.562 87.7188C118.323 87.4997 118.03 87.404 117.683 87.4349C117.32 87.4657 117.022 87.6139 116.791 87.8732C116.56 88.1355 116.444 88.4473 116.444 88.8115V104.683C116.444 105.047 116.56 105.34 116.791 105.56C117.022 105.779 117.32 105.874 117.683 105.84C118.03 105.81 118.323 105.664 118.562 105.402C118.802 105.14 118.922 104.828 118.922 104.464V97.8707C118.922 97.2904 119.058 96.7472 119.331 96.241C119.605 95.7348 119.992 95.3212 120.497 94.994C121.001 94.6668 121.576 94.4754 122.219 94.4199C122.914 94.3582 123.455 94.4508 123.843 94.7008C124.23 94.9477 124.504 95.3057 124.661 95.7718C124.818 96.2379 124.898 96.7626 124.898 97.3429V103.936C124.898 104.3 125.014 104.593 125.245 104.813C125.476 105.032 125.774 105.127 126.137 105.093C126.484 105.063 126.777 104.917 127.016 104.655C127.256 104.393 127.376 104.081 127.376 103.717V97.1238C127.376 96.1299 127.247 95.2286 126.992 94.4199C126.737 93.6143 126.294 92.9939 125.666 92.5587L125.66 92.5648Z" fill="url(#paint7_linear_6_345)"/>
<path d="M139.96 91.3765C138.97 90.8765 137.854 90.6789 136.615 90.79C135.391 90.8981 134.28 91.2901 133.281 91.9691C132.281 92.6451 131.488 93.5217 130.901 94.5928C130.313 95.6638 130.021 96.8738 130.021 98.2165C130.021 99.5591 130.313 100.692 130.901 101.658C131.488 102.627 132.281 103.356 133.281 103.85C134.28 104.343 135.391 104.535 136.615 104.427C137.854 104.319 138.97 103.93 139.96 103.26C140.951 102.593 141.741 101.723 142.328 100.649C142.916 99.5777 143.208 98.377 143.208 97.0497C143.208 95.7225 142.916 94.5496 142.328 93.5834C141.741 92.6142 140.954 91.8796 139.96 91.3796V91.3765ZM140.185 99.6548C139.822 100.368 139.33 100.942 138.709 101.377C138.091 101.812 137.39 102.065 136.615 102.133C135.855 102.201 135.163 102.072 134.545 101.744C133.924 101.417 133.429 100.933 133.056 100.285C132.684 99.6363 132.5 98.8739 132.5 97.9942C132.5 97.1145 132.684 96.275 133.056 95.5681C133.429 94.8644 133.924 94.2903 134.545 93.8458C135.166 93.4013 135.855 93.1451 136.615 93.0772C137.39 93.0093 138.091 93.1421 138.709 93.4754C139.33 93.8119 139.819 94.2965 140.185 94.9385C140.548 95.5774 140.729 96.3552 140.729 97.2658C140.729 98.1763 140.548 98.9418 140.185 99.6518V99.6548Z" fill="url(#paint8_linear_6_345)"/>
<path d="M157.683 92.2469C157.155 91.29 156.441 90.5616 155.54 90.0616C154.639 89.5615 153.612 89.3609 152.452 89.4628C151.89 89.5121 151.348 89.651 150.829 89.8794C150.309 90.1079 149.845 90.3887 149.442 90.7252C149.036 91.0585 148.701 91.4073 148.439 91.7716C148.411 91.8086 148.39 91.8456 148.365 91.8827V91.2684C148.365 90.9196 148.245 90.6326 148.005 90.4042C147.766 90.1758 147.473 90.077 147.126 90.1079C146.763 90.1387 146.465 90.29 146.234 90.5585C146.003 90.827 145.887 91.1357 145.887 91.4845V107.06C145.887 107.424 146.003 107.717 146.234 107.936C146.465 108.155 146.763 108.251 147.126 108.217C147.473 108.186 147.766 108.041 148.005 107.779C148.245 107.516 148.365 107.205 148.365 106.84V101.442C148.611 101.71 148.907 101.964 149.257 102.198C149.688 102.482 150.183 102.701 150.746 102.849C151.308 102.998 151.902 103.047 152.529 102.991C153.652 102.893 154.66 102.513 155.552 101.852C156.444 101.192 157.155 100.331 157.683 99.2628C158.212 98.1948 158.477 97.0003 158.477 95.673C158.477 94.3458 158.212 93.2037 157.683 92.2469ZM155.589 98.2288C155.251 98.9479 154.793 99.5282 154.215 99.9665C153.636 100.408 152.96 100.661 152.182 100.732C151.388 100.803 150.699 100.667 150.112 100.331C149.525 99.9943 149.066 99.4943 148.737 98.8337C148.405 98.1763 148.242 97.4232 148.242 96.5774C148.242 95.7317 148.408 94.9384 148.737 94.2439C149.066 93.5525 149.528 92.9846 150.112 92.5432C150.699 92.1018 151.388 91.8456 152.182 91.7746C152.96 91.7067 153.636 91.8425 154.215 92.179C154.793 92.5185 155.251 93.0093 155.589 93.6482C155.927 94.2902 156.097 95.0341 156.097 95.8798C156.097 96.7256 155.927 97.5096 155.589 98.2257V98.2288Z" fill="url(#paint9_linear_6_345)"/>
<path d="M60.1469 71.4336L39.1794 73.2856L35.1139 83.4406C34.7848 84.3542 34.2589 85.1259 33.567 85.7092C32.8535 86.308 32.0355 86.6537 31.1375 86.734C31.0422 86.7433 30.953 86.7433 30.8607 86.7463C31.1959 86.8112 31.568 86.8235 31.9832 86.7896C32.7028 86.7247 33.3548 86.45 33.9299 85.9654C34.508 85.4808 34.9386 84.8388 35.2277 84.0425L39.4931 73.3874L60.2023 71.5571L60.1469 71.4336Z" fill="#DCCCBB" stroke="#ED705B" stroke-miterlimit="10"/>
<path d="M49.5893 47.2932L42.7929 64.2635L43.1589 64.2295L49.7739 47.7161L49.5893 47.2932Z" fill="#DCCCBB" stroke="#ED705B" stroke-miterlimit="10"/>
<path d="M72.5896 78.9958C72.5312 80.1688 72.1037 81.1812 71.3072 81.996C70.4646 82.8603 69.4897 83.3449 68.4164 83.4406C68.398 83.4406 68.3795 83.4406 68.3611 83.4406C68.6501 83.5023 68.9515 83.5208 69.2621 83.4931C70.1263 83.4159 70.9074 83.0208 71.6055 82.3078C72.3005 81.5948 72.6511 80.7089 72.6511 79.6471C72.6511 79.428 72.6296 79.2119 72.5896 78.9958Z" fill="#DCCCBB" stroke="#ED705B" stroke-miterlimit="10"/>
<path d="M71.4395 77.3013L53.3382 35.1133C53.0491 34.3663 52.5909 33.8046 51.9666 33.4249C51.3423 33.0453 50.6688 32.8878 49.9461 32.9527C49.1773 32.9743 48.4669 33.2274 47.818 33.7181C47.1691 34.2089 46.674 34.8818 46.3388 35.7306L28.0222 81.7892C27.8777 82.2368 27.8069 82.6288 27.8069 82.9653C27.8531 83.8789 28.1422 84.6135 28.6711 85.1691C29.2001 85.7278 29.9935 85.9562 31.0514 85.8636C31.771 85.7988 32.423 85.5241 32.9981 85.0395C33.5732 84.5549 34.0068 83.9128 34.2959 83.1165L38.5613 72.4615L60.6851 70.5076L65.0151 80.4034C65.3042 81.1009 65.7471 81.6534 66.3498 82.0578C66.9495 82.4621 67.6107 82.635 68.3334 82.5702C69.1976 82.493 69.9787 82.0979 70.6768 81.3849C71.3718 80.6719 71.7224 79.786 71.7224 78.7242C71.7224 78.2427 71.624 77.7674 71.4333 77.3013H71.4395ZM41.4521 65.2573L49.5494 45.0337L57.7635 63.8158L41.449 65.2573H41.4521Z" fill="#DCCCBB" stroke="#BAAFA6" stroke-miterlimit="10"/>
<path d="M95.0055 48.6513C95.4299 48.6142 95.839 48.605 96.2418 48.6111C95.8943 48.5741 95.5437 48.5525 95.1808 48.5525C94.8487 48.5525 94.5043 48.5679 94.1598 48.5988C92.124 48.7778 90.2849 49.4816 88.695 50.6853C87.0866 51.9046 85.8165 53.4973 84.9216 55.4202C84.0175 57.3555 83.5623 59.5378 83.5623 61.9083C83.5623 62.3991 83.5869 62.8713 83.6269 63.3374C83.6238 63.1708 83.6146 63.0041 83.6146 62.8343C83.6146 60.3249 84.0943 58.0408 85.0569 55.9758C86.0164 53.914 87.3634 52.2256 89.0948 50.9138C90.8262 49.6019 92.7975 48.8488 95.0086 48.6543L95.0055 48.6513Z" fill="#DCCCBB" stroke="#ED705B" stroke-miterlimit="10"/>
<path d="M104.37 76.0945C104.044 76.4433 103.696 76.789 103.33 77.1316C102.07 78.3045 100.569 79.32 98.862 80.1503C97.1398 80.9899 95.2639 81.5022 93.2926 81.6782C92.736 81.7276 92.1763 81.7523 91.635 81.7523C91.4474 81.7523 91.2598 81.743 91.0722 81.7368C92.0625 81.8263 93.0835 81.8263 94.1383 81.7368C96.0143 81.5702 97.7672 81.0917 99.4033 80.2954C101.036 79.499 102.457 78.5422 103.656 77.4217C103.945 77.1532 104.213 76.8847 104.471 76.613C104.428 76.4464 104.391 76.2766 104.364 76.0976L104.37 76.0945Z" fill="#DCCCBB" stroke="#ED705B" stroke-miterlimit="10"/>
<path d="M113.273 28.7734V74.6963C113.273 75.9803 112.842 77.0976 111.997 78.0236C111.151 78.9465 110.099 79.4713 108.872 79.5793C108.795 79.5855 108.721 79.5855 108.645 79.5886C108.977 79.6503 109.333 79.6657 109.718 79.6318C110.727 79.5423 111.581 79.1163 112.277 78.357C112.972 77.5977 113.322 76.684 113.322 75.6222V29.4463C113.322 29.2087 113.304 28.9864 113.27 28.7734H113.273Z" fill="#DCCCBB" stroke="#ED705B" stroke-miterlimit="10"/>
<path d="M105.188 73.6993V75.3352C105.188 76.397 105.523 77.249 106.197 77.8879C106.87 78.5299 107.734 78.8015 108.792 78.7089C109.85 78.6163 110.656 78.1935 111.351 77.4342C112.046 76.6748 112.396 75.7612 112.396 74.6994V28.5204C112.396 27.4123 112.046 26.5511 111.351 25.9338C110.653 25.3196 109.801 25.0572 108.792 25.1467C107.783 25.2362 106.87 25.6684 106.197 26.4246C105.523 27.1839 105.188 28.0944 105.188 29.1562V45.5802C104.628 44.9845 103.979 44.4165 103.241 43.8764C101.943 42.9288 100.415 42.1972 98.6621 41.6756C96.9061 41.157 95.0209 40.9842 93.0005 41.1632C89.7775 41.4472 86.8591 42.5645 84.2389 44.506C81.6187 46.4506 79.5398 48.9755 78.0022 52.0775C76.4645 55.1796 75.6957 58.6644 75.6957 62.5227C75.6957 66.3809 76.4645 69.7299 78.0022 72.5604C79.5398 75.3908 81.6433 77.5484 84.3127 79.0238C86.9821 80.5023 89.9497 81.0949 93.2188 80.8078C95.0947 80.6412 96.8477 80.1627 98.4837 79.3664C100.117 78.57 101.538 77.6132 102.737 76.4927C103.727 75.5698 104.542 74.6408 105.188 73.6993ZM100.031 71.8103C98.3238 73.119 96.3402 73.8722 94.083 74.0728C91.8257 74.2734 89.9005 73.8629 88.1691 72.8567C86.4377 71.8504 85.0908 70.4028 84.1313 68.5076C83.1687 66.6155 82.6889 64.4148 82.6889 61.9053C82.6889 59.3959 83.1687 57.1118 84.1313 55.0469C85.0908 52.985 86.4377 51.2966 88.1691 49.9848C89.9005 48.673 91.8718 47.9198 94.083 47.7254C96.2941 47.5309 98.3238 47.9291 100.031 48.9353C101.737 49.9416 103.072 51.3923 104.032 53.2875C104.991 55.1827 105.474 57.3834 105.474 59.8898C105.474 62.3961 104.994 64.6864 104.032 66.7483C103.069 68.8132 101.734 70.4985 100.031 71.8072V71.8103Z" fill="#DCCCBB" stroke="#BAAFA6" stroke-miterlimit="10"/>
<path d="M140.219 44.6573C140.662 44.6172 141.095 44.6079 141.523 44.6141C141.163 44.577 140.8 44.5554 140.428 44.5554C140.083 44.5554 139.73 44.5709 139.373 44.6017C137.331 44.7807 135.449 45.4783 133.782 46.6759C132.097 47.8828 130.731 49.4693 129.72 51.3892C128.711 53.3029 128.197 55.5376 128.197 58.0347C128.197 58.4946 128.222 58.9422 128.259 59.3805C128.256 59.2416 128.247 59.1027 128.247 58.9638C128.247 56.3093 128.788 53.9573 129.87 51.9078C130.953 49.8582 132.395 48.1884 134.197 46.892C135.999 45.5987 138.008 44.8548 140.219 44.6604V44.6573Z" fill="#DCCCBB" stroke="#ED705B" stroke-miterlimit="10"/>
<path d="M159.335 54.374C159.344 54.6734 159.353 54.9759 159.353 55.2815C159.353 59.2725 158.455 62.9363 156.687 66.1711C154.919 69.3997 152.511 72.0573 149.522 74.0698C146.529 76.0884 143.116 77.2768 139.376 77.6071C138.712 77.6657 138.051 77.6966 137.408 77.6966C137.171 77.6966 136.934 77.6873 136.701 77.678C137.835 77.7737 139.01 77.7706 140.222 77.6626C143.826 77.3447 147.074 76.215 149.958 74.2704C152.843 72.3258 155.137 69.7948 156.844 66.6773C158.551 63.5598 159.403 60.0719 159.403 56.2106C159.403 55.584 159.378 54.9759 159.335 54.3771V54.374Z" fill="#DCCCBB" stroke="#ED705B" stroke-miterlimit="10"/>
<path d="M149.033 38.7833C146.148 37.3264 142.904 36.7554 139.296 37.0733C135.689 37.3913 132.506 38.5302 129.597 40.4995C126.687 42.4688 124.381 45.0121 122.674 48.1327C120.967 51.2502 120.115 54.7628 120.115 58.6735C120.115 62.5843 120.967 65.8715 122.674 68.6896C124.381 71.5077 126.687 73.6313 129.597 75.0635C132.506 76.4957 135.738 77.0544 139.296 76.7396C142.854 76.4247 146.148 75.2919 149.033 73.3474C151.917 71.4028 154.211 68.8718 155.918 65.7543C157.625 62.6368 158.477 59.1489 158.477 55.2875C158.477 51.4261 157.622 48.0154 155.918 45.2004C154.211 42.3823 151.917 40.2464 149.033 38.7895V38.7833ZM149.682 62.8621C148.624 64.9332 147.194 66.6031 145.391 67.8717C143.589 69.1403 141.557 69.8749 139.299 70.0755C137.042 70.2762 135.08 69.8934 133.278 68.9427C131.476 67.9921 130.033 66.5753 128.951 64.6925C127.868 62.8096 127.327 60.5903 127.327 58.0315C127.327 55.4727 127.868 53.025 128.951 50.9755C130.033 48.926 131.476 47.2561 133.278 45.9597C135.08 44.6664 137.088 43.9226 139.299 43.7281C141.51 43.5336 143.589 43.9164 145.391 44.8918C147.194 45.8671 148.624 47.2839 149.682 49.1451C150.739 51.0064 151.268 53.2627 151.268 55.9172C151.268 58.5717 150.739 60.7879 149.682 62.8621Z" fill="#DCCCBB" stroke="#BAAFA6" stroke-miterlimit="10"/>
<path d="M174.038 54.8432C174.038 52.3337 174.518 50.0712 175.48 48.0557C176.44 46.0401 177.774 44.3919 179.481 43.1047C181.188 41.8207 183.196 41.0768 185.503 40.8731C185.936 40.8361 186.355 40.8268 186.767 40.8299C186.419 40.7928 186.062 40.7712 185.697 40.7712C185.361 40.7712 185.011 40.7867 184.657 40.8175C182.526 41.0058 180.65 41.7003 179.082 42.8794C177.498 44.0739 176.237 45.6296 175.342 47.5063C174.441 49.3922 173.986 51.5467 173.986 53.9141C173.986 54.3925 174.01 54.8555 174.047 55.3123C174.044 55.1549 174.035 55.0006 174.035 54.8401L174.038 54.8432Z" fill="#DCCCBB" stroke="#ED705B" stroke-miterlimit="10"/>
<path d="M174.349 70.0849V83.7771C174.349 85.0581 173.921 86.1785 173.072 87.1014C172.224 88.0243 171.172 88.5491 169.945 88.6571C169.868 88.6633 169.794 88.6633 169.72 88.6664C170.052 88.7281 170.409 88.7435 170.79 88.7096C171.799 88.6201 172.654 88.1941 173.349 87.4348C174.044 86.6724 174.395 85.7618 174.395 84.7V70.1219C174.379 70.1096 174.361 70.0972 174.342 70.0818L174.349 70.0849Z" fill="#DCCCBB" stroke="#ED705B" stroke-miterlimit="10"/>
<path d="M203.749 50.2226C203.761 50.5744 203.77 50.9263 203.77 51.2844C203.77 55.263 202.964 58.9083 201.371 62.1184C199.775 65.3347 197.601 67.9738 194.907 69.9646C192.195 71.9709 189.085 73.1408 185.669 73.4433C185.152 73.4896 184.632 73.5112 184.128 73.5112C183.971 73.5112 183.817 73.5019 183.661 73.4957C184.583 73.5791 185.533 73.5822 186.515 73.4957C189.784 73.2056 192.717 72.1037 195.313 70.1838C197.909 68.267 199.975 65.7545 201.516 62.6524C203.054 59.5504 203.822 56.0686 203.822 52.2073C203.822 51.5282 203.798 50.8646 203.749 50.2195V50.2226Z" fill="#DCCCBB" stroke="#ED705B" stroke-miterlimit="10"/>
<path d="M194.353 34.959C191.733 33.5022 188.741 32.9219 185.377 33.2182C183.741 33.3633 182.169 33.7676 180.653 34.4312C179.14 35.0979 177.793 35.9159 176.615 36.8882C175.437 37.8605 174.462 38.876 173.694 39.9316C173.617 40.0365 173.546 40.1384 173.478 40.2433V38.4685C173.478 37.4561 173.128 36.6166 172.433 35.956C171.735 35.2924 170.883 35.0084 169.874 35.0979C168.865 35.1875 167.952 35.6288 167.278 36.4128C166.605 37.1968 166.27 38.0951 166.27 39.1075V84.416C166.27 85.4778 166.605 86.3267 167.278 86.9687C167.952 87.6076 168.816 87.8823 169.874 87.7897C170.932 87.6971 171.738 87.2743 172.433 86.515C173.128 85.7526 173.478 84.842 173.478 83.7802V68.0816C174.192 68.8656 175.056 69.5941 176.074 70.27C177.322 71.1003 178.765 71.7331 180.401 72.1683C182.034 72.6035 183.765 72.7393 185.592 72.5788C188.861 72.2887 191.795 71.1868 194.39 69.2669C196.986 67.3501 199.053 64.8376 200.593 61.7355C202.131 58.6335 202.9 55.1518 202.9 51.2904C202.9 47.429 202.131 44.1078 200.593 41.3268C199.056 38.5426 196.977 36.4252 194.357 34.9652L194.353 34.959ZM194.498 58.723C193.511 60.8126 192.179 62.4979 190.497 63.782C188.815 65.066 186.844 65.8068 184.583 66.0043C182.323 66.2019 180.269 65.8191 178.562 64.8345C176.855 63.8529 175.52 62.4022 174.561 60.4824C173.598 58.5656 173.118 56.3771 173.118 53.914C173.118 51.4509 173.598 49.1421 174.561 47.1265C175.52 45.111 176.855 43.4627 178.562 42.1756C180.269 40.8915 182.277 40.1477 184.583 39.9439C186.89 39.7402 188.812 40.1384 190.497 41.123C192.179 42.1077 193.514 43.5337 194.498 45.4011C195.482 47.2685 195.977 49.4322 195.977 51.8923C195.977 54.3523 195.482 56.6302 194.498 58.7168V58.723Z" fill="#DCCCBB" stroke="#BAAFA6" stroke-miterlimit="10"/>
<path d="M231.377 33.9529C231.325 35.0023 230.922 35.9345 230.175 36.7247C229.378 37.5642 228.379 38.0427 227.204 38.1476L222.231 38.5859V58.9916C222.231 59.2601 222.253 59.5009 222.283 59.72V38.7094L228.053 38.2001C229.012 38.1137 229.818 37.7309 230.467 37.0457C231.116 36.3605 231.442 35.561 231.442 34.6443C231.442 34.4035 231.42 34.172 231.38 33.9529H231.377Z" fill="#DCCCBB" stroke="#ED705B" stroke-miterlimit="10"/>
<path d="M222.231 30.1718H222.283V26.3351C222.283 26.1036 222.265 25.8845 222.231 25.6746V30.1718Z" fill="#DCCCBB" stroke="#ED705B" stroke-miterlimit="10"/>
<path d="M228.333 67.8318C226.964 68.7454 225.469 69.2763 223.889 69.4183C223.369 69.4646 222.791 69.4862 222.17 69.4862C221.914 69.4862 221.644 69.48 221.367 69.4739C221.527 69.4893 221.687 69.5047 221.85 69.5109C222.954 69.5572 223.916 69.5449 224.734 69.4739C226.177 69.3473 227.521 68.8658 228.772 68.0324C230.021 67.199 230.648 66.202 230.648 65.0446C230.648 64.7884 230.627 64.5538 230.59 64.3315C230.519 65.702 229.763 66.8811 228.333 67.8349V67.8318Z" fill="#DCCCBB" stroke="#ED705B" stroke-miterlimit="10"/>
<path d="M213.276 39.3761L210.259 39.6416C210.204 39.6478 210.148 39.6447 210.093 39.6478C210.41 39.7095 210.745 39.728 211.105 39.6941L213.276 39.5027V39.373V39.3761Z" fill="#DCCCBB" stroke="#ED705B" stroke-miterlimit="10"/>
<path d="M227.127 37.274C228.087 37.1876 228.892 36.8048 229.541 36.1196C230.19 35.4344 230.516 34.6349 230.516 33.7182C230.516 32.7521 230.19 31.9743 229.541 31.3786C228.892 30.7828 228.087 30.5297 227.127 30.6162L221.358 31.1254V25.409C221.358 24.3472 221.02 23.4984 220.349 22.8564C219.676 22.2174 218.811 21.9427 217.754 22.0353C216.696 22.1279 215.89 22.5508 215.195 23.3101C214.497 24.0725 214.149 24.9831 214.149 26.0449V31.7613L210.182 32.1132C209.22 32.1996 208.414 32.5823 207.765 33.2676C207.116 33.9528 206.79 34.7769 206.79 35.743C206.79 36.7092 207.113 37.416 207.765 38.0086C208.417 38.6013 209.22 38.8574 210.182 38.771L214.149 38.4191V59.9144C214.149 62.2294 214.484 63.998 215.158 65.2172C215.831 66.4364 216.683 67.2914 217.717 67.7791C218.75 68.2668 219.82 68.5354 220.924 68.5816C222.028 68.6279 222.991 68.6156 223.809 68.5446C225.251 68.4181 226.595 67.9365 227.847 67.1032C229.095 66.2698 229.723 65.2728 229.723 64.1153C229.723 63.1986 229.483 62.4979 229 62.0071C228.52 61.5195 227.991 61.3003 227.413 61.3497C226.835 61.3991 226.343 61.5411 225.934 61.7695C225.525 61.9979 225.057 62.1368 224.528 62.1831C223.999 62.2294 223.483 62.18 222.978 62.0318C222.474 61.8837 222.077 61.5565 221.788 61.0503C221.499 60.5441 221.355 59.8588 221.355 58.9884V37.7833L227.124 37.274H227.127Z" fill="#DCCCBB" stroke="#BAAFA6" stroke-miterlimit="10"/>
<path d="M239.72 67.2112C239.49 67.2328 239.216 67.2853 238.912 67.3748C238.656 67.4489 238.426 67.5631 238.22 67.7174C238.22 67.7174 238.217 67.7174 238.214 67.7205C238.343 67.8008 238.475 67.8749 238.62 67.9428C238.909 67.7236 239.232 67.5631 239.594 67.4582C239.927 67.3625 240.228 67.3038 240.499 67.273C240.348 67.2236 240.173 67.1958 239.97 67.1958C239.89 67.1958 239.807 67.1989 239.724 67.2081L239.72 67.2112Z" fill="#DCCCBB" stroke="#ED705B" stroke-miterlimit="10"/>
<path d="M248.946 65.5073C248.946 65.5629 248.953 65.6123 248.953 65.6678C248.953 66.6556 248.71 67.7606 248.208 69.0508C247.729 70.2792 247.095 71.4954 246.32 72.6683C245.527 73.8659 244.619 74.8845 243.617 75.6932C242.547 76.5574 241.406 77.0513 240.225 77.1562C240.154 77.1624 240.086 77.1624 240.016 77.1655C240.345 77.2272 240.695 77.2427 241.071 77.2118C242.079 77.1223 243.054 76.6994 243.992 75.9401C244.93 75.1808 245.77 74.2394 246.517 73.1128C247.261 71.9862 247.864 70.8348 248.319 69.6619C248.774 68.4859 249.005 67.4673 249.005 66.5969C249.005 66.2142 248.983 65.8592 248.949 65.5104L248.946 65.5073Z" fill="#DCCCBB" stroke="#ED705B" stroke-miterlimit="10"/>
<path d="M246.458 60.8496C245.376 59.8125 243.921 59.3742 242.095 59.5347C241.277 59.6057 240.4 59.8897 239.462 60.3835C238.524 60.8774 237.743 61.5009 237.119 62.254C236.494 63.0103 236.181 63.8467 236.181 64.7604C236.181 65.4363 236.325 65.9302 236.614 66.2419C236.903 66.5537 237.263 66.813 237.697 67.0136C237.986 66.7945 238.309 66.6339 238.672 66.529C239.032 66.4241 239.358 66.3592 239.647 66.3345C240.366 66.2697 240.944 66.4148 241.378 66.7605C241.812 67.1093 242.027 67.5476 242.027 68.0785C242.027 68.7545 241.846 69.3718 241.486 69.9366C241.126 70.4984 240.631 70.9768 240.006 71.3688C239.478 71.6559 238.89 71.9244 238.238 72.1775C237.589 72.4275 237.263 73.0603 237.263 74.0727C237.263 74.9401 237.552 75.542 238.127 75.8784C238.706 76.2117 239.376 76.3476 240.148 76.2796C241.157 76.1901 242.132 75.7673 243.069 75.008C244.007 74.2487 244.847 73.3072 245.594 72.1806C246.339 71.054 246.941 69.9027 247.396 68.7298C247.852 67.5538 248.082 66.5352 248.082 65.6647C248.082 63.4948 247.541 61.8898 246.458 60.8496Z" fill="#DCCCBB" stroke="#BAAFA6" stroke-miterlimit="10"/>
<path d="M139.29 64.5258C139.29 64.5258 138.887 64.4795 137.808 65.0875C137.808 65.0875 137.427 65.319 136.975 64.9085C136.975 64.9085 136.436 64.4239 137.285 63.6059C137.285 63.6059 137.996 62.5997 138.18 61.9947L138.076 52.2966C138.076 52.2966 138.079 51.7379 137.491 51.0742C137.491 51.0742 136.123 49.9291 136.784 49.0525C136.784 49.0525 137.384 48.4506 138.721 49.4538C138.721 49.4538 139.186 49.7624 139.724 49.5865C139.724 49.5865 139.678 49.5772 139.475 49.3334C139.475 49.3334 140.114 49.1729 140.671 48.784C140.671 48.784 141.474 48.3302 141.843 48.9013C141.843 48.9013 142.261 49.6112 141.218 50.5896C141.218 50.5896 140.474 51.2131 140.44 52.8275C140.41 54.4418 140.496 61.5719 140.496 61.5719C140.496 61.5719 140.453 62.1305 140.905 62.7263C140.905 62.7263 142.335 64.2418 141.874 64.8529C141.874 64.8529 141.36 65.5783 140.305 64.7357C140.305 64.7357 139.512 64.2387 138.86 64.1646C138.86 64.1646 139.155 64.2171 139.287 64.5288L139.29 64.5258Z" fill="#DCCCBB"/>
<path d="M140.047 49.6298C140.047 49.6298 139.352 50.1082 138.478 50.1669C138.478 50.1669 137.728 50.1761 138.005 51.0712C138.005 51.0712 138.189 51.4756 138.134 56.0407C138.134 56.0407 138.026 51.954 137.1 50.5959C137.1 50.5959 136.218 49.6236 136.799 49.0402C136.799 49.0402 137.331 48.3859 138.669 49.4014C138.669 49.4014 139.638 49.4755 140.044 49.6329L140.047 49.6298Z" fill="#BFB2A5"/>
<path d="M140.413 49C140.413 49 141.513 48.8426 141.778 49.7007C141.778 49.7007 142.116 49.2747 141.72 48.75C141.72 48.75 141.218 48.3333 140.413 48.9969V49Z" fill="#BFB2A5"/>
<path d="M138.57 64.0936C138.57 64.0936 139.032 63.6368 140.004 63.8127C140.004 63.8127 141.144 63.9578 140.262 62.6769C140.262 62.6769 139.146 60.9422 140.388 55.5251C140.388 55.5251 140.557 61.5348 140.699 62.396C140.699 62.396 142.528 64.0195 141.87 64.8498C141.87 64.8498 141.381 65.8376 139.542 64.4918C139.542 64.4918 138.841 64.1615 138.567 64.0936H138.57Z" fill="#BFB2A5"/>
<defs>
<linearGradient id="paint0_linear_6_345" x1="7.3838" y1="99.6825" x2="233.478" y2="135.186" gradientUnits="userSpaceOnUse">
<stop stop-color="#F18F6B"/>
<stop offset="1" stop-color="#ED705B"/>
</linearGradient>
<linearGradient id="paint1_linear_6_345" x1="7.50682" y1="98.8985" x2="233.601" y2="134.405" gradientUnits="userSpaceOnUse">
<stop stop-color="#F18F6B"/>
<stop offset="1" stop-color="#ED705B"/>
</linearGradient>
<linearGradient id="paint2_linear_6_345" x1="8.03881" y1="95.5125" x2="234.133" y2="131.019" gradientUnits="userSpaceOnUse">
<stop stop-color="#F18F6B"/>
<stop offset="1" stop-color="#ED705B"/>
</linearGradient>
<linearGradient id="paint3_linear_6_345" x1="8.76465" y1="90.9073" x2="234.855" y2="126.41" gradientUnits="userSpaceOnUse">
<stop stop-color="#F18F6B"/>
<stop offset="1" stop-color="#ED705B"/>
</linearGradient>
<linearGradient id="paint4_linear_6_345" x1="10.0686" y1="82.5889" x2="236.162" y2="118.092" gradientUnits="userSpaceOnUse">
<stop stop-color="#F18F6B"/>
<stop offset="1" stop-color="#ED705B"/>
</linearGradient>
<linearGradient id="paint5_linear_6_345" x1="9.35819" y1="87.1262" x2="235.449" y2="122.629" gradientUnits="userSpaceOnUse">
<stop stop-color="#F18F6B"/>
<stop offset="1" stop-color="#ED705B"/>
</linearGradient>
<linearGradient id="paint6_linear_6_345" x1="9.78558" y1="84.3944" x2="235.876" y2="119.901" gradientUnits="userSpaceOnUse">
<stop stop-color="#F18F6B"/>
<stop offset="1" stop-color="#ED705B"/>
</linearGradient>
<linearGradient id="paint7_linear_6_345" x1="10.5237" y1="79.6905" x2="236.618" y2="115.197" gradientUnits="userSpaceOnUse">
<stop stop-color="#F18F6B"/>
<stop offset="1" stop-color="#ED705B"/>
</linearGradient>
<linearGradient id="paint8_linear_6_345" x1="10.8374" y1="77.7089" x2="236.928" y2="113.212" gradientUnits="userSpaceOnUse">
<stop stop-color="#F18F6B"/>
<stop offset="1" stop-color="#ED705B"/>
</linearGradient>
<linearGradient id="paint9_linear_6_345" x1="10.9758" y1="76.8107" x2="237.07" y2="112.314" gradientUnits="userSpaceOnUse">
<stop stop-color="#F18F6B"/>
<stop offset="1" stop-color="#ED705B"/>
</linearGradient>
</defs>
</svg>
